<?xml version="1.0" encoding="UTF-8"?>
<svg version="1.1" xmlns="http://www.w3.org/2000/svg" width="60" height="64">
<path d="M0 0 C2.14512549 1.25927916 4.20933864 2.59441297 6.27050781 3.98657227 C7.67396323 4.90353044 9.0776004 5.8202105 10.48144531 6.73657227 C11.09036621 7.14391602 11.69928711 7.55125977 12.32666016 7.97094727 C13.92975396 9.04979931 13.92975396 9.04979931 15.89550781 9.98657227 C18.5823913 40.40549751 18.5823913 40.40549751 14.40429688 47.52905273 C10.583496 51.12976139 6.04755885 52.80811287 1.07617188 54.28930664 C-2.04738264 55.28806075 -4.72920131 56.88390007 -7.54199219 58.54907227 C-15.70607338 62.94895114 -15.70607338 62.94895114 -21.10449219 61.98657227 C-25.06957367 60.37330657 -28.75144371 58.33207664 -32.47949219 56.23657227 C-33.48882812 55.69774414 -34.49816406 55.15891602 -35.53808594 54.60375977 C-42.87641882 50.55434323 -42.87641882 50.55434323 -43.95849609 47.8605957 C-44.0066748 47.24216797 -44.05485352 46.62374023 -44.10449219 45.98657227 C-43.60949219 45.49157227 -43.60949219 45.49157227 -43.10449219 44.98657227 C-43.00521979 43.41095067 -42.97369266 41.83094182 -42.97167969 40.25219727 C-42.97039063 39.28540039 -42.96910156 38.31860352 -42.96777344 37.32250977 C-42.97164062 36.30415039 -42.97550781 35.28579102 -42.97949219 34.23657227 C-42.975625 33.23368164 -42.97175781 32.23079102 -42.96777344 31.19750977 C-42.9690625 30.22555664 -42.97035156 29.25360352 -42.97167969 28.25219727 C-42.97280762 27.36306641 -42.97393555 26.47393555 -42.97509766 25.55786133 C-43.10655245 22.94563128 -43.527433 20.53434304 -44.10449219 17.98657227 C-28.34258743 4.98657227 -28.34258743 4.98657227 -21.10449219 4.98657227 C-21.10449219 4.32657227 -21.10449219 3.66657227 -21.10449219 2.98657227 C-19.45059339 2.10793853 -17.78048498 1.2597915 -16.10449219 0.42407227 C-15.17636719 -0.0515918 -14.24824219 -0.52725586 -13.29199219 -1.01733398 C-8.45735545 -2.52815797 -4.50134773 -2.16764436 0 0 Z " fill="#EBC341" transform="translate(44.1044921875,2.013427734375)"/>
<path d="M0 0 C2.14512549 1.25927916 4.20933864 2.59441297 6.27050781 3.98657227 C7.67396323 4.90353044 9.0776004 5.8202105 10.48144531 6.73657227 C11.09036621 7.14391602 11.69928711 7.55125977 12.32666016 7.97094727 C13.92975396 9.04979931 13.92975396 9.04979931 15.89550781 9.98657227 C15.89550781 12.62657227 15.89550781 15.26657227 15.89550781 17.98657227 C10.69527912 20.97158029 5.49109421 23.94929845 0.27832031 26.91235352 C-2.74479211 28.63171607 -5.75626526 30.36327927 -8.73730469 32.15454102 C-10.125625 32.96858398 -10.125625 32.96858398 -11.54199219 33.79907227 C-12.30382812 34.25926758 -13.06566406 34.71946289 -13.85058594 35.19360352 C-17.72921733 36.55818267 -20.6246772 35.64286931 -24.31469727 34.00634766 C-26.83746887 32.759303 -29.31602132 31.4490133 -31.79199219 30.11157227 C-33.07299805 29.44061523 -33.07299805 29.44061523 -34.37988281 28.75610352 C-41.78377914 24.81278717 -41.78377914 24.81278717 -44.10449219 21.98657227 C-44.06933594 19.51782227 -44.06933594 19.51782227 -43.10449219 16.98657227 C-38.15653981 12.26852474 -28.19427796 4.98657227 -21.10449219 4.98657227 C-21.10449219 4.32657227 -21.10449219 3.66657227 -21.10449219 2.98657227 C-19.45059339 2.10793853 -17.78048498 1.2597915 -16.10449219 0.42407227 C-15.17636719 -0.0515918 -14.24824219 -0.52725586 -13.29199219 -1.01733398 C-8.45735545 -2.52815797 -4.50134773 -2.16764436 0 0 Z " fill="#888E8D" transform="translate(44.1044921875,2.013427734375)"/>
<path d="M0 0 C0.1743959 3.58271776 0.28087658 7.16434602 0.375 10.75 C0.42527344 11.76578125 0.47554687 12.7815625 0.52734375 13.828125 C0.58344804 16.67074256 0.57153416 19.21330774 0 22 C-2.93359375 24.609375 -2.93359375 24.609375 -6 26 C-6.474375 26.495 -6.94875 26.99 -7.4375 27.5 C-11.71403657 31.60547511 -17.62479926 33.73675758 -23 36 C-25.11184436 37.05592218 -27.20989241 38.13367637 -29.30078125 39.23046875 C-31 40 -31 40 -33 40 C-33 33.07 -33 26.14 -33 19 C-30.69 17.68 -28.38 16.36 -26 15 C-24.64509029 13.68859798 -23.30883635 12.35738829 -22 11 C-19.74169922 9.53613281 -19.74169922 9.53613281 -17.3046875 8.203125 C-16.42425781 7.71972656 -15.54382813 7.23632812 -14.63671875 6.73828125 C-13.26966797 6.00158203 -13.26966797 6.00158203 -11.875 5.25 C-10.95589844 4.74339844 -10.03679688 4.23679687 -9.08984375 3.71484375 C-2.27095266 0 -2.27095266 0 0 0 Z " fill="#F6EB7F" transform="translate(59,21)"/>
<path d="M0 0 C0.1875 2.3125 0.1875 2.3125 0 5 C-0.99 5.99 -1.98 6.98 -3 8 C2.28 5.36 7.56 2.72 13 0 C12 4 12 4 10.00976562 5.47631836 C9.15060547 5.92628174 8.29144531 6.37624512 7.40625 6.83984375 C6.4575 7.34580078 5.50875 7.85175781 4.53125 8.37304688 C3.5309375 8.88931641 2.530625 9.40558594 1.5 9.9375 C-0.44803972 10.96721515 -2.39595773 11.99716061 -4.34375 13.02734375 C-5.29765625 13.52089355 -6.2515625 14.01444336 -7.234375 14.52294922 C-9.02095959 15.47711913 -10.78447066 16.47643802 -12.515625 17.52783203 C-18.18073428 20.9675324 -18.18073428 20.9675324 -21.95703125 21.1171875 C-26.40817292 19.48300712 -30.51986154 17.37622629 -34.6875 15.125 C-35.54150391 14.67769531 -36.39550781 14.23039062 -37.27539062 13.76953125 C-44.15083413 10.10766896 -44.15083413 10.10766896 -47 7 C-46.67 6.01 -46.34 5.02 -46 4 C-44.68 4.66 -43.36 5.32 -42 6 C-41.67 4.68 -41.34 3.36 -41 2 C-40.41992188 2.38414063 -39.83984375 2.76828125 -39.2421875 3.1640625 C-34.27761912 6.36483457 -34.27761912 6.36483457 -28.5625 6.5 C-25.75589949 5.10818505 -25.75589949 5.10818505 -24 2 C-16.37018756 3.81046397 -16.37018756 3.81046397 -13.55859375 5.25 C-10.95067915 6.30756872 -10.95067915 6.30756872 -8.359375 4.8828125 C-7.49828125 4.30273438 -6.6371875 3.72265625 -5.75 3.125 C-1.01345291 0 -1.01345291 0 0 0 Z " fill="#5E5054" transform="translate(47,17)"/>
<path d="M0 0 C0.66 0.33 1.32 0.66 2 1 C1.505 2.093125 1.01 3.18625 0.5 4.3125 C-1.18839906 7.79966245 -1.18839906 7.79966245 -1 11 C-1.9272999 12.70818403 -2.94712186 14.36622358 -4 16 C-4.89722665 17.43663076 -5.7929934 18.87417405 -6.6875 20.3125 C-7.45789096 21.54194398 -8.22857328 22.77120566 -9 24 C-9.33 23.01 -9.66 22.02 -10 21 C-13.5691602 22.92927578 -15.75265539 24.62898309 -18 28 C-18.99 29.32 -19.98 30.64 -21 32 C-21 25.07 -21 18.14 -21 11 C-18.69 9.68 -16.38 8.36 -14 7 C-13.67 6.34 -13.34 5.68 -13 5 C-11.07421875 4.47265625 -11.07421875 4.47265625 -8.6875 4.0625 C-5.10179958 3.34878574 -2.70773508 2.59000746 0 0 Z " fill="#F9EF7E" transform="translate(47,29)"/>
<path d="M0 0 C0.33 0 0.66 0 1 0 C1.48828125 2.6875 1.48828125 2.6875 1 6 C-1.30661549 8.17542227 -4.01882494 9.53318122 -6.8125 11 C-7.58408447 11.42788818 -8.35566895 11.85577637 -9.15063477 12.29663086 C-11.42320261 13.55174418 -13.71000355 14.7770619 -16 16 C-17.17067958 16.64458346 -18.34012085 17.29142568 -19.5078125 17.94140625 C-30.44086664 23.99102954 -30.44086664 23.99102954 -36 23 C-39.96508148 21.3867343 -43.64695153 19.34550437 -47.375 17.25 C-48.38433594 16.71117188 -49.39367187 16.17234375 -50.43359375 15.6171875 C-57.80032188 11.55210199 -57.80032188 11.55210199 -58.79150391 8.81152344 C-58.86030762 8.2137207 -58.92911133 7.61591797 -59 7 C-58.34 6.67 -57.68 6.34 -57 6 C-57 6.66 -57 7.32 -57 8 C-56.02353516 8.34998047 -56.02353516 8.34998047 -55.02734375 8.70703125 C-52.5607565 9.76050271 -50.33359641 10.88798429 -48.00390625 12.19921875 C-47.28009766 12.60333984 -46.55628906 13.00746094 -45.81054688 13.42382812 C-44.30977437 14.26744221 -42.81492563 15.12168075 -41.32617188 15.98632812 C-37.86700852 17.8957863 -35.75147302 19.01889932 -31.73828125 18.91796875 C-29.11942422 18.04003522 -26.97494626 17.06641685 -24.625 15.625 C-19.61881622 12.70051217 -14.54946195 10.86790194 -9.0625 9 C-8.381875 8.67 -7.70125 8.34 -7 8 C-6.67 7.01 -6.34 6.02 -6 5 C-4.35178756 3.96986723 -2.68496298 2.96885372 -1 2 C-0.67 1.34 -0.34 0.68 0 0 Z " fill="#5E5054" transform="translate(59,41)"/>
<path d="M0 0 C2.20570067 0.8001884 4.24371041 1.73945871 6.328125 2.81640625 C7.03453125 3.17863281 7.7409375 3.54085938 8.46875 3.9140625 C8.99984375 4.19121094 9.5309375 4.46835937 10.078125 4.75390625 C10.408125 3.76390625 10.738125 2.77390625 11.078125 1.75390625 C12.7856248 3.0345311 14.45186096 4.37158182 16.078125 5.75390625 C16.078125 6.41390625 16.078125 7.07390625 16.078125 7.75390625 C15.088125 8.08390625 14.098125 8.41390625 13.078125 8.75390625 C12.088125 8.09390625 11.098125 7.43390625 10.078125 6.75390625 C9.76875 7.68203125 9.76875 7.68203125 9.453125 8.62890625 C8.078125 10.75390625 8.078125 10.75390625 5.515625 12.31640625 C0.39181653 12.96852733 -2.74037668 10.52298736 -6.921875 7.75390625 C-6.591875 9.40390625 -6.261875 11.05390625 -5.921875 12.75390625 C-9.57504171 11.50413869 -10.70253336 11.08291872 -12.921875 7.75390625 C-11.65180286 6.79456435 -10.38078581 5.83647331 -9.109375 4.87890625 C-8.40167969 4.34523438 -7.69398437 3.8115625 -6.96484375 3.26171875 C-2.16913226 -0.27775474 -2.16913226 -0.27775474 0 0 Z " fill="#878A88" transform="translate(12.921875,12.24609375)"/>
<path d="M0 0 C0.495 1.485 0.495 1.485 1 3 C-4.20022869 5.98500803 -9.4044136 8.96272619 -14.6171875 11.92578125 C-17.64029992 13.64514381 -20.65177307 15.37670701 -23.6328125 17.16796875 C-25.02113281 17.98201172 -25.02113281 17.98201172 -26.4375 18.8125 C-27.19933594 19.27269531 -27.96117188 19.73289062 -28.74609375 20.20703125 C-32.62472514 21.5716104 -35.52018502 20.65629705 -39.21020508 19.01977539 C-41.73297668 17.77273073 -44.21152913 16.46244104 -46.6875 15.125 C-47.54150391 14.67769531 -48.39550781 14.23039062 -49.27539062 13.76953125 C-56.15083413 10.10766896 -56.15083413 10.10766896 -59 7 C-58.67 6.01 -58.34 5.02 -58 4 C-57.50113281 4.35191406 -57.00226562 4.70382813 -56.48828125 5.06640625 C-51.88761867 8.22987801 -47.17813252 11.13529178 -42.3125 13.875 C-41.25675781 14.47054688 -40.20101562 15.06609375 -39.11328125 15.6796875 C-35.59203215 17.17301522 -33.77932131 17.5839906 -30 17 C-27.1573466 15.71730738 -24.56893748 14.10446585 -21.9375 12.4375 C-20.43872258 11.52013498 -18.93870688 10.60479019 -17.4375 9.69140625 C-16.695 9.23652832 -15.9525 8.78165039 -15.1875 8.31298828 C-11.99253196 6.39529429 -8.72862974 4.62107687 -5.4375 2.875 C-4.38433594 2.31554687 -3.33117188 1.75609375 -2.24609375 1.1796875 C-1.50488281 0.79039063 -0.76367188 0.40109375 0 0 Z " fill="#5E5054" transform="translate(59,17)"/>
<path d="M0 0 C2.93389179 0.40748497 4.67093305 0.73263311 7 2.625 C8.92569783 4.26783602 8.92569783 4.26783602 11.375 3.75 C12.24125 3.5025 13.1075 3.255 14 3 C15.99897128 2.66055205 17.99875639 2.32578384 20 2 C17.42615591 4.87456815 14.48436136 6.70938319 11.1875 8.6875 C9.66189453 9.62142578 9.66189453 9.62142578 8.10546875 10.57421875 C4.55876615 12.20257907 2.85236101 12.5996826 -1 12 C-3.93311071 10.7250978 -6.63789388 9.14820314 -9.375 7.5 C-10.11105469 7.07074219 -10.84710938 6.64148438 -11.60546875 6.19921875 C-13.41044544 5.14436224 -15.20618718 4.07373119 -17 3 C-16.34 2.67 -15.68 2.34 -15 2 C-13.700625 2.7734375 -13.700625 2.7734375 -12.375 3.5625 C-7.69012903 5.55790801 -5.71418454 4.75783152 -1 3 C-0.67 2.01 -0.34 1.02 0 0 Z " fill="#838583" transform="translate(24,23)"/>
<path d="M0 0 C0.25 2.26171875 0.25 2.26171875 0 5 C-1.75 7.01953125 -1.75 7.01953125 -4 8.8125 C-4.7425 9.41707031 -5.485 10.02164062 -6.25 10.64453125 C-6.8275 11.09183594 -7.405 11.53914063 -8 12 C-8 10.33333333 -8 8.66666667 -8 7 C-8.58007812 7.34933594 -9.16015625 7.69867188 -9.7578125 8.05859375 C-14.17269444 10.63029891 -17.79941563 12.59995505 -23 13 C-20.81695718 10.63213568 -18.65023162 9.08120454 -15.83984375 7.51953125 C-15.04642578 7.07802734 -14.25300781 6.63652344 -13.43554688 6.18164062 C-12.61119141 5.72982422 -11.78683594 5.27800781 -10.9375 4.8125 C-9.69516602 4.11737305 -9.69516602 4.11737305 -8.42773438 3.40820312 C-2.25883652 0 -2.25883652 0 0 0 Z " fill="#ECC443" transform="translate(59,21)"/>
<path d="M0 0 C0.66 0.33 1.32 0.66 2 1 C1.505 2.093125 1.01 3.18625 0.5 4.3125 C-1.18839906 7.79966245 -1.18839906 7.79966245 -1 11 C-1.9272999 12.70818403 -2.94712186 14.36622358 -4 16 C-4.89722665 17.43663076 -5.7929934 18.87417405 -6.6875 20.3125 C-7.45789096 21.54194398 -8.22857328 22.77120566 -9 24 C-10.38968056 19.83095832 -8.71035358 17.91956029 -7 14 C-7.33 13.34 -7.66 12.68 -8 12 C-7.67 11.34 -7.34 10.68 -7 10 C-6.34 10 -5.68 10 -5 10 C-5.268125 9.443125 -5.53625 8.88625 -5.8125 8.3125 C-5.874375 7.549375 -5.93625 6.78625 -6 6 C-3.625 3.3125 -3.625 3.3125 -1 1 C-0.67 0.67 -0.34 0.34 0 0 Z " fill="#FFFEF6" transform="translate(47,29)"/>
<path d="M0 0 C0.33 0.66 0.66 1.32 1 2 C2.6630584 2.67561748 4.33094605 3.33933281 6 4 C10.4907038 6.28474404 14.45159027 8.40402446 18 12 C19.20361088 12.77062024 20.43374072 13.50148077 21.6875 14.1875 C22.780625 14.785625 23.87375 15.38375 25 16 C22 17 22 17 19.65576172 16.07543945 C16.72091358 14.50130319 13.79088233 12.92158045 10.875 11.3125 C9.84761719 10.76916016 8.82023438 10.22582031 7.76171875 9.66601562 C6.78589844 9.13298828 5.81007813 8.59996094 4.8046875 8.05078125 C3.45866455 7.31855347 3.45866455 7.31855347 2.08544922 6.5715332 C0 5 0 5 -0.86279297 2.87182617 C-0.90807129 2.25412354 -0.95334961 1.6364209 -1 1 C-0.67 0.67 -0.34 0.34 0 0 Z " fill="#2D2C28" transform="translate(1,47)"/>
<path d="M0 0 C0.88300781 0.50789063 1.76601563 1.01578125 2.67578125 1.5390625 C10.06961466 5.78301947 17.4941586 9.95603647 25 14 C25 14.66 25 15.32 25 16 C25.66 16.33 26.32 16.66 27 17 C23.45231575 16.4177077 20.63913717 15.49093087 17.4609375 13.8203125 C16.21957031 13.16869141 16.21957031 13.16869141 14.953125 12.50390625 C14.10234375 12.04886719 13.2515625 11.59382813 12.375 11.125 C11.08722656 10.45404297 11.08722656 10.45404297 9.7734375 9.76953125 C2.2272991 5.77243607 2.2272991 5.77243607 0 3 C0 2.01 0 1.02 0 0 Z " fill="#141916" transform="translate(0,21)"/>
<path d="M0 0 C3.0289346 0.52018659 5.53326534 1.65885376 8.25 3.0625 C8.95640625 3.42472656 9.6628125 3.78695313 10.390625 4.16015625 C10.92171875 4.43730469 11.4528125 4.71445312 12 5 C12.33 4.01 12.66 3.02 13 2 C14.7074998 3.28062485 16.37373596 4.61767557 18 6 C18 6.66 18 7.32 18 8 C17.01 8.33 16.02 8.66 15 9 C14.01 8.34 13.02 7.68 12 7 C11.67 7.66 11.34 8.32 11 9 C9.51545194 8.40917986 8.03745649 7.80187345 6.5625 7.1875 C5.73878906 6.85105469 4.91507813 6.51460937 4.06640625 6.16796875 C2 5 2 5 1 2 C0.34 1.67 -0.32 1.34 -1 1 C-0.67 0.67 -0.34 0.34 0 0 Z " fill="#7C7C7A" transform="translate(11,12)"/>
<path d="M0 0 C0.66 0.33 1.32 0.66 2 1 C1.01 1.66 0.02 2.32 -1 3 C-1.33 3.99 -1.66 4.98 -2 6 C-7.92485096 10.10181989 -7.92485096 10.10181989 -11.43359375 9.76953125 C-14.15861821 8.95243868 -16.35656497 7.86707412 -18.8125 6.4375 C-19.60269531 5.98246094 -20.39289062 5.52742188 -21.20703125 5.05859375 C-21.79871094 4.70925781 -22.39039062 4.35992187 -23 4 C-22.34 3.67 -21.68 3.34 -21 3 C-20.0925 3.495 -19.185 3.99 -18.25 4.5 C-14.33244415 6.3081027 -13.08391938 6.28122961 -9 5 C-6.5999745 3.72485955 -4.26746989 2.38575527 -1.953125 0.9609375 C-1.30859375 0.64382812 -0.6640625 0.32671875 0 0 Z " fill="#766D6B" transform="translate(39,54)"/>
<path d="M0 0 C-1 3 -1 3 -3.5625 4.5 C-8.09079334 5.15866085 -9.82835213 3.70823278 -13.4609375 1.1640625 C-13.96882812 0.77992187 -14.47671875 0.39578125 -15 0 C-14.01 -0.33 -13.02 -0.66 -12 -1 C-11.401875 -1.20625 -10.80375 -1.4125 -10.1875 -1.625 C-6.59650671 -2.24059885 -3.24678249 -1.62339124 0 0 Z " fill="#9A9D9A" transform="translate(22,20)"/>
<path d="M0 0 C-2.43030784 1.53351528 -4.86805103 3.05183502 -7.3125 4.5625 C-8.00279297 5.00013672 -8.69308594 5.43777344 -9.40429688 5.88867188 C-10.07138672 6.29794922 -10.73847656 6.70722656 -11.42578125 7.12890625 C-12.34484253 7.70233765 -12.34484253 7.70233765 -13.2824707 8.28735352 C-15 9 -15 9 -18 8 C-17.34 8 -16.68 8 -16 8 C-15.34 5.36 -14.68 2.72 -14 0 C-12.63875 0.309375 -12.63875 0.309375 -11.25 0.625 C-6.65546737 1.15513838 -4.56847427 -1.36485538 0 0 Z " fill="#92918E" transform="translate(44,26)"/>
<path d="M0 0 C4.70588235 0.70588235 4.70588235 0.70588235 6 2 C6.125 4.5 6.125 4.5 6 7 C5 8 5 8 2.5625 8.1875 C0 8 0 8 -2 6 C-1.44444444 1.44444444 -1.44444444 1.44444444 0 0 Z " fill="#E34243" transform="translate(24,23)"/>
<path d="M0 0 C0.36723164 4.52919021 0.36723164 4.52919021 -1.21875 6.5625 C-3.30795847 8.24852789 -5.12601734 8.90791832 -7.6875 9.6875 C-8.49574219 9.93886719 -9.30398437 10.19023437 -10.13671875 10.44921875 C-10.75160156 10.63097656 -11.36648437 10.81273437 -12 11 C-11.8125 8.70703125 -11.8125 8.70703125 -11 6 C-8.75 4.19921875 -8.75 4.19921875 -6 2.6875 C-5.0925 2.17574219 -4.185 1.66398437 -3.25 1.13671875 C-1 0 -1 0 0 0 Z " fill="#625558" transform="translate(47,17)"/>
<path d="M0 0 C2.625 0.375 2.625 0.375 5 1 C5.625 3.375 5.625 3.375 6 6 C5.34 6.66 4.68 7.32 4 8 C1.375 7.625 1.375 7.625 -1 7 C-1.625 4.625 -1.625 4.625 -2 2 C-1.34 1.34 -0.68 0.68 0 0 Z " fill="#46CEE9" transform="translate(49,9)"/>
<path d="M0 0 C1.63410952 0.70851612 3.25709862 1.44271537 4.875 2.1875 C6.23238281 2.79658203 6.23238281 2.79658203 7.6171875 3.41796875 C10.46460099 5.30846459 11.05619488 6.77262041 12 10 C7.40004237 8.68572639 3.73569635 7.02413514 0 4 C0 2.68 0 1.36 0 0 Z " fill="#141916" transform="translate(5,19)"/>
<path d="M0 0 C3.93552873 3.67316014 5.87480631 6.74909611 7 12 C2.25 10.125 2.25 10.125 0 9 C0 6.03 0 3.06 0 0 Z " fill="#ECC643" transform="translate(2,40)"/>
<path d="M0 0 C3.96 1.98 7.92 3.96 12 6 C11.01 6.495 11.01 6.495 10 7 C9.67 7.66 9.34 8.32 9 9 C8.5875 8.525625 8.175 8.05125 7.75 7.5625 C5.817815 5.83733482 4.51807725 5.43415125 2 5 C2 4.34 2 3.68 2 3 C1.34 3 0.68 3 0 3 C0 2.01 0 1.02 0 0 Z " fill="#DE8F29" transform="translate(2,26)"/>
<path d="M0 0 C0.1875 2.875 0.1875 2.875 0 6 C-3 8 -3 8 -5.6875 7.625 C-6.450625 7.41875 -7.21375 7.2125 -8 7 C-6.66666667 5.66666667 -5.33333333 4.33333333 -4 3 C-3.443125 2.4225 -2.88625 1.845 -2.3125 1.25 C-1 0 -1 0 0 0 Z " fill="#776E6D" transform="translate(60,41)"/>
<path d="M0 0 C2.31 0.66 4.62 1.32 7 2 C6.67 2.99 6.34 3.98 6 5 C3.6875 5.625 3.6875 5.625 1 6 C0.01 5.34 -0.98 4.68 -2 4 C-1.34 2.68 -0.68 1.36 0 0 Z " fill="#7A7675" transform="translate(22,29)"/>
<path d="M0 0 C2.475 0.99 2.475 0.99 5 2 C5 2.99 5 3.98 5 5 C-0.75 8 -0.75 8 -3 8 C-2.67 7.01 -2.34 6.02 -2 5 C-1.34 5 -0.68 5 0 5 C0 3.35 0 1.7 0 0 Z " fill="#9A9E9A" transform="translate(47,17)"/>
<path d="M0 0 C2.4375 0.6875 2.4375 0.6875 5 2 C5.8125 4.625 5.8125 4.625 6 7 C3.5625 6.3125 3.5625 6.3125 1 5 C0.1875 2.375 0.1875 2.375 0 0 Z " fill="#141916" transform="translate(29,21)"/>
<path d="M0 0 C1.65 0.33 3.3 0.66 5 1 C5 1.66 5 2.32 5 3 C5.99 2.67 6.98 2.34 8 2 C8 2.66 8 3.32 8 4 C5.47524538 5.26237731 3.68799534 5.09856404 0.875 5.0625 C-0.03507812 5.05347656 -0.94515625 5.04445313 -1.8828125 5.03515625 C-2.58148437 5.02355469 -3.28015625 5.01195312 -4 5 C-4 4.67 -4 4.34 -4 4 C-2.35 3.67 -0.7 3.34 1 3 C0.67 2.01 0.34 1.02 0 0 Z " fill="#75706F" transform="translate(33,3)"/>
<path d="M0 0 C0.66 2.64 1.32 5.28 2 8 C-1.65316671 6.75023244 -2.78065836 6.32901247 -5 3 C-2.25 0 -2.25 0 0 0 Z " fill="#655B5D" transform="translate(5,17)"/>
<path d="M0 0 C2.98704569 0.49784095 4.39324263 1.26216175 7 3 C6.67 3.99 6.34 4.98 6 6 C4.0625 5.6875 4.0625 5.6875 2 5 C1.67 4.01 1.34 3.02 1 2 C0.34 1.67 -0.32 1.34 -1 1 C-0.67 0.67 -0.34 0.34 0 0 Z " fill="#6C6465" transform="translate(11,12)"/>
<path d="M0 0 C2.66666667 1.33333333 5.33333333 2.66666667 8 4 C7.67 4.99 7.34 5.98 7 7 C4.20171644 6.61402985 3.1794116 6.19863427 1.25 4.0625 C0 2 0 2 0 0 Z " fill="#DE8E29" transform="translate(11,43)"/>
<path d="M0 0 C3.36949443 1.68474722 4.87944386 2.8191658 7 6 C6.01 6 5.02 6 4 6 C3.67 6.66 3.34 7.32 3 8 C2.54625 7.21625 2.0925 6.4325 1.625 5.625 C0.11571258 2.96301969 0.11571258 2.96301969 -2 1 C-1.34 0.67 -0.68 0.34 0 0 Z " fill="#DD8D28" transform="translate(6,44)"/>
<path d="M0 0 C-4.95 2.475 -4.95 2.475 -10 5 C-10 4.01 -10 3.02 -10 2 C-4.5 -1.125 -4.5 -1.125 0 0 Z " fill="#A1A19C" transform="translate(44,26)"/>
<path d="M0 0 C1.65 0.33 3.3 0.66 5 1 C4.67 2.32 4.34 3.64 4 5 C1.525 4.01 1.525 4.01 -1 3 C-0.67 2.01 -0.34 1.02 0 0 Z " fill="#757170" transform="translate(18,16)"/>
<path d="M0 0 C1.65 0.33 3.3 0.66 5 1 C5 1.66 5 2.32 5 3 C3.35 3.33 1.7 3.66 0 4 C0 2.68 0 1.36 0 0 Z " fill="#F0AF62" transform="translate(24,23)"/>
</svg>
