<?xml version="1.0" encoding="UTF-8"?>
<svg version="1.1" xmlns="http://www.w3.org/2000/svg" width="73" height="73">
<path d="M0 0 C0.88429687 -0.01417969 1.76859375 -0.02835937 2.6796875 -0.04296875 C5.125 0.1875 5.125 0.1875 8.125 2.1875 C11.26721967 1.87243373 11.26721967 1.87243373 14.125 1.1875 C17.03727269 4.47554981 18.62201212 6.78635603 19.125 11.1875 C18.465 11.1875 17.805 11.1875 17.125 11.1875 C17.021875 12.46625 16.91875 13.745 16.8125 15.0625 C16.63671875 17.2421875 16.63671875 17.2421875 16.125 19.1875 C13.125 21.1875 13.125 21.1875 10.125 21.1875 C10.125 24.1575 10.125 27.1275 10.125 30.1875 C10.785 30.1875 11.445 30.1875 12.125 30.1875 C12.17398438 30.84234375 12.22296875 31.4971875 12.2734375 32.171875 C12.85406225 39.2595013 13.86568613 46.19131182 15.125 53.1875 C15.26808594 54.11304688 15.41117188 55.03859375 15.55859375 55.9921875 C16.43286321 61.20685665 17.48166373 64.17983011 21.125 68.1875 C21.125 69.1775 21.125 70.1675 21.125 71.1875 C16.42906859 73.0300104 12.21558276 73.4817219 7.2265625 73.453125 C6.47394135 73.45503845 5.72132019 73.4569519 4.94589233 73.45892334 C3.35406154 73.46027968 1.76221947 73.45662183 0.17041016 73.44824219 C-2.2082769 73.43768517 -4.58618233 73.4480772 -6.96484375 73.4609375 C-18.24367535 73.47091331 -29.93952377 73.2394203 -40.875 70.1875 C-40 64.4375 -40 64.4375 -38.875 62.1875 C-38.80271881 60.61610689 -38.79119647 59.04166037 -38.8125 57.46875 C-38.82023437 56.53675781 -38.82796875 55.60476562 -38.8359375 54.64453125 C-38.84882812 53.66871094 -38.86171875 52.69289062 -38.875 51.6875 C-38.90045611 49.76047219 -38.92150722 47.83337958 -38.9375 45.90625 C-38.94910156 45.04966797 -38.96070313 44.19308594 -38.97265625 43.31054688 C-38.875 41.1875 -38.875 41.1875 -37.875 39.1875 C-36.225 39.5175 -34.575 39.8475 -32.875 40.1875 C-32.09385686 43.60500124 -31.875 46.69311611 -31.875 50.1875 C-31.545 50.5175 -31.215 50.8475 -30.875 51.1875 C-30.875 42.9375 -30.875 34.6875 -30.875 26.1875 C-31.535 26.1875 -32.195 26.1875 -32.875 26.1875 C-33.205 24.8675 -33.535 23.5475 -33.875 22.1875 C-34.535 22.1875 -35.195 22.1875 -35.875 22.1875 C-34.37579488 19.07376628 -32.79347864 16.06521795 -30.875 13.1875 C-30.215 13.1875 -29.555 13.1875 -28.875 13.1875 C-28.875 12.5275 -28.875 11.8675 -28.875 11.1875 C-27.823125 11.06375 -27.823125 11.06375 -26.75 10.9375 C-23.67636001 10.32305942 -23.67636001 10.32305942 -20.875 8 C-19.885 7.401875 -18.895 6.80375 -17.875 6.1875 C-15 6.9375 -15 6.9375 -12.875 8.1875 C-12.648125 7.40375 -12.42125 6.62 -12.1875 5.8125 C-10.875 3.1875 -10.875 3.1875 -8.3125 1.9375 C-7.508125 1.69 -6.70375 1.4425 -5.875 1.1875 C-4.21846314 -0.46903686 -2.26849204 0.01643835 0 0 Z " fill="#6D6C72" transform="translate(47.875,-0.1875)"/>
<path d="M0 0 C1.21236328 0.02707031 1.21236328 0.02707031 2.44921875 0.0546875 C3.37154297 0.08949219 3.37154297 0.08949219 4.3125 0.125 C4.3125 0.785 4.3125 1.445 4.3125 2.125 C3.3225 2.125 2.3325 2.125 1.3125 2.125 C1.32821045 2.81126465 1.3439209 3.4975293 1.36010742 4.20458984 C1.42232719 7.30297663 1.46144898 10.40123224 1.5 13.5 C1.52513672 14.58023438 1.55027344 15.66046875 1.57617188 16.7734375 C1.58583984 17.8046875 1.59550781 18.8359375 1.60546875 19.8984375 C1.6211792 20.85153809 1.63688965 21.80463867 1.65307617 22.78662109 C1.54068604 23.55828613 1.4282959 24.32995117 1.3125 25.125 C0.3225 25.785 -0.6675 26.445 -1.6875 27.125 C-1.3575 28.775 -1.0275 30.425 -0.6875 32.125 C-0.0275 32.125 0.6325 32.125 1.3125 32.125 C1.3125 30.475 1.3125 28.825 1.3125 27.125 C1.9725 27.125 2.6325 27.125 3.3125 27.125 C2.9825 29.765 2.6525 32.405 2.3125 35.125 C3.3025 35.125 4.2925 35.125 5.3125 35.125 C5.3125 33.145 5.3125 31.165 5.3125 29.125 C5.6425 29.125 5.9725 29.125 6.3125 29.125 C6.6425 30.775 6.9725 32.425 7.3125 34.125 C7.9725 34.125 8.6325 34.125 9.3125 34.125 C9.3125 32.145 9.3125 30.165 9.3125 28.125 C9.9725 28.125 10.6325 28.125 11.3125 28.125 C11.33946365 29.91658489 11.35887917 31.70828473 11.375 33.5 C11.38660156 34.49773438 11.39820312 35.49546875 11.41015625 36.5234375 C11.3125 39.125 11.3125 39.125 10.3125 41.125 C10.9725 41.125 11.6325 41.125 12.3125 41.125 C12.6425 37.825 12.9725 34.525 13.3125 31.125 C13.6425 31.125 13.9725 31.125 14.3125 31.125 C14.498125 29.4234375 14.498125 29.4234375 14.6875 27.6875 C14.89375 26.511875 15.1 25.33625 15.3125 24.125 C15.9725 23.795 16.6325 23.465 17.3125 23.125 C16.9825 26.095 16.6525 29.065 16.3125 32.125 C16.9725 32.125 17.6325 32.125 18.3125 32.125 C18.3125 36.745 18.3125 41.365 18.3125 46.125 C20.6225 46.125 22.9325 46.125 25.3125 46.125 C25.9725 45.465 26.6325 44.805 27.3125 44.125 C27.3125 44.785 27.3125 45.445 27.3125 46.125 C29.10873856 45.72850587 30.89948435 45.30706548 32.6875 44.875 C34.18410156 44.52695313 34.18410156 44.52695313 35.7109375 44.171875 C38.447702 43.3626588 38.447702 43.3626588 39.6640625 41.015625 C39.87804687 40.39171875 40.09203125 39.7678125 40.3125 39.125 C44.3125 43.75 44.3125 43.75 44.3125 47.125 C39.61656859 48.9675104 35.40308276 49.4192219 30.4140625 49.390625 C29.66144135 49.39253845 28.90882019 49.3944519 28.13339233 49.39642334 C26.54156154 49.39777968 24.94971947 49.39412183 23.35791016 49.38574219 C20.9792231 49.37518517 18.60131767 49.3855772 16.22265625 49.3984375 C4.94382465 49.40841331 -6.75202377 49.1769203 -17.6875 46.125 C-16.8125 40.375 -16.8125 40.375 -15.6875 38.125 C-15.61521881 36.55360689 -15.60369647 34.97916037 -15.625 33.40625 C-15.63273438 32.47425781 -15.64046875 31.54226562 -15.6484375 30.58203125 C-15.66132813 29.60621094 -15.67421875 28.63039063 -15.6875 27.625 C-15.71295611 25.69797219 -15.73400722 23.77087958 -15.75 21.84375 C-15.76160156 20.98716797 -15.77320313 20.13058594 -15.78515625 19.24804688 C-15.6875 17.125 -15.6875 17.125 -14.6875 15.125 C-13.0375 15.455 -11.3875 15.785 -9.6875 16.125 C-8.90635686 19.54250124 -8.6875 22.63061611 -8.6875 26.125 C-8.3575 26.455 -8.0275 26.785 -7.6875 27.125 C-7.70321045 26.37814941 -7.7189209 25.63129883 -7.73510742 24.86181641 C-7.79731077 21.49128739 -7.8364442 18.12087888 -7.875 14.75 C-7.90013672 13.574375 -7.92527344 12.39875 -7.95117188 11.1875 C-7.96083984 10.06601562 -7.97050781 8.94453125 -7.98046875 7.7890625 C-7.9961792 6.75217285 -8.01188965 5.7152832 -8.02807617 4.64697266 C-7.91568604 3.81472168 -7.8032959 2.9824707 -7.6875 2.125 C-4.48369983 -0.01086678 -3.66810033 -0.10632175 0 0 Z " fill="#6E6D72" transform="translate(24.6875,23.875)"/>
<path d="M0 0 C0.88429687 -0.01417969 1.76859375 -0.02835937 2.6796875 -0.04296875 C5.125 0.1875 5.125 0.1875 8.125 2.1875 C11.26721967 1.87243373 11.26721967 1.87243373 14.125 1.1875 C17.03727269 4.47554981 18.62201212 6.78635603 19.125 11.1875 C18.465 11.1875 17.805 11.1875 17.125 11.1875 C16.795 13.8275 16.465 16.4675 16.125 19.1875 C14.1335944 19.56883299 12.13220923 19.90075582 10.125 20.1875 C9.795 19.8575 9.465 19.5275 9.125 19.1875 C7.97 19.1875 6.815 19.1875 5.625 19.1875 C4.47 19.1875 3.315 19.1875 2.125 19.1875 C1.795 18.8575 1.465 18.5275 1.125 18.1875 C-4.33378647 17.99596363 -9.47303219 18.41579031 -14.875 19.1875 C-14.875 21.1675 -14.875 23.1475 -14.875 25.1875 C-15.75542969 25.17589844 -16.63585937 25.16429688 -17.54296875 25.15234375 C-18.70441406 25.14332031 -19.86585937 25.13429688 -21.0625 25.125 C-22.78533203 25.10759766 -22.78533203 25.10759766 -24.54296875 25.08984375 C-27.46800586 25.17557168 -30.03816291 25.50900977 -32.875 26.1875 C-33.205 24.8675 -33.535 23.5475 -33.875 22.1875 C-34.535 22.1875 -35.195 22.1875 -35.875 22.1875 C-34.37579488 19.07376628 -32.79347864 16.06521795 -30.875 13.1875 C-30.215 13.1875 -29.555 13.1875 -28.875 13.1875 C-28.875 12.5275 -28.875 11.8675 -28.875 11.1875 C-27.823125 11.06375 -27.823125 11.06375 -26.75 10.9375 C-23.67636001 10.32305942 -23.67636001 10.32305942 -20.875 8 C-19.885 7.401875 -18.895 6.80375 -17.875 6.1875 C-15 6.9375 -15 6.9375 -12.875 8.1875 C-12.648125 7.40375 -12.42125 6.62 -12.1875 5.8125 C-10.875 3.1875 -10.875 3.1875 -8.3125 1.9375 C-7.508125 1.69 -6.70375 1.4425 -5.875 1.1875 C-4.21846314 -0.46903686 -2.26849204 0.01643835 0 0 Z " fill="#CFD8D2" transform="translate(47.875,-0.1875)"/>
<path d="M0 0 C0.28875 0.598125 0.5775 1.19625 0.875 1.8125 C2.04742026 4.19327792 2.04742026 4.19327792 4 7 C4.33 7.99 4.66 8.98 5 10 C7.31 10.33 9.62 10.66 12 11 C12 11.33 12 11.66 12 12 C10.43883181 12.33951619 8.87598662 12.67132544 7.3125 13 C6.00732422 13.2784375 6.00732422 13.2784375 4.67578125 13.5625 C2.06287036 13.98972047 -0.35813038 14.07616201 -3 14 C-3 15.98 -3 17.96 -3 20 C-3.88042969 19.98839844 -4.76085937 19.97679688 -5.66796875 19.96484375 C-6.82941406 19.95582031 -7.99085937 19.94679688 -9.1875 19.9375 C-10.91033203 19.92009766 -10.91033203 19.92009766 -12.66796875 19.90234375 C-15.59300586 19.98807168 -18.16316291 20.32150977 -21 21 C-21.33 19.68 -21.66 18.36 -22 17 C-22.66 17 -23.32 17 -24 17 C-22.50079488 13.88626628 -20.91847864 10.87771795 -19 8 C-18.34 8 -17.68 8 -17 8 C-17 7.34 -17 6.68 -17 6 C-16.29875 5.9175 -15.5975 5.835 -14.875 5.75 C-11.80136001 5.13555942 -11.80136001 5.13555942 -9 2.8125 C-8.01 2.214375 -7.02 1.61625 -6 1 C-3.125 1.75 -3.125 1.75 -1 3 C-0.67 2.01 -0.34 1.02 0 0 Z " fill="#D8E6DD" transform="translate(36,5)"/>
<path d="M0 0 C2.97 0.495 2.97 0.495 6 1 C7.24874022 6.94060882 8.1085042 12.74663989 8.4375 18.8125 C8.8038032 24.98538719 9.89904484 30.74876066 11.37890625 36.74609375 C12.04455889 40.23344376 12.10298877 43.45808191 12 47 C8.98968256 47.93423645 8.13349732 48.04449911 5 47 C4.20043945 44.9621582 4.20043945 44.9621582 3.61328125 42.30078125 C3.39736328 41.33849609 3.18144531 40.37621094 2.95898438 39.38476562 C2.74564453 38.37091797 2.53230469 37.35707031 2.3125 36.3125 C2.08755859 35.31798828 1.86261719 34.32347656 1.63085938 33.29882812 C-0.42948303 23.88638242 -0.42948303 23.88638242 0 19 C0.33 18.67 0.66 18.34 1 18 C0.75910353 16.41696606 0.51517036 14.83434749 0.2578125 13.25390625 C-0.24534257 8.85511113 -0.07194839 4.42082915 0 0 Z " fill="#CAD5CA" transform="translate(50,20)"/>
<path d="M0 0 C0 8.58 0 17.16 0 26 C-1.32 26.33 -2.64 26.66 -4 27 C-4 27.66 -4 28.32 -4 29 C-5.98 29 -7.96 29 -10 29 C-10 19.76 -10 10.52 -10 1 C-5 0 -5 0 0 0 Z " fill="#4C5155" transform="translate(43,18)"/>
<path d="M0 0 C1.65 0.33 3.3 0.66 5 1 C5.78148557 4.41899937 6 7.50455941 6 11 C6.33 11.66 6.66 12.32 7 13 C6.67 13.66 6.34 14.32 6 15 C5.01 15 4.02 15 3 15 C3 12.69 3 10.38 3 8 C1.98426711 11.04719867 1.9902876 11.98833004 2.55859375 15.01171875 C2.69716797 15.76904297 2.83574219 16.52636719 2.97851562 17.30664062 C3.12998047 18.09232422 3.28144531 18.87800781 3.4375 19.6875 C3.58509766 20.48478516 3.73269531 21.28207031 3.88476562 22.10351562 C4.24984964 24.07025852 4.62405289 26.03530467 5 28 C3.35 28 1.7 28 0 28 C9.9 28.99 19.8 29.98 30 31 C30 31.99 30 32.98 30 34 C19.10693989 34.335745 7.57204541 33.98599756 -3 31 C-2.125 25.25 -2.125 25.25 -1 23 C-0.92771881 21.42860689 -0.91619647 19.85416037 -0.9375 18.28125 C-0.94523438 17.34925781 -0.95296875 16.41726562 -0.9609375 15.45703125 C-0.97382813 14.48121094 -0.98671875 13.50539063 -1 12.5 C-1.02545611 10.57297219 -1.04650722 8.64587958 -1.0625 6.71875 C-1.07410156 5.86216797 -1.08570313 5.00558594 -1.09765625 4.12304688 C-1 2 -1 2 0 0 Z " fill="#344043" transform="translate(10,39)"/>
<path d="M0 0 C1.21236328 0.02707031 1.21236328 0.02707031 2.44921875 0.0546875 C3.37154297 0.08949219 3.37154297 0.08949219 4.3125 0.125 C4.3125 0.785 4.3125 1.445 4.3125 2.125 C3.3225 2.125 2.3325 2.125 1.3125 2.125 C1.3125 9.715 1.3125 17.305 1.3125 25.125 C-3.6875 27.125 -3.6875 27.125 -7.6875 27.125 C-7.77426908 23.00013162 -7.82781295 18.87549616 -7.875 14.75 C-7.90013672 13.574375 -7.92527344 12.39875 -7.95117188 11.1875 C-7.96083984 10.06601562 -7.97050781 8.94453125 -7.98046875 7.7890625 C-7.9961792 6.75217285 -8.01188965 5.7152832 -8.02807617 4.64697266 C-7.91568604 3.81472168 -7.8032959 2.9824707 -7.6875 2.125 C-4.48369983 -0.01086678 -3.66810033 -0.10632175 0 0 Z " fill="#55595C" transform="translate(24.6875,23.875)"/>
<path d="M0 0 C0.66 0 1.32 0 2 0 C2.66 6.27 3.32 12.54 4 19 C3.67 19 3.34 19 3 19 C3.42443164 26.30315137 4.59657424 33.15478358 6.37890625 40.25 C7 43 7 43 7 46 C9.31 46 11.62 46 14 46 C13.87882812 45.41621582 13.75765625 44.83243164 13.6328125 44.23095703 C13.07841606 41.53093977 12.53916256 38.8280988 12 36.125 C11.80921875 35.2071875 11.6184375 34.289375 11.421875 33.34375 C10.20065478 27.1504189 9.75310147 21.30791462 10 15 C10.66 15 11.32 15 12 15 C12.67810378 18.66464598 13.34115661 22.33184492 14 26 C14.19078125 27.0415625 14.3815625 28.083125 14.578125 29.15625 C15.52995608 34.5408944 16.11867961 39.54073788 16 45 C16.33 45.66 16.66 46.32 17 47 C12.71 47.66 8.42 48.32 4 49 C-0.39943054 32.93251454 -0.20813085 16.55796516 0 0 Z " fill="#C1C8BD" transform="translate(48,21)"/>
<path d="M0 0 C0.99 0 1.98 0 3 0 C3 7.26 3 14.52 3 22 C4.9254644 23.1490712 4.9254644 23.1490712 7 23 C7.99 23.66 8.98 24.32 10 25 C10 24.34 10 23.68 10 23 C10.99 22.67 11.98 22.34 13 22 C14.4783226 24.95664519 14.06032783 27.74229737 14 31 C13.67 31 13.34 31 13 31 C12.34 33.64 11.68 36.28 11 39 C10.34 39 9.68 39 9 39 C9.33 34.71 9.66 30.42 10 26 C9.34 26 8.68 26 8 26 C8 27.98 8 29.96 8 32 C4.535 32.495 4.535 32.495 1 33 C0.875 27.25 0.875 27.25 2 25 C1.34 25 0.68 25 0 25 C0 26.65 0 28.3 0 30 C-0.66 30 -1.32 30 -2 30 C-2.66 28.02 -3.32 26.04 -4 24 C-2.68 23.67 -1.36 23.34 0 23 C0 15.41 0 7.82 0 0 Z " fill="#6F6F73" transform="translate(26,26)"/>
<path d="M0 0 C0.5534764 2.07553648 1 3.84365964 1 6 C3.31 6.33 5.62 6.66 8 7 C8.33 7.99 8.66 8.98 9 10 C9.99 10 10.98 10 12 10 C12 10.66 12 11.32 12 12 C11.401875 12.144375 10.80375 12.28875 10.1875 12.4375 C8.43849596 12.8872439 6.71322977 13.42892341 5 14 C2.58984375 13.80078125 2.58984375 13.80078125 -0.0625 13.3125 C-0.94035156 13.16425781 -1.81820312 13.01601563 -2.72265625 12.86328125 C-5 12 -5 12 -6.18359375 10.10546875 C-6.45300781 9.41066406 -6.72242188 8.71585938 -7 8 C-7.66 7.01 -8.32 6.02 -9 5 C-9 3.68 -9 2.36 -9 1 C-6.04335481 -0.4783226 -3.25770263 -0.06032783 0 0 Z " fill="#D9E6DD" transform="translate(46,4)"/>
<path d="M0 0 C1.53445094 3.06890187 0.54984289 5.70094266 0 9 C0.66 9 1.32 9 2 9 C1.67 10.65 1.34 12.3 1 14 C0.01 13.67 -0.98 13.34 -2 13 C-2 15.31 -2 17.62 -2 20 C-1.34 20.33 -0.68 20.66 0 21 C-4.3676624 21.88408876 -8.1902272 22.00927774 -12.625 21.625 C-13.73101562 21.53476563 -14.83703125 21.44453125 -15.9765625 21.3515625 C-18.41824557 21.06764586 -20.64462415 20.67788866 -23 20 C-23 18.35 -23 16.7 -23 15 C-22.01 14.67 -21.02 14.34 -20 14 C-19.34 13.01 -18.68 12.02 -18 11 C-18 12.65 -18 14.3 -18 16 C-17.01 15.67 -16.02 15.34 -15 15 C-15 15.99 -15 16.98 -15 18 C-12.36 18 -9.72 18 -7 18 C-6.67 17.34 -6.34 16.68 -6 16 C-6 16.66 -6 17.32 -6 18 C-5.34 18 -4.68 18 -4 18 C-3.67 14.7 -3.34 11.4 -3 8 C-2.67 8 -2.34 8 -2 8 C-1.855625 6.865625 -1.71125 5.73125 -1.5625 4.5625 C-1 1 -1 1 0 0 Z " fill="#444A4E" transform="translate(41,47)"/>
<path d="M0 0 C0 0.66 0 1.32 0 2 C-1.98 2.33 -3.96 2.66 -6 3 C-5.67 3.66 -5.34 4.32 -5 5 C-1.10540926 5.21081851 -1.10540926 5.21081851 2 4 C2 5.32 2 6.64 2 8 C1.34 8 0.68 8 0 8 C0 8.66 0 9.32 0 10 C-0.66 10 -1.32 10 -2 10 C-2 10.66 -2 11.32 -2 12 C-0.68 11.34 0.64 10.68 2 10 C1.6875 11.9375 1.6875 11.9375 1 14 C0.01 14.33 -0.98 14.66 -2 15 C-2 17.31 -2 19.62 -2 22 C-1.34 22.33 -0.68 22.66 0 23 C-1.65 23 -3.3 23 -5 23 C-5.33 24.98 -5.66 26.96 -6 29 C-6.33 29 -6.66 29 -7 29 C-7 19.76 -7 10.52 -7 1 C-2 0 -2 0 0 0 Z " fill="#55595B" transform="translate(40,18)"/>
<path d="M0 0 C0.33 0.66 0.66 1.32 1 2 C1.99 2 2.98 2 4 2 C4 2.66 4 3.32 4 4 C2.02 4.33 0.04 4.66 -2 5 C-2 5.66 -2 6.32 -2 7 C-2.66 7 -3.32 7 -4 7 C-3.505 7.78375 -3.01 8.5675 -2.5 9.375 C-1 12 -1 12 -1 14 C-0.34 14.33 0.32 14.66 1 15 C-2.63 15.66 -6.26 16.32 -10 17 C-10.33 15.68 -10.66 14.36 -11 13 C-11.66 13 -12.32 13 -13 13 C-11.50079488 9.88626628 -9.91847864 6.87771795 -8 4 C-7.34 4 -6.68 4 -6 4 C-6 3.34 -6 2.68 -6 2 C-4.7934375 1.7834375 -4.7934375 1.7834375 -3.5625 1.5625 C-1.07896294 1.25864751 -1.07896294 1.25864751 0 0 Z " fill="#CBD9D1" transform="translate(25,9)"/>
<path d="M0 0 C1.32 0.33 2.64 0.66 4 1 C4 8.26 4 15.52 4 23 C6.97 22.67 9.94 22.34 13 22 C12.01 23.32 11.02 24.64 10 26 C9.01 25.67 8.02 25.34 7 25 C7 25.66 7 26.32 7 27 C6.401875 26.835 5.80375 26.67 5.1875 26.5 C2.88655664 25.8885876 2.88655664 25.8885876 0 26 C0 17.33333333 0 8.66666667 0 0 Z " fill="#A4A59E" transform="translate(29,24)"/>
<path d="M0 0 C2.475 0.495 2.475 0.495 5 1 C5.125 4.375 5.125 4.375 5 8 C4.34 8.66 3.68 9.32 3 10 C3.3185177 12.10820797 3.3185177 12.10820797 4 14 C4.66 14 5.32 14 6 14 C6.38922918 15.28745036 6.76098036 16.58019597 7.125 17.875 C7.33382812 18.59429687 7.54265625 19.31359375 7.7578125 20.0546875 C7.83773437 20.69664063 7.91765625 21.33859375 8 22 C7.34 22.66 6.68 23.32 6 24 C6 23.34 6 22.68 6 22 C4.02 22 2.04 22 0 22 C0 14.74 0 7.48 0 0 Z " fill="#B0B2A8" transform="translate(43,48)"/>
<path d="M0 0 C2.475 0.99 2.475 0.99 5 2 C5.36457653 5.43647963 5.71486408 8.87426865 6.0625 12.3125 C6.16626953 13.28896484 6.27003906 14.26542969 6.37695312 15.27148438 C6.47041016 16.20927734 6.56386719 17.14707031 6.66015625 18.11328125 C6.74918213 18.97735596 6.83820801 19.84143066 6.92993164 20.73168945 C7 23 7 23 6 26 C5.01 26 4.02 26 3 26 C1.01281019 17.2350735 -0.50803456 9.05054166 0 0 Z " fill="#D4E0D7" transform="translate(50,20)"/>
<path d="M0 0 C0.33 0.99 0.66 1.98 1 3 C16.345 4.485 16.345 4.485 32 6 C32 6.99 32 7.98 32 9 C21.10693989 9.335745 9.57204541 8.98599756 -1 6 C-0.67 4.02 -0.34 2.04 0 0 Z " fill="#374143" transform="translate(8,64)"/>
<path d="M0 0 C2.5 2.3125 2.5 2.3125 5 5 C5 5.99 5 6.98 5 8 C-0.87094438 10.57996518 -6.59609985 10.22552426 -12.875 10.125 C-13.94492187 10.11597656 -15.01484375 10.10695313 -16.1171875 10.09765625 C-18.74502439 10.07419342 -21.37239406 10.04136459 -24 10 C-23.01 9.67 -22.02 9.34 -21 9 C-21 8.34 -21 7.68 -21 7 C-19.329375 7.061875 -19.329375 7.061875 -17.625 7.125 C-13.95633975 7.41121859 -13.95633975 7.41121859 -12 5 C-12 5.66 -12 6.32 -12 7 C-8.37 6.01 -4.74 5.02 -1 4 C-0.67 2.68 -0.34 1.36 0 0 Z " fill="#3A4448" transform="translate(64,63)"/>
<path d="M0 0 C0.28875 0.598125 0.5775 1.19625 0.875 1.8125 C2.04742026 4.19327792 2.04742026 4.19327792 4 7 C4.33 7.99 4.66 8.98 5 10 C7.31 10.33 9.62 10.66 12 11 C12 11.33 12 11.66 12 12 C6.61972975 13.19088986 1.54708616 14.2919519 -4 14 C-4.95024979 10.30458414 -4.95024979 7.69541586 -4 4 C-5.98 4 -7.96 4 -10 4 C-8.3125 2.375 -8.3125 2.375 -6 1 C-3.25 1.8125 -3.25 1.8125 -1 3 C-0.67 2.01 -0.34 1.02 0 0 Z " fill="#C9D6CD" transform="translate(36,5)"/>
<path d="M0 0 C0.99 0 1.98 0 3 0 C3 2.31 3 4.62 3 7 C10.26 7.33 17.52 7.66 25 8 C25 5.36 25 2.72 25 0 C26.32 0 27.64 0 29 0 C29 3.96 29 7.92 29 12 C28.01 12 27.02 12 26 12 C26 11.34 26 10.68 26 10 C24.69546875 9.93941406 23.3909375 9.87882812 22.046875 9.81640625 C12.6801898 9.37101374 3.33662921 8.89191377 -6 8 C-5.34 7.67 -4.68 7.34 -4 7 C-3.67 6.34 -3.34 5.68 -3 5 C-3 5.66 -3 6.32 -3 7 C-2.01 6.67 -1.02 6.34 0 6 C0 4.02 0 2.04 0 0 Z " fill="#78797B" transform="translate(14,60)"/>
<path d="M0 0 C0.66 0 1.32 0 2 0 C2.18175781 1.24716797 2.18175781 1.24716797 2.3671875 2.51953125 C2.53476562 3.60621094 2.70234375 4.69289063 2.875 5.8125 C3.03742187 6.89144531 3.19984375 7.97039063 3.3671875 9.08203125 C3.85132338 12.17321793 3.85132338 12.17321793 6 15 C5.625 17.6875 5.625 17.6875 5 20 C3.35 19.67 1.7 19.34 0 19 C-1.81027352 13.68232152 -2.74192611 8.62990987 -2 3 C-1.34 2.01 -0.68 1.02 0 0 Z " fill="#E3EFE6" transform="translate(55,48)"/>
<path d="M0 0 C0.66 0 1.32 0 2 0 C1.67 2.64 1.34 5.28 1 8 C1.99 8 2.98 8 4 8 C4 6.02 4 4.04 4 2 C4.33 2 4.66 2 5 2 C5.33 3.65 5.66 5.3 6 7 C6.66 7 7.32 7 8 7 C8 5.02 8 3.04 8 1 C8.66 1 9.32 1 10 1 C10 4.63 10 8.26 10 12 C9.34 12 8.68 12 8 12 C8 12.66 8 13.32 8 14 C5.36 14 2.72 14 0 14 C-1.33257403 4.58997722 -1.33257403 4.58997722 0 0 Z " fill="#56595E" transform="translate(26,51)"/>
<path d="M0 0 C0.99 0 1.98 0 3 0 C3 7.59 3 15.18 3 23 C2.34 23 1.68 23 1 23 C0.67 25.31 0.34 27.62 0 30 C-0.66 30 -1.32 30 -2 30 C-2.66 28.02 -3.32 26.04 -4 24 C-2.68 23.67 -1.36 23.34 0 23 C0 15.41 0 7.82 0 0 Z " fill="#76777A" transform="translate(26,26)"/>
<path d="M0 0 C2 0 2 0 3.625 1.5 C4.07875 1.995 4.5325 2.49 5 3 C5.61875 2.649375 6.2375 2.29875 6.875 1.9375 C7.57625 1.628125 8.2775 1.31875 9 1 C9.66 1.33 10.32 1.66 11 2 C10.67 4.64 10.34 7.28 10 10 C8.0085944 10.38133299 6.00720923 10.71325582 4 11 C3.67 10.67 3.34 10.34 3 10 C0.66702567 9.95907063 -1.66705225 9.95758277 -4 10 C-4.33 9.34 -4.66 8.68 -5 8 C-4.21625 7.855625 -3.4325 7.71125 -2.625 7.5625 C-0.03578982 7.12201075 -0.03578982 7.12201075 2 6 C2.66 6.33 3.32 6.66 4 7 C4 6.34 4 5.68 4 5 C3.01 5 2.02 5 1 5 C0.34 3.68 -0.32 2.36 -1 1 C-0.67 0.67 -0.34 0.34 0 0 Z " fill="#BFCAC2" transform="translate(54,9)"/>
<path d="M0 0 C0.66 0 1.32 0 2 0 C3.78270374 8.95144855 4.93170365 17.94221076 6 27 C5.67 26.01 5.34 25.02 5 24 C4.34 24 3.68 24 3 24 C1.04170706 15.91038514 -0.51917486 8.34525522 0 0 Z " fill="#757477" transform="translate(58,36)"/>
<path d="M0 0 C0.33 0 0.66 0 1 0 C1.02505615 0.55461914 1.0501123 1.10923828 1.07592773 1.68066406 C1.19227927 4.20398843 1.31482754 6.72697536 1.4375 9.25 C1.47681641 10.12269531 1.51613281 10.99539062 1.55664062 11.89453125 C1.59853516 12.73886719 1.64042969 13.58320312 1.68359375 14.453125 C1.72025146 15.22817383 1.75690918 16.00322266 1.79467773 16.80175781 C1.94295669 18.99391896 1.94295669 18.99391896 2.51586914 21.04980469 C3.25413364 24.02371132 3.05860544 26.95251723 3 30 C1 27 1 27 1 24 C0.34 24 -0.32 24 -1 24 C-1.66 22.35 -2.32 20.7 -3 19 C-2.01 18.67 -1.02 18.34 0 18 C-0.33 15.69 -0.66 13.38 -1 11 C-2.32 10.67 -3.64 10.34 -5 10 C-5 9.01 -5 8.02 -5 7 C-3.68 7 -2.36 7 -1 7 C-0.67 4.69 -0.34 2.38 0 0 Z " fill="#8A8989" transform="translate(48,38)"/>
<path d="M0 0 C-0.66 1.32 -1.32 2.64 -2 4 C-2.66 4 -3.32 4 -4 4 C-4 4.66 -4 5.32 -4 6 C-3.01 5.67 -2.02 5.34 -1 5 C-0.0607753 8.65254051 0.2652614 11.39887139 -1 15 C-2.98 15.99 -2.98 15.99 -5 17 C-5 11.72 -5 6.44 -5 1 C-2 0 -2 0 0 0 Z " fill="#6D6D72" transform="translate(24,27)"/>
<path d="M0 0 C4.95 0.99 4.95 0.99 10 2 C10.33 2.99 10.66 3.98 11 5 C11.99 5 12.98 5 14 5 C14 5.66 14 6.32 14 7 C13.401875 7.144375 12.80375 7.28875 12.1875 7.4375 C10.43849596 7.8872439 8.71322977 8.42892341 7 9 C4.3125 7.25 4.3125 7.25 2 5 C2 4.01 2 3.02 2 2 C1.34 2 0.68 2 0 2 C0 1.34 0 0.68 0 0 Z " fill="#EDF8F1" transform="translate(44,9)"/>
<path d="M0 0 C1.98 0 3.96 0 6 0 C6 3.63 6 7.26 6 11 C2.59687262 9.94124926 -0.01353231 8.99097846 -3 7 C-3 6.34 -3 5.68 -3 5 C-1.02 4.67 0.96 4.34 3 4 C3 3.34 3 2.68 3 2 C2.01 2 1.02 2 0 2 C0 1.34 0 0.68 0 0 Z " fill="#EAF5EE" transform="translate(26,9)"/>
<path d="M0 0 C2.31 0 4.62 0 7 0 C6.67 1.65 6.34 3.3 6 5 C5.01 4.67 4.02 4.34 3 4 C3 5.65 3 7.3 3 9 C3.66 9 4.32 9 5 9 C5 9.66 5 10.32 5 11 C4.34 11 3.68 11 3 11 C3 12.65 3 14.3 3 16 C3.66 16 4.32 16 5 16 C5 16.66 5 17.32 5 18 C4.34 18 3.68 18 3 18 C3 19.65 3 21.3 3 23 C3.66 23.33 4.32 23.66 5 24 C4.01 24.33 3.02 24.66 2 25 C2 24.01 2 23.02 2 22 C1.34 21.67 0.68 21.34 0 21 C0.66 21 1.32 21 2 21 C2 14.4 2 7.8 2 1 C1.34 0.67 0.68 0.34 0 0 Z " fill="#616267" transform="translate(41,17)"/>
<path d="M0 0 C0.66 0 1.32 0 2 0 C2 8 2 8 1 10 C1.66 10 2.32 10 3 10 C3 10.66 3 11.32 3 12 C1.35 12.33 -0.3 12.66 -2 13 C-2.33 11.68 -2.66 10.36 -3 9 C-3.66 9 -4.32 9 -5 9 C-3.50079488 5.88626628 -1.91847864 2.87771795 0 0 Z " fill="#9BA8A5" transform="translate(17,13)"/>
<path d="M0 0 C1.98 1.65 3.96 3.3 6 5 C6 4.34 6 3.68 6 3 C9.3 3.66 12.6 4.32 16 5 C16 5.33 16 5.66 16 6 C10.61972975 7.19088986 5.54708616 8.2919519 0 8 C-0.79953138 4.71303767 -1.09658936 3.28976808 0 0 Z " fill="#9FABAA" transform="translate(32,11)"/>
<path d="M0 0 C0.99 0.495 0.99 0.495 2 1 C2.99 0.67 3.98 0.34 5 0 C5 1.32 5 2.64 5 4 C4.34 4 3.68 4 3 4 C3 4.66 3 5.32 3 6 C2.34 6 1.68 6 1 6 C1 6.66 1 7.32 1 8 C2.32 7.34 3.64 6.68 5 6 C4.6875 7.9375 4.6875 7.9375 4 10 C3.01 10.33 2.02 10.66 1 11 C1 13.31 1 15.62 1 18 C1.66 18.33 2.32 18.66 3 19 C2.01 19 1.02 19 0 19 C0 12.73 0 6.46 0 0 Z " fill="#6D6D72" transform="translate(37,22)"/>
<path d="M0 0 C2 2 2 2 2.125 5.625 C2.08375 6.73875 2.0425 7.8525 2 9 C1.67 9 1.34 9 1 9 C0.34 11.64 -0.32 14.28 -1 17 C-1.66 17 -2.32 17 -3 17 C-2.88660796 14.35319096 -2.75987127 11.70822482 -2.625 9.0625 C-2.5940625 8.30775391 -2.563125 7.55300781 -2.53125 6.77539062 C-2.4273685 4.84492605 -2.22104386 2.92057919 -2 1 C-1.34 0.67 -0.68 0.34 0 0 Z " fill="#7E7E7F" transform="translate(38,48)"/>
<path d="M0 0 C1.2065625 0.0309375 1.2065625 0.0309375 2.4375 0.0625 C2.4375 1.3825 2.4375 2.7025 2.4375 4.0625 C3.86371684 6.77376384 3.86371684 6.77376384 5.4375 9.0625 C4.1175 9.3925 2.7975 9.7225 1.4375 10.0625 C1.4375 9.4025 1.4375 8.7425 1.4375 8.0625 C0.7775 7.7325 0.1175 7.4025 -0.5625 7.0625 C-0.2325 6.4025 0.0975 5.7425 0.4375 5.0625 C-2.5325 5.0625 -5.5025 5.0625 -8.5625 5.0625 C-8.5625 4.4025 -8.5625 3.7425 -8.5625 3.0625 C-7.758125 2.753125 -6.95375 2.44375 -6.125 2.125 C-1.0625 0.02591463 -1.0625 0.02591463 0 0 Z " fill="#CDDAD1" transform="translate(45.5625,-0.0625)"/>
<path d="M0 0 C1.5 1.3125 1.5 1.3125 3 3 C3 3.99 3 4.98 3 6 C1.35 6 -0.3 6 -2 6 C-2 6.66 -2 7.32 -2 8 C-3.62487471 8.16788373 -5.24990442 8.33426787 -6.875 8.5 C-7.77992187 8.5928125 -8.68484375 8.685625 -9.6171875 8.78125 C-12 9 -12 9 -14 9 C-13.34 7.68 -12.68 6.36 -12 5 C-12 5.66 -12 6.32 -12 7 C-8.37 6.01 -4.74 5.02 -1 4 C-0.67 2.68 -0.34 1.36 0 0 Z " fill="#7D7C7E" transform="translate(64,63)"/>
<path d="M0 0 C1.65 0 3.3 0 5 0 C6.81344335 8.07953776 7.23658921 15.73252149 7 24 C6.67 24 6.34 24 6 24 C4.04596958 16.27111181 3.77571718 8.94957992 4 1 C2.68 0.67 1.36 0.34 0 0 Z " fill="#B8BCB2" transform="translate(51,21)"/>
<path d="M0 0 C0.66 0.33 1.32 0.66 2 1 C1.67 3.31 1.34 5.62 1 8 C1.99 8 2.98 8 4 8 C4 7.34 4 6.68 4 6 C4.66 6 5.32 6 6 6 C5.67 8.31 5.34 10.62 5 13 C3.68 13 2.36 13 1 13 C0.63779734 11.20994059 0.28547531 9.41787943 -0.0625 7.625 C-0.25972656 6.62726562 -0.45695313 5.62953125 -0.66015625 4.6015625 C-1 2 -1 2 0 0 Z " fill="#747477" transform="translate(12,46)"/>
<path d="M0 0 C0.33 0.66 0.66 1.32 1 2 C1.99 2.33 2.98 2.66 4 3 C3.01 3 2.02 3 1 3 C1 5.97 1 8.94 1 12 C1.66 12 2.32 12 3 12 C3 13.65 3 15.3 3 17 C2.34 17 1.68 17 1 17 C-1.10428384 11.87080814 -1.21755666 7.4389165 -1 2 C-1.99 1.67 -2.98 1.34 -4 1 C-2.68 0.67 -1.36 0.34 0 0 Z " fill="#5E5F64" transform="translate(57,18)"/>
<path d="M0 0 C0.33 0.99 0.66 1.98 1 3 C1.99 3 2.98 3 4 3 C4 5.31 4 7.62 4 10 C2.68 9.34 1.36 8.68 0 8 C0 9.65 0 11.3 0 13 C-0.33 13 -0.66 13 -1 13 C-1 10.69 -1 8.38 -1 6 C-1.99 5.67 -2.98 5.34 -4 5 C-3.01 5 -2.02 5 -1 5 C-0.67 3.35 -0.34 1.7 0 0 Z " fill="#5F6265" transform="translate(18,54)"/>
<path d="M0 0 C1.32 0.33 2.64 0.66 4 1 C4.22786458 3.01822917 4.45572917 5.03645833 4.68359375 7.0546875 C4.91292961 9.07404316 4.91292961 9.07404316 6 11 C5.67 11.66 5.34 12.32 5 13 C4.01 13 3.02 13 2 13 C2.04125 11.88625 2.0825 10.7725 2.125 9.625 C2.41121859 5.95633975 2.41121859 5.95633975 0 4 C0 2.68 0 1.36 0 0 Z " fill="#4E5558" transform="translate(11,41)"/>
<path d="M0 0 C0.99 0.495 0.99 0.495 2 1 C1.67 8.26 1.34 15.52 1 23 C2.65 22.34 4.3 21.68 6 21 C5.67 22.32 5.34 23.64 5 25 C3.35 25 1.7 25 0 25 C0 16.75 0 8.5 0 0 Z " fill="#3A4346" transform="translate(17,26)"/>
<path d="M0 0 C1.98 0 3.96 0 6 0 C6 0.66 6 1.32 6 2 C6.763125 1.79375 7.52625 1.5875 8.3125 1.375 C11 1 11 1 14 3 C8.39 3 2.78 3 -3 3 C-2.01 2.67 -1.02 2.34 0 2 C0 1.34 0 0.68 0 0 Z " fill="#4B5154" transform="translate(43,70)"/>
<path d="M0 0 C2.64 0.99 5.28 1.98 8 3 C4 4 4 4 0 4 C0 9.28 0 14.56 0 20 C-0.33 20 -0.66 20 -1 20 C-1.02696009 17.2291017 -1.04681952 14.4584655 -1.0625 11.6875 C-1.07087891 10.90181641 -1.07925781 10.11613281 -1.08789062 9.30664062 C-1.09111328 8.54931641 -1.09433594 7.79199219 -1.09765625 7.01171875 C-1.10289307 6.31522217 -1.10812988 5.61872559 -1.11352539 4.90112305 C-1 3 -1 3 0 0 Z " fill="#868686" transform="translate(48,17)"/>
<path d="M0 0 C1.32 0 2.64 0 4 0 C4 2.97 4 5.94 4 9 C2.68 8.34 1.36 7.68 0 7 C0 4.69 0 2.38 0 0 Z " fill="#6B6B70" transform="translate(39,60)"/>
<path d="M0 0 C1.98 0 3.96 0 6 0 C6 1.65 6 3.3 6 5 C4.02 5 2.04 5 0 5 C0 3.35 0 1.7 0 0 Z " fill="#6D6D72" transform="translate(27,60)"/>
<path d="M0 0 C-1.485 1.485 -1.485 1.485 -3 3 C-3.99 2.67 -4.98 2.34 -6 2 C-6 2.66 -6 3.32 -6 4 C-6.598125 3.835 -7.19625 3.67 -7.8125 3.5 C-10.11344336 2.8885876 -10.11344336 2.8885876 -13 3 C-10.85642985 0.85642985 -9.92072889 0.52040399 -7.0625 -0.1875 C-6.37285156 -0.36667969 -5.68320312 -0.54585937 -4.97265625 -0.73046875 C-3 -1 -3 -1 0 0 Z " fill="#B1B3A8" transform="translate(42,47)"/>
<path d="M0 0 C0.99 0.33 1.98 0.66 3 1 C2.1875 2.9375 2.1875 2.9375 1 5 C0.01 5.33 -0.98 5.66 -2 6 C-2 5.34 -2 4.68 -2 4 C-3.32 4.99 -4.64 5.98 -6 7 C-6 5.68 -6 4.36 -6 3 C-4.02 2.67 -2.04 2.34 0 2 C0 1.34 0 0.68 0 0 Z " fill="#364043" transform="translate(40,18)"/>
<path d="M0 0 C0.66 0 1.32 0 2 0 C2.33 2.64 2.66 5.28 3 8 C1.02 8 -0.96 8 -3 8 C-3 7.01 -3 6.02 -3 5 C-2.34 5 -1.68 5 -1 5 C-0.67 3.35 -0.34 1.7 0 0 Z " fill="#434A4D" transform="translate(12,59)"/>
<path d="M0 0 C0.33 0.66 0.66 1.32 1 2 C1.99 2 2.98 2 4 2 C4 2.66 4 3.32 4 4 C0.33694766 4.74926071 -2.42355152 5.2380014 -6 4 C-6 3.34 -6 2.68 -6 2 C-4.7934375 1.7834375 -4.7934375 1.7834375 -3.5625 1.5625 C-1.07896294 1.25864751 -1.07896294 1.25864751 0 0 Z " fill="#A7B0AA" transform="translate(25,9)"/>
<path d="M0 0 C-0.66 0 -1.32 0 -2 0 C-2.33 2.31 -2.66 4.62 -3 7 C-3.66 7 -4.32 7 -5 7 C-5.66 5.02 -6.32 3.04 -7 1 C-3.375 -1.125 -3.375 -1.125 0 0 Z " fill="#A6A9A1" transform="translate(29,49)"/>
<path d="M0 0 C0.66 0 1.32 0 2 0 C2.66 1.98 3.32 3.96 4 6 C2.35 6.33 0.7 6.66 -1 7 C-0.67 4.69 -0.34 2.38 0 0 Z " fill="#CDD8CE" transform="translate(44,63)"/>
<path d="M0 0 C0.99 0 1.98 0 3 0 C4.125 3.75 4.125 3.75 3 6 C-0.875 4.25 -0.875 4.25 -2 2 C-1.34 2 -0.68 2 0 2 C0 1.34 0 0.68 0 0 Z " fill="#F2FEF7" transform="translate(48,0)"/>
<path d="M0 0 C2.56687367 3.8503105 1.83288724 5.58569763 1 10 C0.01 10.33 -0.98 10.66 -2 11 C-1.125 3.375 -1.125 3.375 0 0 Z " fill="#D4E0D6" transform="translate(56,53)"/>
<path d="M0 0 C1.65 0 3.3 0 5 0 C4.67 1.98 4.34 3.96 4 6 C3.01 6 2.02 6 1 6 C0.67 4.02 0.34 2.04 0 0 Z " fill="#E0ECE4" transform="translate(52,40)"/>
<path d="M0 0 C1.65 0.33 3.3 0.66 5 1 C3.68 1.33 2.36 1.66 1 2 C1.33 3.65 1.66 5.3 2 7 C0.35 6.67 -1.3 6.34 -3 6 C-2.34 5.34 -1.68 4.68 -1 4 C-1.33 3.34 -1.66 2.68 -2 2 C-1.34 2 -0.68 2 0 2 C0 1.34 0 0.68 0 0 Z " fill="#CFDCD5" transform="translate(51,4)"/>
<path d="M0 0 C0.33 0.66 0.66 1.32 1 2 C4.3 2 7.6 2 11 2 C11 2.33 11 2.66 11 3 C9.37512529 3.16788373 7.75009558 3.33426787 6.125 3.5 C4.76761719 3.63921875 4.76761719 3.63921875 3.3828125 3.78125 C1 4 1 4 -1 4 C-0.67 2.68 -0.34 1.36 0 0 Z " fill="#707072" transform="translate(51,68)"/>
<path d="M0 0 C0.33 0 0.66 0 1 0 C1 1.65 1 3.3 1 5 C1.66 5.33 2.32 5.66 3 6 C1.02 6.33 -0.96 6.66 -3 7 C-2.01 4.69 -1.02 2.38 0 0 Z " fill="#505458" transform="translate(38,62)"/>
<path d="M0 0 C2 3 2 3 2 6 C0.68 6 -0.64 6 -2 6 C-2 4.35 -2 2.7 -2 1 C-1.34 0.67 -0.68 0.34 0 0 Z " fill="#515558" transform="translate(20,61)"/>
<path d="M0 0 C0.99 0.495 0.99 0.495 2 1 C2.73075648 3.3140622 3.40138258 5.64828869 4 8 C3.01 8 2.02 8 1 8 C-0.35439668 5.29120665 -0.06501451 2.99066732 0 0 Z " fill="#CBD7CE" transform="translate(50,39)"/>
<path d="M0 0 C0.66 0.66 1.32 1.32 2 2 C1.625 4.625 1.625 4.625 1 7 C0.01 6.67 -0.98 6.34 -2 6 C-2 5.01 -2 4.02 -2 3 C-1.34 3 -0.68 3 0 3 C0 2.01 0 1.02 0 0 Z " fill="#D5E2D9" transform="translate(59,61)"/>
<path d="M0 0 C2.75 0.8125 2.75 0.8125 5 2 C5 2.66 5 3.32 5 4 C2.03 3.67 -0.94 3.34 -4 3 C-2.3125 1.375 -2.3125 1.375 0 0 Z " fill="#969A94" transform="translate(30,6)"/>
<path d="M0 0 C1.98 0.66 3.96 1.32 6 2 C5.67 2.99 5.34 3.98 5 5 C3.68 4.67 2.36 4.34 1 4 C0.67 2.68 0.34 1.36 0 0 Z " fill="#9FA59B" transform="translate(51,0)"/>
<path d="M0 0 C0.66 0 1.32 0 2 0 C1.67 1.32 1.34 2.64 1 4 C-1.31 4.33 -3.62 4.66 -6 5 C-6 4.34 -6 3.68 -6 3 C-5.195625 2.690625 -4.39125 2.38125 -3.5625 2.0625 C-1.10919595 1.23664655 -1.10919595 1.23664655 0 0 Z " fill="#A3A9A1" transform="translate(43,0)"/>
<path d="" fill="#323D40" transform="translate(0,0)"/>
<path d="" fill="#364143" transform="translate(0,0)"/>
<path d="" fill="#696A6E" transform="translate(0,0)"/>
<path d="" fill="#364143" transform="translate(0,0)"/>
<path d="" fill="#364143" transform="translate(0,0)"/>
<path d="" fill="#696A6E" transform="translate(0,0)"/>
<path d="" fill="#5C6265" transform="translate(0,0)"/>
<path d="" fill="#CDDBD1" transform="translate(0,0)"/>
<path d="" fill="#5D6267" transform="translate(0,0)"/>
</svg>
