<?xml version="1.0" encoding="UTF-8"?>
<svg version="1.1" xmlns="http://www.w3.org/2000/svg" width="64" height="64">
<path d="M0 0 C2.20700414 0.96556431 3.42932829 2.06872753 5 3.875 C5.9075 3.194375 6.815 2.51375 7.75 1.8125 C11 -0.125 11 -0.125 13 -0.0625 C15.69507792 1.20081777 18.36196855 2.49602901 21 3.875 C21.99 2.555 22.98 1.235 24 -0.125 C25.32 0.205 26.64 0.535 28 0.875 C28.38218767 2.53114657 28.71395102 4.19957024 29 5.875 C28.67 6.205 28.34 6.535 28 6.875 C29.32 7.205 30.64 7.535 32 7.875 C32.66 6.555 33.32 5.235 34 3.875 C35.32 4.205 36.64 4.535 38 4.875 C38.625 7.25 38.625 7.25 39 9.875 C38.34 10.535 37.68 11.195 37 11.875 C36.28591666 13.85856483 35.61382258 15.85815437 35 17.875 C35.66 18.535 36.32 19.195 37 19.875 C36.71325582 21.88220923 36.38133299 23.8835944 36 25.875 C36.33 26.205 36.66 26.535 37 26.875 C37.1875 29.3125 37.1875 29.3125 37 31.875 C34.77810176 34.09689824 32.91517292 34.80098892 30 35.875 C30.04125 36.65875 30.0825 37.4425 30.125 38.25 C30 40.875 30 40.875 28 42.875 C25.625 43 25.625 43 23 41.875 C21.34053335 39.34044483 20.14197323 36.6757053 19 33.875 C17.63462229 36.60575543 18.351488 37.8918448 19 40.875 C19.37054896 43.53801184 19.6831994 46.20482351 20 48.875 C16.77702775 51.39049054 14.58408663 52.79155905 10.5 53.375 C6.41591337 52.79155905 4.22297225 51.39049054 1 48.875 C1.46001912 46.72824409 1.96282727 44.94469887 3 43 C4.85166034 39.06522178 5 35.17649242 5 30.875 C4.06716704 28.67432579 4.06716704 28.67432579 3 26.875 C2.89482142 30.47430366 2.89482142 30.47430366 3.75 33.9375 C3.87375 34.8965625 3.87375 34.8965625 4 35.875 C2.25 38.125 2.25 38.125 0 39.875 C-0.99 39.875 -1.98 39.875 -3 39.875 C-3.12375 40.82375 -3.2475 41.7725 -3.375 42.75 C-4 45.875 -4 45.875 -6 47.875 C-9.9618261 47.59201242 -12.97162123 45.28393766 -16 42.875 C-16 41.555 -16 40.235 -16 38.875 C-18.42672567 37.08530974 -18.42672567 37.08530974 -21 35.875 C-20.42655063 33.00775314 -20.1385485 32.0135485 -18 29.875 C-17.67 29.05 -17.34 28.225 -17 27.375 C-16 24.875 -16 24.875 -14 22.875 C-13.01 22.875 -12.02 22.875 -11 22.875 C-11.08121094 22.22273438 -11.16242187 21.57046875 -11.24609375 20.8984375 C-11.75586076 13.84492659 -11.75586076 13.84492659 -9.44140625 10.875 C-7.68715118 9.40664968 -5.9368132 8.0904491 -4 6.875 C-4.18949219 6.25238281 -4.37898438 5.62976563 -4.57421875 4.98828125 C-5 2.875 -5 2.875 -3.8125 1.0625 C-2 -0.125 -2 -0.125 0 0 Z M22 20.875 C20.30027975 23.17980288 20.30027975 23.17980288 19 25.875 C19.33 26.865 19.66 27.855 20 28.875 C21.98 27.225 23.96 25.575 26 23.875 C25.02149805 22.85395449 24.02019573 21.8543879 23 20.875 C22.67 20.875 22.34 20.875 22 20.875 Z " fill="#554A4F" transform="translate(23,5.125)"/>
<path d="M0 0 C2.20700414 0.96556431 3.42932829 2.06872753 5 3.875 C5.9075 3.194375 6.815 2.51375 7.75 1.8125 C11 -0.125 11 -0.125 13 -0.0625 C15.69507792 1.20081777 18.36196855 2.49602901 21 3.875 C21.433125 3.215 21.86625 2.555 22.3125 1.875 C22.869375 1.215 23.42625 0.555 24 -0.125 C24.99 -0.125 25.98 -0.125 27 -0.125 C27.25 2.1875 27.25 2.1875 27 4.875 C25 6.6875 25 6.6875 23 7.875 C23.66 8.535 24.32 9.195 25 9.875 C22.625 10.5 22.625 10.5 20 10.875 C19.34 10.215 18.68 9.555 18 8.875 C16.9673198 11.66323655 16.95490707 12.7427274 17.9375 15.625 C18.288125 16.3675 18.63875 17.11 19 17.875 C16.67106405 20.02478703 15.22038995 20.83748682 12.0625 21.375 C7.94147307 20.70217928 6.51913912 19.13506239 4 15.875 C4 14.555 4 13.235 4 11.875 C3.01 11.875 2.02 11.875 1 11.875 C1.20625 13.15375 1.4125 14.4325 1.625 15.75 C1.9765625 17.9296875 1.9765625 17.9296875 2 19.875 C1.34 20.535 0.68 21.195 0 21.875 C-2.09375 21.66796875 -2.09375 21.66796875 -4.5 21.0625 C-5.69109375 20.77439453 -5.69109375 20.77439453 -6.90625 20.48046875 C-9 19.875 -9 19.875 -11 18.875 C-11.4375 16.25 -11.4375 16.25 -11 12.875 C-8.9050512 10.54377878 -6.53926173 8.70171379 -4 6.875 C-4.28423828 5.94107422 -4.28423828 5.94107422 -4.57421875 4.98828125 C-5 2.875 -5 2.875 -3.8125 1.0625 C-2 -0.125 -2 -0.125 0 0 Z " fill="#65575B" transform="translate(23,5.125)"/>
<path d="M0 0 C1.66611905 -0.042721 3.33382885 -0.04063832 5 0 C6 1 6 1 6.375 4.375 C6.62190898 7.94532808 6.62190898 7.94532808 8.625 9.5625 C9.305625 10.2740625 9.305625 10.2740625 10 11 C9.625 14.125 9.625 14.125 9 17 C9.33 17.33 9.66 17.66 10 18 C10.1875 20.4375 10.1875 20.4375 10 23 C7.77810176 25.22189824 5.91517292 25.92598892 3 27 C3.061875 28.175625 3.061875 28.175625 3.125 29.375 C3 32 3 32 1 34 C-1.375 34.125 -1.375 34.125 -4 33 C-6.81472138 29.29688219 -8.0824456 26.15423839 -7.75 21.5 C-7.5025 20.675 -7.255 19.85 -7 19 C-6.34 19 -5.68 19 -5 19 C-4.731875 18.360625 -4.46375 17.72125 -4.1875 17.0625 C-3 15 -3 15 0 14 C0 13.34 0 12.68 0 12 C-0.928125 11.8453125 -0.928125 11.8453125 -1.875 11.6875 C-4 11 -4 11 -6 8 C-5.9375 5.4375 -5.9375 5.4375 -5 3 C-2.4375 1.6875 -2.4375 1.6875 0 1 C0 0.67 0 0.34 0 0 Z " fill="#473B42" transform="translate(50,14)"/>
<path d="M0 0 C1.4540625 0.0309375 1.4540625 0.0309375 2.9375 0.0625 C3.5975 1.3825 4.2575 2.7025 4.9375 4.0625 C5.2675 3.7325 5.5975 3.4025 5.9375 3.0625 C8.375 2.875 8.375 2.875 10.9375 3.0625 C12.9375 5.0625 12.9375 5.0625 12.9375 9.0625 C13.9275 9.0625 14.9175 9.0625 15.9375 9.0625 C15.625 11.4375 15.625 11.4375 14.9375 14.0625 C11.9375 16.0625 11.9375 16.0625 8.9375 16.0625 C8.81375 17.01125 8.69 17.96 8.5625 18.9375 C7.9375 22.0625 7.9375 22.0625 5.9375 24.0625 C1.9756739 23.77951242 -1.03412123 21.47143766 -4.0625 19.0625 C-4.0625 17.7425 -4.0625 16.4225 -4.0625 15.0625 C-6.48922567 13.27280974 -6.48922567 13.27280974 -9.0625 12.0625 C-8.48905063 9.19525314 -8.2010485 8.2010485 -6.0625 6.0625 C-5.37496699 4.40433216 -4.70688717 2.73790664 -4.0625 1.0625 C-3.0625 0.0625 -3.0625 0.0625 0 0 Z " fill="#231D1F" transform="translate(11.0625,28.9375)"/>
<path d="M0 0 C1.37478516 0.01740234 1.37478516 0.01740234 2.77734375 0.03515625 C3.69644531 0.04417969 4.61554687 0.05320313 5.5625 0.0625 C6.27277344 0.07410156 6.98304687 0.08570313 7.71484375 0.09765625 C8.04484375 1.41765625 8.37484375 2.73765625 8.71484375 4.09765625 C9.37484375 4.09765625 10.03484375 4.09765625 10.71484375 4.09765625 C10.69421875 4.98453125 10.67359375 5.87140625 10.65234375 6.78515625 C10.70770594 9.71935256 11.04541715 12.25259321 11.71484375 15.09765625 C8.4918715 17.61314679 6.29893038 19.0142153 2.21484375 19.59765625 C-1.86924288 19.0142153 -4.062184 17.61314679 -7.28515625 15.09765625 C-6.82513713 12.95090034 -6.32232898 11.16735512 -5.28515625 9.22265625 C-4.03501811 6.5661127 -3.73441228 3.98573073 -3.28515625 1.09765625 C-2.28515625 0.09765625 -2.28515625 0.09765625 0 0 Z " fill="#4D434A" transform="translate(31.28515625,38.90234375)"/>
<path d="M0 0 C3.66881155 0.70554068 6.70450534 2.27735506 10 4 C10.433125 3.34 10.86625 2.68 11.3125 2 C11.869375 1.34 12.42625 0.68 13 0 C13.99 0 14.98 0 16 0 C16.25 2.3125 16.25 2.3125 16 5 C14 6.8125 14 6.8125 12 8 C12.66 8.66 13.32 9.32 14 10 C11.625 10.625 11.625 10.625 9 11 C8.34 10.34 7.68 9.68 7 9 C5.9673198 11.78823655 5.95490707 12.8677274 6.9375 15.75 C7.288125 16.4925 7.63875 17.235 8 18 C5.67106405 20.14978703 4.22038995 20.96248682 1.0625 21.5 C-2.97560631 20.84071734 -4.40204233 19.05642079 -7 16 C-5.68 15.01 -4.36 14.02 -3 13 C-2.67 14.65 -2.34 16.3 -2 18 C0.31 18 2.62 18 5 18 C4.65772428 15.02934491 4.65772428 15.02934491 4 12 C3.34 11.67 2.68 11.34 2 11 C2 10.01 2 9.02 2 8 C0.02 8.33 -1.96 8.66 -4 9 C-3.01 7.68 -2.02 6.36 -1 5 C-0.01 5.33 0.98 5.66 2 6 C2 5.34 2 4.68 2 4 C1.34 3.67 0.68 3.34 0 3 C0 2.01 0 1.02 0 0 Z " fill="#8B7583" transform="translate(34,5)"/>
<path d="M0 0 C0.66 0.33 1.32 0.66 2 1 C1.67 2.65 1.34 4.3 1 6 C2.32 6.33 3.64 6.66 5 7 C5.66 5.68 6.32 4.36 7 3 C8.32 3.33 9.64 3.66 11 4 C11.625 6.375 11.625 6.375 12 9 C11.34 9.66 10.68 10.32 10 11 C9.29289322 12.64991582 8.62056011 14.31562256 8 16 C7.34 16 6.68 16 6 16 C5.67 13.69 5.34 11.38 5 9 C4.01 9.33 3.02 9.66 2 10 C-0.33006911 10.35543427 -2.66327016 10.6913753 -5 11 C-4.81870185 14.43793339 -4.81870185 14.43793339 -4 18 C-2.06402968 19.51294288 -2.06402968 19.51294288 0 20 C0 20.66 0 21.32 0 22 C0.66 22.33 1.32 22.66 2 23 C-0.16874252 22.49396008 -1.99967627 22.00016187 -4 21 C-4.66 21.66 -5.32 22.32 -6 23 C-6 21.35 -6 19.7 -6 18 C-7.32 18.33 -8.64 18.66 -10 19 C-9.79375 18.4225 -9.5875 17.845 -9.375 17.25 C-8.90582716 14.43496298 -9.68732766 13.47091265 -11 11 C-11 9.68 -11 8.36 -11 7 C-10.01 7 -9.02 7 -8 7 C-7.67 7.99 -7.34 8.98 -7 10 C-6.01 9.34 -5.02 8.68 -4 8 C-4 7.01 -4 6.02 -4 5 C-3.01 4.67 -2.02 4.34 -1 4 C-0.26676204 1.98491642 -0.26676204 1.98491642 0 0 Z " fill="#44383F" transform="translate(50,6)"/>
<path d="M0 0 C0.33 0.99 0.66 1.98 1 3 C-0.32 3.33 -1.64 3.66 -3 4 C-2.67 4 -2.34 4 -2 4 C-0.66431979 4.32380126 0.66923011 4.65657551 2 5 C2.88935377 8.303314 3.46274105 11.62294375 4 15 C1.69 15.33 -0.62 15.66 -3 16 C-3.66 15.01 -4.32 14.02 -5 13 C-5.33 12.67 -5.66 12.34 -6 12 C-6.66 12 -7.32 12 -8 12 C-8 11.01 -8 10.02 -8 9 C-9.32 8.67 -10.64 8.34 -12 8 C-12 7.34 -12 6.68 -12 6 C-11.34 6 -10.68 6 -10 6 C-10 5.34 -10 4.68 -10 4 C-6.82844321 0.3909871 -4.89320045 -1.63106682 0 0 Z " fill="#C7C3B3" transform="translate(35,8)"/>
<path d="M0 0 C0.66 0.33 1.32 0.66 2 1 C2.125 3.375 2.125 3.375 2 6 C-0.22189824 8.22189824 -2.08482708 8.92598892 -5 10 C-4.95875 10.78375 -4.9175 11.5675 -4.875 12.375 C-5 15 -5 15 -7 17 C-9.375 17.125 -9.375 17.125 -12 16 C-13.65946665 13.46544483 -14.85802677 10.8007053 -16 8 C-15.34 7.67 -14.68 7.34 -14 7 C-13.34 7.33 -12.68 7.66 -12 8 C-11.67 6.68 -11.34 5.36 -11 4 C-10.34 4.66 -9.68 5.32 -9 6 C-5.70285207 5.67028521 -4.3773161 5.3773161 -2 3 C-1.67 3.33 -1.34 3.66 -1 4 C-0.67 2.68 -0.34 1.36 0 0 Z " fill="#2A2527" transform="translate(58,31)"/>
<path d="M0 0 C4.39932846 1.404041 4.39932846 1.404041 5.9375 3.9375 C5.69296876 7.27942692 5.33206443 8.54293557 2.9375 10.9375 C-1.39893601 11.25287716 -3.38903229 11.38647847 -7.0625 8.9375 C-7.66976015 5.64094487 -7.33863897 4.34108772 -5.4375 1.5625 C-3.0625 -0.0625 -3.0625 -0.0625 0 0 Z " fill="#C9F0CA" transform="translate(35.0625,27.0625)"/>
<path d="M0 0 C4.21878192 -0.19622241 7.17010894 0.19769832 11 2 C10.75 4.375 10.75 4.375 10 7 C7.56620398 8.91226831 6.39387843 9.04579982 3.3125 8.6875 C1 8 1 8 0 7 C-0.33 7.99 -0.66 8.98 -1 10 C-2.32 9.67 -3.64 9.34 -5 9 C-4.67 7.35 -4.34 5.7 -4 4 C-3.34 4 -2.68 4 -2 4 C-1.34 2.68 -0.68 1.36 0 0 Z " fill="#A2D0B7" transform="translate(47,29)"/>
<path d="M0 0 C0.14465502 6.22016588 -0.96331813 11.14453963 -3 17 C-3.33 17.99 -3.66 18.98 -4 20 C-4.33 20 -4.66 20 -5 20 C-5 18.35 -5 16.7 -5 15 C-7.97 15 -10.94 15 -14 15 C-13.67 14.34 -13.34 13.68 -13 13 C-11.329375 13.061875 -11.329375 13.061875 -9.625 13.125 C-5.95633975 13.41121859 -5.95633975 13.41121859 -4 11 C-4.09111938 8.46048456 -4.09111938 8.46048456 -5 6 C-7.75895635 3.70362221 -7.75895635 3.70362221 -10.5625 4.25 C-13.15000567 4.83808052 -13.15000567 4.83808052 -15 7 C-15.69748583 8.31747324 -16.36959957 9.64914193 -17 11 C-17.25526029 8.02196331 -17.00740369 6.02082287 -16 3.1875 C-14 1 -14 1 -10.0625 0.75 C-9.35996094 0.79640625 -8.65742187 0.8428125 -7.93359375 0.890625 C-5.14589877 1.0483128 -2.75553544 0 0 0 Z " fill="#352B30" transform="translate(44,24)"/>
<path d="M0 0 C4.455 0.99 4.455 0.99 9 2 C9 2.66 9 3.32 9 4 C9.99 4.33 10.98 4.66 12 5 C11.01 5.33 10.02 5.66 9 6 C8.87625 6.94875 8.7525 7.8975 8.625 8.875 C8 12 8 12 6 14 C2.63060567 13.66306057 0.57089417 12.11180592 -2 10 C-0.68 9.34 0.64 8.68 2 8 C1.34 5.36 0.68 2.72 0 0 Z " fill="#352A2E" transform="translate(11,39)"/>
<path d="M0 0 C2.5625 0.1875 2.5625 0.1875 4.5625 2.1875 C4.5625 3.5075 4.5625 4.8275 4.5625 6.1875 C5.5525 6.1875 6.5425 6.1875 7.5625 6.1875 C7.2325 7.8375 6.9025 9.4875 6.5625 11.1875 C5.2425 11.5175 3.9225 11.8475 2.5625 12.1875 C2.2325 11.1975 1.9025 10.2075 1.5625 9.1875 C1.8925 8.8575 2.2225 8.5275 2.5625 8.1875 C1.77875 8.22875 0.995 8.27 0.1875 8.3125 C-2.4375 8.1875 -2.4375 8.1875 -4.4375 6.1875 C-3.71780303 0.28598485 -3.71780303 0.28598485 0 0 Z " fill="#5F525C" transform="translate(19.4375,31.8125)"/>
<path d="M0 0 C0.33 1.32 0.66 2.64 1 4 C0.34 3.67 -0.32 3.34 -1 3 C-1.28875 3.94875 -1.5775 4.8975 -1.875 5.875 C-3 9 -3 9 -5 11 C-7.625 10.625 -7.625 10.625 -10 10 C-10.6875 7.6875 -10.6875 7.6875 -11 5 C-8.05978879 1.03071487 -4.83490356 -0.26134614 0 0 Z " fill="#E9EECF" transform="translate(55,14)"/>
<path d="M0 0 C0.8125 1.6875 0.8125 1.6875 1 4 C-1.125 6.8125 -1.125 6.8125 -4 9 C-6.8125 8.8125 -6.8125 8.8125 -9 8 C-9.22223194 5.25913944 -9.34781139 3.56036279 -7.875 1.1875 C-5.22464043 -0.49106106 -3.06753576 -0.20450238 0 0 Z " fill="#ECF3D2" transform="translate(22,16)"/>
<path d="M0 0 C1.4540625 0.0309375 1.4540625 0.0309375 2.9375 0.0625 C3.74717438 2.97732778 4.15595993 4.52363217 3 7.375 C2.4740625 8.2103125 2.4740625 8.2103125 1.9375 9.0625 C-0.92974686 8.48905063 -1.9239515 8.2010485 -4.0625 6.0625 C-4.25 3.5 -4.25 3.5 -4.0625 1.0625 C-3.0625 0.0625 -3.0625 0.0625 0 0 Z " fill="#98B9A9" transform="translate(11.0625,28.9375)"/>
<path d="M0 0 C0.99 0 1.98 0 3 0 C3.25 2.3125 3.25 2.3125 3 5 C1 6.8125 1 6.8125 -1 8 C-0.34 8.66 0.32 9.32 1 10 C-0.65 10.33 -2.3 10.66 -4 11 C-7 7.375 -7 7.375 -7 4 C-5.68 4 -4.36 4 -3 4 C-1.9739266 2.68662604 -0.97272675 1.35335895 0 0 Z " fill="#8EA19A" transform="translate(47,5)"/>
<path d="M0 0 C0.99 0 1.98 0 3 0 C3 0.66 3 1.32 3 2 C3.99 1.67 4.98 1.34 6 1 C6.99 2.65 7.98 4.3 9 6 C7.4375 7.1875 7.4375 7.1875 5 8 C1.25 6.625 1.25 6.625 -2 5 C-1.125 1.125 -1.125 1.125 0 0 Z " fill="#454347" transform="translate(26,49)"/>
<path d="M0 0 C0.66 0.33 1.32 0.66 2 1 C1.25 5.75 1.25 5.75 -1 8 C-5.33643601 8.31537716 -7.32653229 8.44897847 -11 6 C-11.1875 3.375 -11.1875 3.375 -11 1 C-10.46375 1.515625 -9.9275 2.03125 -9.375 2.5625 C-6.99503501 4.32605545 -6.99503501 4.32605545 -3.75 3.6875 C-2.8425 3.460625 -1.935 3.23375 -1 3 C-0.67 2.01 -0.34 1.02 0 0 Z " fill="#907B89" transform="translate(39,30)"/>
<path d="M0 0 C1.65 0 3.3 0 5 0 C5.144375 1.051875 5.28875 2.10375 5.4375 3.1875 C5.87526966 6.15460549 6.37804866 9.06794366 7 12 C6.01 12.66 5.02 13.32 4 14 C2.30566082 10.9530371 1.50532888 8.17178534 0.875 4.75 C0.70742188 3.85796875 0.53984375 2.9659375 0.3671875 2.046875 C0.18542969 1.03367187 0.18542969 1.03367187 0 0 Z " fill="#485455" transform="translate(23,16)"/>
<path d="M0 0 C2.97 0.495 2.97 0.495 6 1 C6.125 4.375 6.125 4.375 6 8 C5.34 8.66 4.68 9.32 4 10 C1.375 9.625 1.375 9.625 -1 9 C-1 6 -1 6 1 4 C0.6814823 1.89179203 0.6814823 1.89179203 0 0 Z " fill="#5B5159" transform="translate(47,38)"/>
<path d="M0 0 C2.66666667 2.66666667 5.33333333 5.33333333 8 8 C7.01 8 6.02 8 5 8 C5 8.66 5 9.32 5 10 C5.99 10.33 6.98 10.66 8 11 C5.69 11 3.38 11 1 11 C1 10.34 1 9.68 1 9 C0.34 8.67 -0.32 8.34 -1 8 C-0.67 5.36 -0.34 2.72 0 0 Z " fill="#32282B" transform="translate(28,40)"/>
<path d="M0 0 C0.66 0.33 1.32 0.66 2 1 C2.73075648 3.3140622 3.40138258 5.64828869 4 8 C3.34 8.66 2.68 9.32 2 10 C-0.625 9.625 -0.625 9.625 -3 9 C-2.25 2.25 -2.25 2.25 0 0 Z " fill="#979A96" transform="translate(10,39)"/>
<path d="M0 0 C1.65437528 4.96312583 2.06132018 7.78988274 1 13 C0.01 13.495 0.01 13.495 -1 14 C-1.28875 13.21625 -1.5775 12.4325 -1.875 11.625 C-2.84912254 8.90328368 -2.84912254 8.90328368 -5 7 C-4.875 5.0625 -4.875 5.0625 -4 3 C-1.9375 1.25 -1.9375 1.25 0 0 Z " fill="#292627" transform="translate(25,24)"/>
<path d="M0 0 C2.6875 0.3125 2.6875 0.3125 5 1 C5.33 2.32 5.66 3.64 6 5 C3.69 5.33 1.38 5.66 -1 6 C-1.66 5.01 -2.32 4.02 -3 3 C-1.8125 1.4375 -1.8125 1.4375 0 0 Z " fill="#2DE8B7" transform="translate(33,18)"/>
<path d="M0 0 C0.598125 0.226875 1.19625 0.45375 1.8125 0.6875 C1.4825 2.9975 1.1525 5.3075 0.8125 7.6875 C-0.8375 7.3575 -2.4875 7.0275 -4.1875 6.6875 C-4.875 4.875 -4.875 4.875 -5.1875 2.6875 C-3.58493056 0.24147296 -2.95482043 -0.4221172 0 0 Z " fill="#90C0A6" transform="translate(23.1875,5.3125)"/>
<path d="M0 0 C1.2065625 0.0309375 1.2065625 0.0309375 2.4375 0.0625 C1.5625 4.8125 1.5625 4.8125 0.4375 7.0625 C-1.2125 6.7325 -2.8625 6.4025 -4.5625 6.0625 C-3.48963568 0.08511307 -3.48963568 0.08511307 0 0 Z " fill="#A6DFBF" transform="translate(19.5625,31.9375)"/>
<path d="M0 0 C2.97 0 5.94 0 9 0 C8.67 1.32 8.34 2.64 8 4 C7.01 4.495 7.01 4.495 6 5 C5.67 5.66 5.34 6.32 5 7 C2.5 5.1875 2.5 5.1875 0 3 C0 2.01 0 1.02 0 0 Z " fill="#ACD7C0" transform="translate(29,40)"/>
<path d="M0 0 C1.32 0.33 2.64 0.66 4 1 C3.75 3.375 3.75 3.375 3 6 C1.25 7.375 1.25 7.375 -1 8 C-3.75 7.625 -3.75 7.625 -6 7 C-6 6.34 -6 5.68 -6 5 C-5.195625 4.731875 -4.39125 4.46375 -3.5625 4.1875 C-2.716875 3.795625 -1.87125 3.40375 -1 3 C-0.67 2.01 -0.34 1.02 0 0 Z " fill="#9C8B91" transform="translate(54,30)"/>
<path d="M0 0 C1.98 0.495 1.98 0.495 4 1 C4.33 2.65 4.66 4.3 5 6 C3.125 6.625 3.125 6.625 1 7 C0.34 6.34 -0.32 5.68 -1 5 C-0.625 2.375 -0.625 2.375 0 0 Z " fill="#63545E" transform="translate(57,9)"/>
<path d="M0 0 C1.125 1.625 1.125 1.625 2 4 C1.1875 7.0625 1.1875 7.0625 0 10 C-0.33 10.99 -0.66 11.98 -1 13 C-1.33 13 -1.66 13 -2 13 C-2 11.35 -2 9.7 -2 8 C-4.97 8 -7.94 8 -11 8 C-10.67 7.34 -10.34 6.68 -10 6 C-8.329375 6.061875 -8.329375 6.061875 -6.625 6.125 C-2.95633975 6.41121859 -2.95633975 6.41121859 -1 4 C-0.3574765 1.93125966 -0.3574765 1.93125966 0 0 Z " fill="#11100F" transform="translate(41,31)"/>
<path d="M0 0 C0.66 0.33 1.32 0.66 2 1 C2.484375 2.77734375 2.484375 2.77734375 2.75 4.9375 C2.84796875 5.64777344 2.9459375 6.35804687 3.046875 7.08984375 C3 9 3 9 1 11 C-1.625 10.625 -1.625 10.625 -4 10 C-4 9.34 -4 8.68 -4 8 C-3.34 7.38125 -2.68 6.7625 -2 6.125 C0.4569098 4.0008924 0.4569098 4.0008924 0 0 Z " fill="#907A8A" transform="translate(22,16)"/>
<path d="M0 0 C2.0625 0.4375 2.0625 0.4375 4 1 C4 4 4 4 3 6 C1.35 5.67 -0.3 5.34 -2 5 C-1.125 1.125 -1.125 1.125 0 0 Z " fill="#9BAFA0" transform="translate(4,36)"/>
<path d="M0 0 C0.99 0.99 1.98 1.98 3 3 C0.9927092 6.0109362 0.16115776 6.63016497 -3 8 C-3.33 6.02 -3.66 4.04 -4 2 C-2.68 1.34 -1.36 0.68 0 0 Z " fill="#426561" transform="translate(37,46)"/>
<path d="M0 0 C1.33333333 2 2.66666667 4 4 6 C4.99 6.33 5.98 6.66 7 7 C7 7.66 7 8.32 7 9 C7.66 9.33 8.32 9.66 9 10 C6.83125748 9.49396008 5.00032373 9.00016187 3 8 C2.34 8.66 1.68 9.32 1 10 C1 8.35 1 6.7 1 5 C-0.32 5.33 -1.64 5.66 -3 6 C-2.01 4.02 -1.02 2.04 0 0 Z " fill="#1C1819" transform="translate(43,19)"/>
<path d="M0 0 C2.125 0.375 2.125 0.375 4 1 C4.33 2.98 4.66 4.96 5 7 C2.0625 6.1875 2.0625 6.1875 -1 5 C-1.33 4.01 -1.66 3.02 -2 2 C-1.34 1.34 -0.68 0.68 0 0 Z " fill="#88BCB3" transform="translate(33,12)"/>
<path d="M0 0 C2.97 0.495 2.97 0.495 6 1 C6 1.66 6 2.32 6 3 C6.99 3.33 7.98 3.66 9 4 C8.01 4.33 7.02 4.66 6 5 C5.67 5.99 5.34 6.98 5 8 C4.67 7.01 4.34 6.02 4 5 C1.99983534 3.79117904 1.99983534 3.79117904 0 3 C0 2.01 0 1.02 0 0 Z " fill="#3E5251" transform="translate(14,40)"/>
<path d="M0 0 C0.66 0.33 1.32 0.66 2 1 C1.34 2.98 0.68 4.96 0 7 C-2.31 7 -4.62 7 -7 7 C-7.33 6.34 -7.66 5.68 -8 5 C-6.8553125 4.87625 -6.8553125 4.87625 -5.6875 4.75 C-2.47626739 3.85384206 -1.70625501 2.78388975 0 0 Z " fill="#63555F" transform="translate(37,51)"/>
<path d="M0 0 C3.35595828 0.59927826 5.37801226 1.84622436 8 4 C7.34 4 6.68 4 6 4 C5.67 4.99 5.34 5.98 5 7 C2.5 5.1875 2.5 5.1875 0 3 C0 2.01 0 1.02 0 0 Z " fill="#8E928B" transform="translate(34,5)"/>
<path d="M0 0 C1.53445094 3.06890187 0.54984289 5.70094266 0 9 C-1.32 8.67 -2.64 8.34 -4 8 C-3.67 6.35 -3.34 4.7 -3 3 C-2.34 3 -1.68 3 -1 3 C-0.67 2.01 -0.34 1.02 0 0 Z " fill="#7C978C" transform="translate(46,30)"/>
<path d="M0 0 C0.66 0.33 1.32 0.66 2 1 C2.125 3.375 2.125 3.375 2 6 C0 8 0 8 -3.125 8.125 C-4.548125 8.063125 -4.548125 8.063125 -6 8 C-4.7934375 7.13375 -4.7934375 7.13375 -3.5625 6.25 C-1.02133261 4.01873107 -0.34879632 3.25543229 0 0 Z " fill="#8F7989" transform="translate(53,18)"/>
<path d="M0 0 C1.98 0.99 1.98 0.99 4 2 C4 2.66 4 3.32 4 4 C5.32 4.66 6.64 5.32 8 6 C6.35 6.33 4.7 6.66 3 7 C0 3.375 0 3.375 0 0 Z " fill="#D8D6C0" transform="translate(40,9)"/>
<path d="M0 0 C4.875 4.75 4.875 4.75 6 7 C3.625 7.625 3.625 7.625 1 8 C0.34 7.34 -0.32 6.68 -1 6 C-0.625 2.875 -0.625 2.875 0 0 Z " fill="#4A5D5A" transform="translate(28,40)"/>
<path d="M0 0 C3.3 0 6.6 0 10 0 C10 1.65 10 3.3 10 5 C9.01 5.33 8.02 5.66 7 6 C6.67 6.66 6.34 7.32 6 8 C5.67 7.01 5.34 6.02 5 5 C5.99 4.67 6.98 4.34 8 4 C8.33 3.01 8.66 2.02 9 1 C8.071875 1.20625 7.14375 1.4125 6.1875 1.625 C3 2 3 2 0 0 Z " fill="#846E7C" transform="translate(29,39)"/>
<path d="M0 0 C1.98 0.99 1.98 0.99 4 2 C4 4.64 4 7.28 4 10 C1.9375 8.25 1.9375 8.25 0 6 C0.3125 3.875 0.3125 3.875 1 2 C0.67 1.34 0.34 0.68 0 0 Z " fill="#61515A" transform="translate(39,12)"/>
<path d="M0 0 C1.32 0 2.64 0 4 0 C3.67 1.65 3.34 3.3 3 5 C1.68 4.67 0.36 4.34 -1 4 C-0.67 2.68 -0.34 1.36 0 0 Z " fill="#656068" transform="translate(14,48)"/>
<path d="M0 0 C0.66 0.33 1.32 0.66 2 1 C2 2.65 2 4.3 2 6 C0.35 6.33 -1.3 6.66 -3 7 C-2.67 5.68 -2.34 4.36 -2 3 C-1.67 3.33 -1.34 3.66 -1 4 C-0.67 2.68 -0.34 1.36 0 0 Z " fill="#5A4E57" transform="translate(58,31)"/>
<path d="M0 0 C0.66 0.33 1.32 0.66 2 1 C1.125 5.875 1.125 5.875 0 7 C-1.66617115 7.04063832 -3.33388095 7.042721 -5 7 C-4.01 6.67 -3.02 6.34 -2 6 C-0.77479736 2.99152582 -0.77479736 2.99152582 0 0 Z " fill="#947F8E" transform="translate(22,33)"/>
<path d="M0 0 C0.66 0.33 1.32 0.66 2 1 C2 1.66 2 2.32 2 3 C2.66 3.33 3.32 3.66 4 4 C1.69 4.66 -0.62 5.32 -3 6 C-1.125 1.125 -1.125 1.125 0 0 Z " fill="#E6ECC9" transform="translate(30,14)"/>
<path d="M0 0 C1.65 0.99 3.3 1.98 5 3 C4.67 3.66 4.34 4.32 4 5 C2.35 4.67 0.7 4.34 -1 4 C-0.67 2.68 -0.34 1.36 0 0 Z " fill="#B4ABA4" transform="translate(29,52)"/>
<path d="M0 0 C0.5775 0.45375 1.155 0.9075 1.75 1.375 C3.7800333 2.84113516 5.73539843 3.94857784 8 5 C5.6739143 5.38063221 3.33944736 5.71269945 1 6 C0 5 0 5 -0.0625 2.4375 C-0.041875 1.633125 -0.02125 0.82875 0 0 Z " fill="#AF9FA2" transform="translate(28,31)"/>
<path d="M0 0 C-0.33 1.98 -0.66 3.96 -1 6 C-3.475 5.01 -3.475 5.01 -6 4 C-6 3.34 -6 2.68 -6 2 C-2.25 0 -2.25 0 0 0 Z " fill="#352E32" transform="translate(42,43)"/>
<path d="M0 0 C1.65 0 3.3 0 5 0 C4.67 1.98 4.34 3.96 4 6 C3.67 5.01 3.34 4.02 3 3 C2.01 3 1.02 3 0 3 C0 2.01 0 1.02 0 0 Z " fill="#EDF3D4" transform="translate(9,29)"/>
<path d="M0 0 C0.33 0.99 0.66 1.98 1 3 C1.99 2.67 2.98 2.34 4 2 C4.33 3.32 4.66 4.64 5 6 C3.35 5.67 1.7 5.34 0 5 C-0.5625 3.0625 -0.5625 3.0625 -1 1 C-0.67 0.67 -0.34 0.34 0 0 Z " fill="#A09694" transform="translate(19,7)"/>
<path d="M0 0 C2.475 0.495 2.475 0.495 5 1 C4.67 2.32 4.34 3.64 4 5 C3.34 5 2.68 5 2 5 C1.34 3.35 0.68 1.7 0 0 Z " fill="#EBF1D0" transform="translate(49,29)"/>
<path d="M0 0 C0.99 0 1.98 0 3 0 C2.34 1.65 1.68 3.3 1 5 C0.01 5 -0.98 5 -2 5 C-1.125 1.125 -1.125 1.125 0 0 Z " fill="#9E918F" transform="translate(26,49)"/>
<path d="M0 0 C1.65 0 3.3 0 5 0 C4.67 1.32 4.34 2.64 4 4 C2.35 3.67 0.7 3.34 -1 3 C-0.67 2.01 -0.34 1.02 0 0 Z " fill="#EDF1D7" transform="translate(17,32)"/>
<path d="M0 0 C0 1.98 0 3.96 0 6 C-0.66 6 -1.32 6 -2 6 C-2.66 4.35 -3.32 2.7 -4 1 C-2 0 -2 0 0 0 Z " fill="#4B9489" transform="translate(44,24)"/>
<path d="M0 0 C0.99 0 1.98 0 3 0 C2.67 1.65 2.34 3.3 2 5 C1.01 5 0.02 5 -1 5 C-0.67 3.35 -0.34 1.7 0 0 Z " fill="#8CB5A4" transform="translate(57,9)"/>
</svg>
