<?xml version="1.0" encoding="UTF-8"?>
<svg version="1.1" xmlns="http://www.w3.org/2000/svg" width="64" height="64">
<path d="M0 0 C0.83265381 0.00523682 1.66530762 0.01047363 2.52319336 0.01586914 C3.42231445 0.0190918 4.32143555 0.02231445 5.24780273 0.02563477 C6.66609375 0.03820312 6.66609375 0.03820312 8.11303711 0.05102539 C9.06243164 0.05553711 10.01182617 0.06004883 10.98999023 0.06469727 C13.34356776 0.07652429 15.69702188 0.09300514 18.05053711 0.11352539 C18.54553711 1.10352539 18.54553711 1.10352539 19.05053711 2.11352539 C18.24609375 3.99291992 18.24609375 3.99291992 16.96069336 6.24633789 C16.50629883 7.05200195 16.0519043 7.85766602 15.58374023 8.68774414 C15.0984082 9.52950195 14.61307617 10.37125977 14.11303711 11.23852539 C13.63157227 12.08801758 13.15010742 12.93750977 12.65405273 13.81274414 C11.46002326 15.91707332 10.2561824 18.01582972 9.05053711 20.11352539 C13.67053711 20.11352539 18.29053711 20.11352539 23.05053711 20.11352539 C23.05053711 23.11352539 23.05053711 23.11352539 21.87988281 24.54882812 C21.33420654 25.04326416 20.78853027 25.5377002 20.22631836 26.04711914 C19.6161084 26.6077002 19.00589844 27.16828125 18.37719727 27.74584961 C17.71252441 28.34155762 17.04785156 28.93726562 16.36303711 29.55102539 C15.68547363 30.16993652 15.00791016 30.78884766 14.30981445 31.42651367 C12.90899873 32.70566154 11.50531951 33.98168019 10.09887695 35.25463867 C7.6488186 37.47808853 5.22370668 39.72732239 2.80053711 41.97998047 C0.7084172 43.92216931 -1.39345726 45.85354423 -3.49780273 47.7824707 C-4.8965531 49.0650114 -6.29221095 50.35092232 -7.68774414 51.63696289 C-8.49598633 52.37172852 -9.30422852 53.10649414 -10.13696289 53.86352539 C-10.83176758 54.49774414 -11.52657227 55.13196289 -12.24243164 55.78540039 C-13.94946289 57.11352539 -13.94946289 57.11352539 -15.94946289 57.11352539 C-15.28434412 53.70866866 -13.96069824 51.12239483 -12.22680664 48.12915039 C-11.41953125 46.72729492 -11.41953125 46.72729492 -10.59594727 45.29711914 C-9.75 43.84499023 -9.75 43.84499023 -8.88696289 42.36352539 C-8.31913086 41.3799707 -7.75129883 40.39641602 -7.16625977 39.38305664 C-5.76500921 36.95736241 -4.35780504 34.53510917 -2.94946289 32.11352539 C-7.89946289 31.78352539 -12.84946289 31.45352539 -17.94946289 31.11352539 C-16.82468003 25.48961109 -16.82468003 25.48961109 -15.05883789 22.44165039 C-14.68114258 21.78108643 -14.30344727 21.12052246 -13.91430664 20.43994141 C-13.5134082 19.75472412 -13.11250977 19.06950684 -12.69946289 18.36352539 C-11.88155498 16.940463 -11.06384545 15.51728656 -10.24633789 14.09399414 C-9.85124023 13.41127441 -9.45614258 12.72855469 -9.04907227 12.02514648 C-7.26019677 8.91526747 -5.54485312 5.76550682 -3.82446289 2.61743164 C-2.38231032 0.13873191 -2.38231032 0.13873191 0 0 Z " fill="#B2943A" transform="translate(29.949462890625,3.886474609375)"/>
<path d="M0 0 C1.93166016 0.01740234 1.93166016 0.01740234 3.90234375 0.03515625 C5.19269531 0.04417969 6.48304687 0.05320312 7.8125 0.0625 C8.81152344 0.07410156 9.81054688 0.08570313 10.83984375 0.09765625 C9.32785879 5.07006039 7.27761351 9.58851907 4.96484375 14.22265625 C4.62582031 14.92519531 4.28679688 15.62773437 3.9375 16.3515625 C1.58583161 21.08172439 -0.51584228 24.94533732 -5.5625 27.14453125 C-6.39910156 27.3765625 -7.23570313 27.60859375 -8.09765625 27.84765625 C-8.93167969 28.09 -9.76570313 28.33234375 -10.625 28.58203125 C-13.20761094 29.10730805 -15.53236613 29.19167379 -18.16015625 29.09765625 C-16.77239887 25.47299641 -15.17035275 22.05335693 -13.375 18.61328125 C-12.57932617 17.08767578 -12.57932617 17.08767578 -11.76757812 15.53125 C-11.21650391 14.48066406 -10.66542969 13.43007813 -10.09765625 12.34765625 C-9.54271484 11.28160156 -8.98777344 10.21554687 -8.41601562 9.1171875 C-3.70829044 0.11459488 -3.70829044 0.11459488 0 0 Z " fill="#EDE16B" transform="translate(30.16015625,4.90234375)"/>
<path d="M0 0 C0.66 0.33 1.32 0.66 2 1 C0.38050958 2.50594681 -1.24575974 4.00460668 -2.875 5.5 C-4.23238281 6.75296875 -4.23238281 6.75296875 -5.6171875 8.03125 C-8 10 -8 10 -10 10 C-9.40312566 6.65750371 -8.26396123 4.53563658 -6 2 C-5.34 2 -4.68 2 -4 2 C-3.34 1.649375 -2.68 1.29875 -2 0.9375 C-1.34 0.628125 -0.68 0.31875 0 0 Z " fill="#594A1D" transform="translate(24,51)"/>
<path d="M0 0 C0.33 0 0.66 0 1 0 C1 1.98 1 3.96 1 6 C-0.98 6.99 -0.98 6.99 -3 8 C-2.37240135 5.07120629 -1.41377341 2.63904371 0 0 Z " fill="#5E5728" transform="translate(17,53)"/>
<path d="M0 0 C1.98 0.495 1.98 0.495 4 1 C3.67 1.99 3.34 2.98 3 4 C1.68 3.67 0.36 3.34 -1 3 C-0.67 2.01 -0.34 1.02 0 0 Z " fill="#E9DA63" transform="translate(39,50)"/>
<path d="M0 0 C1.32 0.33 2.64 0.66 4 1 C4 1.99 4 2.98 4 4 C2.68 4 1.36 4 0 4 C0 2.68 0 1.36 0 0 Z " fill="#EADD65" transform="translate(9,8)"/>
<path d="M0 0 C0.99 0.33 1.98 0.66 3 1 C3 1.99 3 2.98 3 4 C1.68 4 0.36 4 -1 4 C-0.67 2.68 -0.34 1.36 0 0 Z " fill="#E6D45E" transform="translate(50,15)"/>
<path d="M0 0 C1.32 0 2.64 0 4 0 C4 0.99 4 1.98 4 3 C2.68 3 1.36 3 0 3 C0 2.01 0 1.02 0 0 Z " fill="#E8D961" transform="translate(30,52)"/>
<path d="M0 0 C0.99 0 1.98 0 3 0 C3 0.99 3 1.98 3 3 C2.01 3 1.02 3 0 3 C0 2.01 0 1.02 0 0 Z " fill="#E5D15C" transform="translate(16,41)"/>
<path d="M0 0 C0.99 0 1.98 0 3 0 C3 0.99 3 1.98 3 3 C2.01 3 1.02 3 0 3 C0 2.01 0 1.02 0 0 Z " fill="#E6D25D" transform="translate(45,37)"/>
<path d="M0 0 C0.66 0 1.32 0 2 0 C2 0.99 2 1.98 2 3 C1.01 2.67 0.02 2.34 -1 2 C-0.67 1.34 -0.34 0.68 0 0 Z " fill="#E9D962" transform="translate(36,47)"/>
<path d="M0 0 C0.99 0 1.98 0 3 0 C3 0.66 3 1.32 3 2 C2.01 2 1.02 2 0 2 C0 1.34 0 0.68 0 0 Z " fill="#E2CA56" transform="translate(40,42)"/>
<path d="M0 0 C0.66 0 1.32 0 2 0 C2 0.66 2 1.32 2 2 C1.34 2 0.68 2 0 2 C0 1.34 0 0.68 0 0 Z " fill="#EDE369" transform="translate(12,47)"/>
<path d="M0 0 C0.66 0 1.32 0 2 0 C2 0.66 2 1.32 2 2 C1.34 2 0.68 2 0 2 C0 1.34 0 0.68 0 0 Z " fill="#EDE369" transform="translate(45,19)"/>
<path d="M0 0 C0.66 0 1.32 0 2 0 C2 0.66 2 1.32 2 2 C1.34 2 0.68 2 0 2 C0 1.34 0 0.68 0 0 Z " fill="#EDE369" transform="translate(52,7)"/>
</svg>
