<?xml version="1.0" encoding="UTF-8"?>
<svg version="1.1" xmlns="http://www.w3.org/2000/svg" width="64" height="64">
<path d="M0 0 C0.85013672 -0.01546875 1.70027344 -0.0309375 2.57617188 -0.046875 C8.74711682 -0.00815535 8.74711682 -0.00815535 12.02734375 2.40625 C13.4375 4.5 13.4375 4.5 13.4375 6.5 C14.17911377 6.48428955 14.92072754 6.4685791 15.68481445 6.45239258 C19.03979896 6.39009286 22.39466186 6.35102493 25.75 6.3125 C26.91724609 6.28736328 28.08449219 6.26222656 29.28710938 6.23632812 C30.40537109 6.22666016 31.52363281 6.21699219 32.67578125 6.20703125 C33.70743408 6.1913208 34.73908691 6.17561035 35.80200195 6.15942383 C38.4375 6.5 38.4375 6.5 40.28588867 7.8190918 C42.00746624 10.33193079 41.63479113 12.54063299 41.4375 15.5 C42.7575 16.16 44.0775 16.82 45.4375 17.5 C45.4375 26.08 45.4375 34.66 45.4375 43.5 C44.1175 44.16 42.7975 44.82 41.4375 45.5 C40.16945434 47.5335948 40.16945434 47.5335948 39.4375 49.5 C38.7775 49.5 38.1175 49.5 37.4375 49.5 C37.47875 50.28375 37.52 51.0675 37.5625 51.875 C37.4375 54.5 37.4375 54.5 35.4375 56.5 C33 56.9375 33 56.9375 30.4375 56.5 C28.61866991 54.1167054 27.4375 52.54181663 27.4375 49.5 C18.1975 49.5 8.9575 49.5 -0.5625 49.5 C-1.2225 51.48 -1.8825 53.46 -2.5625 55.5 C-3.5625 56.5 -3.5625 56.5 -6 56.6875 C-8.5625 56.5 -8.5625 56.5 -10.5625 54.5 C-10.624375 53.736875 -10.68625 52.97375 -10.75 52.1875 C-11.018125 51.300625 -11.28625 50.41375 -11.5625 49.5 C-12.72523437 48.90445313 -13.88796875 48.30890625 -15.0859375 47.6953125 C-17.85710541 45.79925025 -18.48121112 44.91508115 -19.13696289 41.56665039 C-19.25197987 37.91878524 -19.1716224 34.33306159 -19 30.6875 C-18.96841797 29.42228516 -18.93683594 28.15707031 -18.90429688 26.85351562 C-18.82187665 23.73332143 -18.70685922 20.61784197 -18.5625 17.5 C-17.2425 16.84 -15.9225 16.18 -14.5625 15.5 C-14.62050781 14.75234375 -14.67851562 14.0046875 -14.73828125 13.234375 C-14.78339844 12.24953125 -14.82851562 11.2646875 -14.875 10.25 C-14.93300781 9.27546875 -14.99101562 8.3009375 -15.05078125 7.296875 C-14.5625 4.5 -14.5625 4.5 -12.640625 2.171875 C-8.36313123 -0.1514338 -4.791686 -0.08758604 0 0 Z M-15.5625 17.5 C-15.8925 19.15 -16.2225 20.8 -16.5625 22.5 C-15.9025 22.5 -15.2425 22.5 -14.5625 22.5 C-14.5625 20.85 -14.5625 19.2 -14.5625 17.5 C-14.8925 17.5 -15.2225 17.5 -15.5625 17.5 Z M41.4375 17.5 C41.4375 19.15 41.4375 20.8 41.4375 22.5 C42.0975 22.5 42.7575 22.5 43.4375 22.5 C43.4375 20.85 43.4375 19.2 43.4375 17.5 C42.7775 17.5 42.1175 17.5 41.4375 17.5 Z M-16.5625 24.5 C-16.5625 26.48 -16.5625 28.46 -16.5625 30.5 C-15.9025 30.5 -15.2425 30.5 -14.5625 30.5 C-14.5625 28.52 -14.5625 26.54 -14.5625 24.5 C-15.2225 24.5 -15.8825 24.5 -16.5625 24.5 Z M41.4375 24.5 C41.4375 26.48 41.4375 28.46 41.4375 30.5 C42.0975 30.5 42.7575 30.5 43.4375 30.5 C43.4375 28.52 43.4375 26.54 43.4375 24.5 C42.7775 24.5 42.1175 24.5 41.4375 24.5 Z M-16.5625 32.5 C-16.5625 36.13 -16.5625 39.76 -16.5625 43.5 C-15.5725 43.995 -15.5725 43.995 -14.5625 44.5 C-14.5625 40.54 -14.5625 36.58 -14.5625 32.5 C-15.2225 32.5 -15.8825 32.5 -16.5625 32.5 Z M41.4375 32.5 C41.4375 36.13 41.4375 39.76 41.4375 43.5 C42.0975 43.5 42.7575 43.5 43.4375 43.5 C43.4375 39.87 43.4375 36.24 43.4375 32.5 C42.7775 32.5 42.1175 32.5 41.4375 32.5 Z " fill="#292D2B" transform="translate(18.5625,3.5)"/>
<path d="M0 0 C0.83853516 0.00064453 1.67707031 0.00128906 2.54101562 0.00195312 C3.8490918 0.02612305 3.8490918 0.02612305 5.18359375 0.05078125 C6.05951172 0.04755859 6.93542969 0.04433594 7.83789062 0.04101562 C14.35400694 0.09619444 14.35400694 0.09619444 16.62109375 2.36328125 C16.87988281 5.22070312 16.87988281 5.22070312 16.88671875 8.83203125 C16.89058594 10.77142578 16.89058594 10.77142578 16.89453125 12.75 C16.88824707 13.76199463 16.88824707 13.76199463 16.88183594 14.79443359 C16.87113445 16.85544282 16.88173318 18.91558044 16.89453125 20.9765625 C16.89195313 22.26949219 16.889375 23.56242187 16.88671875 24.89453125 C16.88446289 26.08626953 16.88220703 27.27800781 16.87988281 28.50585938 C16.62109375 31.36328125 16.62109375 31.36328125 14.62109375 33.36328125 C11.30753615 33.8113284 7.96149512 33.68737987 4.62109375 33.67578125 C3.69296875 33.69189453 2.76484375 33.70800781 1.80859375 33.72460938 C0.92171875 33.72525391 0.03484375 33.72589844 -0.87890625 33.7265625 C-2.1009375 33.73103394 -2.1009375 33.73103394 -3.34765625 33.7355957 C-4.01796875 33.61273193 -4.68828125 33.48986816 -5.37890625 33.36328125 C-8.69238937 28.39305656 -7.70646808 22.70124532 -7.69140625 16.86328125 C-7.70751953 15.61417969 -7.72363281 14.36507813 -7.74023438 13.078125 C-7.74087891 11.88316406 -7.74152344 10.68820313 -7.7421875 9.45703125 C-7.74516846 8.36068359 -7.74814941 7.26433594 -7.7512207 6.13476562 C-7.37890625 3.36328125 -7.37890625 3.36328125 -6.12988281 1.50512695 C-3.93534121 0.0740239 -2.60992655 -0.01013617 0 0 Z " fill="#CDD4C0" transform="translate(13.37890625,5.63671875)"/>
<path d="M0 0 C6.1565625 -0.0309375 6.1565625 -0.0309375 12.4375 -0.0625 C14.38160767 -0.07615601 14.38160767 -0.07615601 16.36499023 -0.09008789 C17.88394897 -0.09383423 17.88394897 -0.09383423 19.43359375 -0.09765625 C20.47572021 -0.10289307 21.51784668 -0.10812988 22.59155273 -0.11352539 C25 0 25 0 26 1 C26.09959621 2.84159023 26.13080411 4.68696967 26.1328125 6.53125 C26.13474609 8.21154297 26.13474609 8.21154297 26.13671875 9.92578125 C26.13285156 11.10527344 26.12898438 12.28476562 26.125 13.5 C26.13080078 15.26923828 26.13080078 15.26923828 26.13671875 17.07421875 C26.13542969 18.19441406 26.13414063 19.31460937 26.1328125 20.46875 C26.13168457 21.50451172 26.13055664 22.54027344 26.12939453 23.60742188 C26 26 26 26 25 27 C23.14630389 27.08737645 21.28932459 27.10698153 19.43359375 27.09765625 C18.42095459 27.09515869 17.40831543 27.09266113 16.36499023 27.09008789 C15.06891846 27.08098389 13.77284668 27.07187988 12.4375 27.0625 C8.333125 27.041875 4.22875 27.02125 0 27 C0 18.09 0 9.18 0 0 Z " fill="#8E979B" transform="translate(32,12)"/>
<path d="M0 0 C1.43158447 -0.00945648 1.43158447 -0.00945648 2.89208984 -0.019104 C3.92543457 -0.01505554 4.9587793 -0.01100708 6.0234375 -0.00683594 C7.08127441 -0.00874939 8.13911133 -0.01066284 9.22900391 -0.01263428 C11.46842689 -0.01399696 13.70785776 -0.01029476 15.94726562 -0.00195312 C19.38429427 0.00874504 22.8208002 -0.00184581 26.2578125 -0.01464844 C28.42968866 -0.01332686 30.60156449 -0.0107645 32.7734375 -0.00683594 C33.80678223 -0.0108844 34.84012695 -0.01493286 35.90478516 -0.019104 C36.8591748 -0.01279968 37.81356445 -0.00649536 38.796875 0 C39.63911621 0.00159119 40.48135742 0.00318237 41.34912109 0.00482178 C43.3984375 0.25878906 43.3984375 0.25878906 45.3984375 2.25878906 C45.6484375 5.25878906 45.6484375 5.25878906 45.3984375 8.25878906 C43.3984375 10.25878906 43.3984375 10.25878906 39.40771484 10.48583984 C37.68323581 10.48552243 35.95873717 10.4741803 34.234375 10.45410156 C32.87356308 10.44985672 32.87356308 10.44985672 31.48526001 10.44552612 C28.58118627 10.43431059 25.67741838 10.40920369 22.7734375 10.38378906 C20.80729611 10.37376103 18.8411499 10.36463487 16.875 10.35644531 C12.04936091 10.33436678 7.2239511 10.29982771 2.3984375 10.25878906 C2.7078125 9.66066406 3.0171875 9.06253906 3.3359375 8.44628906 C4.50053454 6.16922135 4.50053454 6.16922135 5.3984375 3.25878906 C2.4284375 3.25878906 -0.5415625 3.25878906 -3.6015625 3.25878906 C-2.9415625 4.57878906 -2.2815625 5.89878906 -1.6015625 7.25878906 C-1.6015625 8.24878906 -1.6015625 9.23878906 -1.6015625 10.25878906 C-5.4765625 9.38378906 -5.4765625 9.38378906 -6.6015625 8.25878906 C-6.7890625 5.32128906 -6.7890625 5.32128906 -6.6015625 2.25878906 C-4.12591215 -0.21686129 -3.40850517 0.00643945 0 0 Z " fill="#62655D" transform="translate(12.6015625,40.7412109375)"/>
<path d="M0 0 C0.82306641 -0.00515625 1.64613281 -0.0103125 2.49414062 -0.015625 C3.34041016 -0.00015625 4.18667969 0.0153125 5.05859375 0.03125 C5.90873047 0.01578125 6.75886719 0.0003125 7.63476562 -0.015625 C13.80571057 0.02309465 13.80571057 0.02309465 17.0859375 2.4375 C18.49609375 4.53125 18.49609375 4.53125 18.49609375 6.53125 C19.23770752 6.51553955 19.97932129 6.4998291 20.7434082 6.48364258 C24.09839271 6.42134286 27.45325561 6.38227493 30.80859375 6.34375 C31.97583984 6.31861328 33.14308594 6.29347656 34.34570312 6.26757812 C35.46396484 6.25791016 36.58222656 6.24824219 37.734375 6.23828125 C38.76602783 6.2225708 39.79768066 6.20686035 40.8605957 6.19067383 C43.49609375 6.53125 43.49609375 6.53125 45.33789062 7.82617188 C47.27926396 10.6842139 46.80461246 13.89538992 46.68359375 17.21875 C46.66329102 18.2715918 46.66329102 18.2715918 46.64257812 19.34570312 C46.60729557 21.07454829 46.55348958 22.80299765 46.49609375 24.53125 C45.83609375 24.53125 45.17609375 24.53125 44.49609375 24.53125 C44.00109375 17.10625 44.00109375 17.10625 43.49609375 9.53125 C35.24609375 9.20125 26.99609375 8.87125 18.49609375 8.53125 C18.49609375 17.44125 18.49609375 26.35125 18.49609375 35.53125 C26.41609375 35.53125 34.33609375 35.53125 42.49609375 35.53125 C42.49609375 36.19125 42.49609375 36.85125 42.49609375 37.53125 C35.57300083 37.72472389 28.64963116 37.90216109 21.72583008 38.06835938 C19.36961527 38.12682221 17.01348916 38.1889802 14.6574707 38.25488281 C11.27441558 38.34887635 7.89126584 38.42965381 4.5078125 38.5078125 C2.92331551 38.55610703 2.92331551 38.55610703 1.30680847 38.6053772 C-0.16437691 38.63563492 -0.16437691 38.63563492 -1.6652832 38.66650391 C-2.5291011 38.68871002 -3.39291901 38.71091614 -4.28291321 38.73379517 C-6.50390625 38.53125 -6.50390625 38.53125 -9.50390625 36.53125 C-10.11481078 32.01979108 -10.01871582 27.47631653 -10.00488281 22.92822266 C-10.00391254 20.67089488 -10.04546641 18.41699076 -10.08984375 16.16015625 C-10.09505249 14.72396542 -10.09773891 13.28776278 -10.09765625 11.8515625 C-10.10474609 10.54461426 -10.11183594 9.23766602 -10.11914062 7.89111328 C-9.50390625 4.53125 -9.50390625 4.53125 -7.24829102 2.10693359 C-4.50716274 0.53311971 -3.10811292 0.01883909 0 0 Z M-6.25488281 3.6730957 C-8.05599215 6.3525803 -7.87591091 8.41667252 -7.8671875 11.625 C-7.86654297 12.81996094 -7.86589844 14.01492187 -7.86523438 15.24609375 C-7.84912109 16.49519531 -7.83300781 17.74429687 -7.81640625 19.03125 C-7.81962891 20.28035156 -7.82285156 21.52945312 -7.82617188 22.81640625 C-8.05675518 29.55355613 -8.05675518 29.55355613 -5.50390625 35.53125 C-3.41211683 35.97900603 -3.41211683 35.97900603 -1.00390625 35.89453125 C-0.11703125 35.89388672 0.76984375 35.89324219 1.68359375 35.89257812 C2.61171875 35.87646484 3.53984375 35.86035156 4.49609375 35.84375 C5.42421875 35.84697266 6.35234375 35.85019531 7.30859375 35.85351562 C12.43222031 36.11824837 12.43222031 36.11824837 16.49609375 33.53125 C16.80826694 30.55257771 16.80826694 30.55257771 16.76171875 27.0625 C16.76429687 25.76957031 16.766875 24.47664063 16.76953125 23.14453125 C16.7653418 22.46986816 16.76115234 21.79520508 16.75683594 21.10009766 C16.74613445 19.03908843 16.75673318 16.97895081 16.76953125 14.91796875 C16.76695313 13.62503906 16.764375 12.33210937 16.76171875 11 C16.75946289 9.80826172 16.75720703 8.61652344 16.75488281 7.38867188 C16.79170259 4.39989566 16.79170259 4.39989566 14.49609375 2.53125 C11.37063219 2.08498217 8.21229535 2.20714698 5.05859375 2.21875 C3.75051758 2.19458008 3.75051758 2.19458008 2.41601562 2.16992188 C1.57748047 2.16927734 0.73894531 2.16863281 -0.125 2.16796875 C-1.27633423 2.16349731 -1.27633423 2.16349731 -2.45092773 2.15893555 C-4.55543135 2.40346878 -4.55543135 2.40346878 -6.25488281 3.6730957 Z " fill="#41413C" transform="translate(13.50390625,3.46875)"/>
<path d="M0 0 C2 2 2 2 2.125 5.125 C2.08375 6.07375 2.0425 7.0225 2 8 C3.65 8 5.3 8 7 8 C7 12 7 12 5.1015625 14.359375 C4.28429688 15.14828125 3.46703125 15.9371875 2.625 16.75 C1.81289063 17.54921875 1.00078125 18.3484375 0.1640625 19.171875 C-2 21 -2 21 -4 21 C-4 18.03 -4 15.06 -4 12 C-5.98 12 -7.96 12 -10 12 C-3.84965831 3.55353075 -3.84965831 3.55353075 0 0 Z " fill="#2B302E" transform="translate(19,11)"/>
<path d="M0 0 C1.9375 1.0625 1.9375 1.0625 3 3 C3.36528977 6.4093712 3.6140629 8.88023824 1.9375 11.9375 C-1.11976176 13.6140629 -3.5906288 13.36528977 -7 13 C-9.69786128 11.38128323 -9.97500723 10.07831069 -10.9375 7.0625 C-11 4 -11 4 -9.5 1.625 C-6.1204721 -0.57169314 -3.95601633 -0.50349299 0 0 Z " fill="#42423C" transform="translate(45,24)"/>
<path d="M0 0 C0.33 0 0.66 0 1 0 C1.1953125 6.0546875 1.1953125 6.0546875 1 8 C-1 10 -1 10 -3.06298828 10.22705078 C-4.30411377 10.21134033 -4.30411377 10.21134033 -5.5703125 10.1953125 C-6.46621094 10.18886719 -7.36210937 10.18242188 -8.28515625 10.17578125 C-9.22230469 10.15902344 -10.15945312 10.14226563 -11.125 10.125 C-12.06988281 10.11597656 -13.01476563 10.10695313 -13.98828125 10.09765625 C-16.32577292 10.07404522 -18.66276123 10.04111516 -21 10 C-21.33 9.34 -21.66 8.68 -22 8 C-18.25216291 6.52059062 -14.98590969 5.89221439 -11 5.6875 C-5.79059509 5.27891922 -3.64353169 3.64353169 0 0 Z " fill="#9DA08D" transform="translate(29,29)"/>
<path d="M0 0 C0.66 0.33 1.32 0.66 2 1 C2 2.98 2 4.96 2 7 C3.65 7 5.3 7 7 7 C6.04578192 8.14926266 5.08647955 9.29430541 4.125 10.4375 C3.59132813 11.07558594 3.05765625 11.71367187 2.5078125 12.37109375 C1 14 1 14 -1 15 C-1 12.69 -1 10.38 -1 8 C-2.65 8 -4.3 8 -6 8 C-4.02 5.36 -2.04 2.72 0 0 Z " fill="#D09038" transform="translate(18,14)"/>
<path d="M0 0 C1.67542976 0.28604898 3.34385343 0.61781233 5 1 C5 4.3 5 7.6 5 11 C3.34385343 11.38218767 1.67542976 11.71395102 0 12 C-1 11 -1 11 -1.1328125 8.75 C-1.13023438 7.8425 -1.12765625 6.935 -1.125 6 C-1.12757812 5.0925 -1.13015625 4.185 -1.1328125 3.25 C-1 1 -1 1 0 0 Z " fill="#374732" transform="translate(51,24)"/>
<path d="M0 0 C0.83853516 0.00064453 1.67707031 0.00128906 2.54101562 0.00195312 C3.8490918 0.02612305 3.8490918 0.02612305 5.18359375 0.05078125 C6.05951172 0.04755859 6.93542969 0.04433594 7.83789062 0.04101562 C14.35400694 0.09619444 14.35400694 0.09619444 16.62109375 2.36328125 C16.74609375 4.98828125 16.74609375 4.98828125 16.62109375 7.36328125 C15.94433594 6.70972656 15.26757812 6.05617188 14.5703125 5.3828125 C10.90474098 2.87274565 8.82952366 2.9164483 4.43359375 3.05078125 C3.20253906 3.07527344 1.97148437 3.09976562 0.703125 3.125 C-2.28966225 3.16160182 -2.28966225 3.16160182 -4.37890625 4.36328125 C-5.51241159 6.37997952 -5.51241159 6.37997952 -6.37890625 8.36328125 C-6.70890625 8.36328125 -7.03890625 8.36328125 -7.37890625 8.36328125 C-7.74487784 3.84963159 -7.74487784 3.84963159 -6.14086914 1.71801758 C-3.93573214 0.02253397 -2.75865898 -0.0107138 0 0 Z " fill="#ACAF99" transform="translate(13.37890625,5.63671875)"/>
<path d="M0 0 C1.4540625 0.0309375 1.4540625 0.0309375 2.9375 0.0625 C1.9475 1.5475 1.9475 1.5475 0.9375 3.0625 C0.2775 3.0625 -0.3825 3.0625 -1.0625 3.0625 C-1.0625 4.0525 -1.0625 5.0425 -1.0625 6.0625 C-0.0725 6.0625 0.9175 6.0625 1.9375 6.0625 C2.5975 4.7425 3.2575 3.4225 3.9375 2.0625 C4.2675 2.0625 4.5975 2.0625 4.9375 2.0625 C5.0625 4.4375 5.0625 4.4375 4.9375 7.0625 C2.9375 9.0625 2.9375 9.0625 -0.0625 9.375 C-1.0525 9.271875 -2.0425 9.16875 -3.0625 9.0625 C-5.0625 6.0625 -5.0625 6.0625 -4.75 3.4375 C-3.74055958 -0.0496578 -3.77085022 0.07695613 0 0 Z " fill="#4675A3" transform="translate(41.0625,25.9375)"/>
<path d="M0 0 C1.65 0.33 3.3 0.66 5 1 C5 2.65 5 4.3 5 6 C3.68 6.33 2.36 6.66 1 7 C-0.0625 4.625 -0.0625 4.625 -1 2 C-0.67 1.34 -0.34 0.68 0 0 Z " fill="#5E625D" transform="translate(51,16)"/>
<path d="M0 0 C1.65 0.33 3.3 0.66 5 1 C5 2.65 5 4.3 5 6 C3.68 6.33 2.36 6.66 1 7 C-0.0625 4.625 -0.0625 4.625 -1 2 C-0.67 1.34 -0.34 0.68 0 0 Z " fill="#5E625D" transform="translate(43,16)"/>
<path d="M0 0 C1.65 0.33 3.3 0.66 5 1 C5 2.65 5 4.3 5 6 C3.68 6.33 2.36 6.66 1 7 C-0.0625 4.625 -0.0625 4.625 -1 2 C-0.67 1.34 -0.34 0.68 0 0 Z " fill="#5E615D" transform="translate(35,16)"/>
<path d="M0 0 C-0.33 0.99 -0.66 1.98 -1 3 C-3.64 3 -6.28 3 -9 3 C-9 2.01 -9 1.02 -9 0 C-5.93109813 -1.53445094 -3.29905734 -0.54984289 0 0 Z " fill="#4A4434" transform="translate(18,44)"/>
<path d="M0 0 C0.66 0 1.32 0 2 0 C2.09765625 6.15234375 2.09765625 6.15234375 2 8 C1 9 1 9 -1.5625 9.0625 C-2.366875 9.041875 -3.17125 9.02125 -4 9 C-3.67 8.01 -3.34 7.02 -3 6 C-2.34 5.67 -1.68 5.34 -1 5 C-0.34444881 2.47266765 -0.34444881 2.47266765 0 0 Z " fill="#767D7E" transform="translate(56,30)"/>
<path d="M0 0 C1.65 0 3.3 0 5 0 C4.67 1.65 4.34 3.3 4 5 C2.68 4.67 1.36 4.34 0 4 C0 2.68 0 1.36 0 0 Z " fill="#43433E" transform="translate(49,53)"/>
<path d="M0 0 C2.475 0.495 2.475 0.495 5 1 C4.67 2.32 4.34 3.64 4 5 C2.68 5 1.36 5 0 5 C0 3.35 0 1.7 0 0 Z " fill="#43433E" transform="translate(10,53)"/>
</svg>
