<?xml version="1.0" encoding="UTF-8"?>
<svg version="1.1" xmlns="http://www.w3.org/2000/svg" width="64" height="64">
<path d="M0 0 C0 0.66 0 1.32 0 2 C1.65 1.67 3.3 1.34 5 1 C5.99 2.32 6.98 3.64 8 5 C7.34 5.66 6.68 6.32 6 7 C8.475 7.99 8.475 7.99 11 9 C10.67 9.99 10.34 10.98 10 12 C10.763125 12.226875 11.52625 12.45375 12.3125 12.6875 C17.015912 14.98451516 18.20399537 19.33038796 20 24 C20.5878125 24.928125 20.5878125 24.928125 21.1875 25.875 C22.47174905 29.23380522 21.91733051 31.57529942 21 35 C18.47509808 37.74132208 16.62443632 38.81399769 13.0625 39.875 C9.59364853 40.01658577 7.19856437 39.29465701 4 38 C5.32 41.3 6.64 44.6 8 48 C8.99 46.68 9.98 45.36 11 44 C10.34 43.01 9.68 42.02 9 41 C14.75 41.75 14.75 41.75 17 44 C15.02 44.66 13.04 45.32 11 46 C10.814375 47.051875 10.814375 47.051875 10.625 48.125 C8.81355932 56.45762712 8.81355932 56.45762712 5 59 C5.495 60.98 5.495 60.98 6 63 C3.69 63 1.38 63 -1 63 C-1.495 60.525 -1.495 60.525 -2 58 C-6.455 58.495 -6.455 58.495 -11 59 C-11 60.32 -11 61.64 -11 63 C-13.97 63 -16.94 63 -20 63 C-19 59 -19 59 -17 57 C-17.99 56.01 -18.98 55.02 -20 54 C-19.2575 53.195625 -18.515 52.39125 -17.75 51.5625 C-14.57220484 47.78717071 -12.81062113 43.55184084 -11 39 C-14.01647106 40.21620585 -14.01647106 40.21620585 -17 42 C-17.96044102 44.07690578 -17.96044102 44.07690578 -18 46 C-18.66 45.67 -19.32 45.34 -20 45 C-20.33 45.99 -20.66 46.98 -21 48 C-21.66 48 -22.32 48 -23 48 C-23.495 50.475 -23.495 50.475 -24 53 C-24.33 53 -24.66 53 -25 53 C-25.20086443 49.28400809 -25.1519437 48.22791555 -23 45 C-23.825 44.2575 -24.65 43.515 -25.5 42.75 C-28 40 -28 40 -28 36 C-29.32 35.34 -30.64 34.68 -32 34 C-32 31 -32 28 -32 25 C-31.2575 25.2475 -30.515 25.495 -29.75 25.75 C-28.8425 25.8325 -27.935 25.915 -27 26 C-24.7914234 24.12491838 -24.7914234 24.12491838 -23 22 C-22.34 22 -21.68 22 -21 22 C-20.67 21.34 -20.34 20.68 -20 20 C-20.3125 21.875 -20.3125 21.875 -21 24 C-21.99 24.66 -22.98 25.32 -24 26 C-23.01 26 -22.02 26 -21 26 C-20.34 26 -19.68 26 -19 26 C-19 27.32 -19 28.64 -19 30 C-17.68 30.33 -16.36 30.66 -15 31 C-13.73121406 29.3892395 -13.73121406 29.3892395 -13 27 C-13.7953124 23.29827466 -13.7953124 23.29827466 -15 20 C-15.99 20 -16.98 20 -18 20 C-18.45375 19.484375 -18.9075 18.96875 -19.375 18.4375 C-19.91125 17.963125 -20.4475 17.48875 -21 17 C-23.65466049 17.23043864 -23.65466049 17.23043864 -26 18 C-26 15.36 -26 12.72 -26 10 C-25.01 11.485 -25.01 11.485 -24 13 C-20.91634129 13.2502157 -20.91634129 13.2502157 -18 13 C-18.99 11.02 -19.98 9.04 -21 7 C-19.68 7 -18.36 7 -17 7 C-17 5.68 -17 4.36 -17 3 C-15.35 3.66 -13.7 4.32 -12 5 C-11.9071875 4.071875 -11.9071875 4.071875 -11.8125 3.125 C-11 1 -11 1 -8.8125 -0.3125 C-5.5355169 -1.11354031 -3.26018952 -0.75818361 0 0 Z M10 16 C10 16.66 10 17.32 10 18 C9.01 18.66 8.02 19.32 7 20 C7.33 20.66 7.66 21.32 8 22 C6.35 23.65 4.7 25.3 3 27 C8.37752199 29.52422051 8.37752199 29.52422051 14 29 C16.2391929 25.08141242 16.1487626 22.30785975 15 18 C14.34 17.34 13.68 16.68 13 16 C12.01 16 11.02 16 10 16 Z M-26 38 C-25.28436734 40.0162233 -25.28436734 40.0162233 -24 42 C-21.94999129 42.80528889 -21.94999129 42.80528889 -20 43 C-19.34 42.01 -18.68 41.02 -18 40 C-20.64 39.34 -23.28 38.68 -26 38 Z " fill="#563B37" transform="translate(37,1)"/>
<path d="M0 0 C5.54161916 -0.36944128 5.54161916 -0.36944128 7.5703125 1.265625 C9.07092721 3.08604284 10.0531292 4.80842232 11.0625 6.9375 C11.38347656 7.60652344 11.70445313 8.27554687 12.03515625 8.96484375 C12.35355469 9.63644531 12.67195313 10.30804688 13 11 C13.37125 11.67160156 13.7425 12.34320313 14.125 13.03515625 C15.57186384 16.28414068 14.89975797 18.64090357 14 22 C11.47509808 24.74132208 9.62443632 25.81399769 6.0625 26.875 C2.59364853 27.01658577 0.19856437 26.29465701 -3 25 C-1.68 28.3 -0.36 31.6 1 35 C1.99 33.68 2.98 32.36 4 31 C3.34 30.01 2.68 29.02 2 28 C7.75 28.75 7.75 28.75 10 31 C8.02 31.66 6.04 32.32 4 33 C3.87625 33.70125 3.7525 34.4025 3.625 35.125 C1.81355932 43.45762712 1.81355932 43.45762712 -2 46 C-1.67 47.32 -1.34 48.64 -1 50 C-3.31 50 -5.62 50 -8 50 C-9.0024338 45.01169849 -9.15616103 40.24984667 -9.125 35.1875 C-9.12089111 34.39013428 -9.11678223 33.59276855 -9.11254883 32.77124023 C-8.97396229 18.19283022 -8.97396229 18.19283022 -6.609375 15.296875 C-5 14 -5 14 -2.5625 13.6875 C0.08310263 14.01013447 1.67392888 14.75942874 4 16 C4.99 16 5.98 16 7 16 C7.2226746 14.56465159 7.42761906 13.12654475 7.625 11.6875 C7.74101563 10.88699219 7.85703125 10.08648437 7.9765625 9.26171875 C8.21533407 6.71276785 8.21533407 6.71276785 6 4 C3.94074861 3.27617533 3.94074861 3.27617533 2 3 C2 2.34 2 1.68 2 1 C1.34 0.67 0.68 0.34 0 0 Z " fill="#B48263" transform="translate(44,14)"/>
<path d="M0 0 C0 0.66 0 1.32 0 2 C1.32 2.33 2.64 2.66 4 3 C2.54682061 6.3907519 0.58699688 8.41300312 -2 11 C-2.33 11.99 -2.66 12.98 -3 14 C-2.34 14 -1.68 14 -1 14 C-1 15.32 -1 16.64 -1 18 C-2.98 18.66 -4.96 19.32 -7 20 C-7 21.32 -7 22.64 -7 24 C-6.01 24 -5.02 24 -4 24 C-4 23.34 -4 22.68 -4 22 C-2.68 21.67 -1.36 21.34 0 21 C0.33 21.66 0.66 22.32 1 23 C1.33 22.01 1.66 21.02 2 20 C2.99 20 3.98 20 5 20 C4.67 21.65 4.34 23.3 4 25 C2.02 25.66 0.04 26.32 -2 27 C-2 27.66 -2 28.32 -2 29 C-10.2784 29.3184 -10.2784 29.3184 -13 27 C-14.25 23.375 -14.25 23.375 -15 20 C-15.99 20 -16.98 20 -18 20 C-18.45375 19.484375 -18.9075 18.96875 -19.375 18.4375 C-19.91125 17.963125 -20.4475 17.48875 -21 17 C-23.65466049 17.23043864 -23.65466049 17.23043864 -26 18 C-26 15.36 -26 12.72 -26 10 C-25.01 11.485 -25.01 11.485 -24 13 C-20.91634129 13.2502157 -20.91634129 13.2502157 -18 13 C-18.99 11.02 -19.98 9.04 -21 7 C-19.68 7 -18.36 7 -17 7 C-17 5.68 -17 4.36 -17 3 C-14.525 3.99 -14.525 3.99 -12 5 C-11.938125 4.38125 -11.87625 3.7625 -11.8125 3.125 C-11 1 -11 1 -8.8125 -0.3125 C-5.5355169 -1.11354031 -3.26018952 -0.75818361 0 0 Z " fill="#716775" transform="translate(37,1)"/>
<path d="M0 0 C0.33 0.99 0.66 1.98 1 3 C-0.32 3.99 -1.64 4.98 -3 6 C-2.01 6 -1.02 6 0 6 C0.66 6 1.32 6 2 6 C2 7.32 2 8.64 2 10 C5.05263664 10.98120464 6.94736336 10.98120464 10 10 C10.36521739 15.47826087 10.36521739 15.47826087 8.6875 17.875 C7 19 7 19 4 19 C4 21.31 4 23.62 4 26 C3.01 25.67 2.02 25.34 1 25 C0.67 25.99 0.34 26.98 0 28 C-0.66 28 -1.32 28 -2 28 C-2.33 29.65 -2.66 31.3 -3 33 C-3.33 33 -3.66 33 -4 33 C-4.20086443 29.28400809 -4.1519437 28.22791555 -2 25 C-2.825 24.2575 -3.65 23.515 -4.5 22.75 C-7 20 -7 20 -7 16 C-8.32 15.34 -9.64 14.68 -11 14 C-11 11 -11 8 -11 5 C-10.2575 5.2475 -9.515 5.495 -8.75 5.75 C-7.8425 5.8325 -6.935 5.915 -6 6 C-3.7914234 4.12491838 -3.7914234 4.12491838 -2 2 C-1.34 2 -0.68 2 0 2 C0 1.34 0 0.68 0 0 Z M-5 18 C-4.28436734 20.0162233 -4.28436734 20.0162233 -3 22 C-0.94999129 22.80528889 -0.94999129 22.80528889 1 23 C1.66 22.01 2.32 21.02 3 20 C0.36 19.34 -2.28 18.68 -5 18 Z " fill="#988E86" transform="translate(16,21)"/>
<path d="M0 0 C0.66 0.33 1.32 0.66 2 1 C0.54682061 4.3907519 -1.41300312 6.41300312 -4 9 C-4.33 9.99 -4.66 10.98 -5 12 C-4.34 12 -3.68 12 -3 12 C-3 13.32 -3 14.64 -3 16 C-4.98 16.66 -6.96 17.32 -9 18 C-9 19.32 -9 20.64 -9 22 C-8.01 22 -7.02 22 -6 22 C-6 21.34 -6 20.68 -6 20 C-4.68 19.67 -3.36 19.34 -2 19 C-1.67 19.66 -1.34 20.32 -1 21 C-0.67 20.01 -0.34 19.02 0 18 C0.99 18 1.98 18 3 18 C2.67 19.65 2.34 21.3 2 23 C0.02 23.66 -1.96 24.32 -4 25 C-4 25.66 -4 26.32 -4 27 C-10.625 27.25 -10.625 27.25 -14 25 C-14.1875 22.375 -14.1875 22.375 -14 20 C-13.34 20 -12.68 20 -12 20 C-11.67 19.34 -11.34 18.68 -11 18 C-12.32 17.67 -13.64 17.34 -15 17 C-14.505 15.515 -14.505 15.515 -14 14 C-13.01 14 -12.02 14 -11 14 C-10.938125 13.113125 -10.87625 12.22625 -10.8125 11.3125 C-9.56443377 6.22422997 -6.49360683 4.04205128 -2.3125 1.125 C-1.549375 0.75375 -0.78625 0.3825 0 0 Z " fill="#E6CFAD" transform="translate(39,3)"/>
<path d="M0 0 C0.99 0 1.98 0 3 0 C4.6875 2 4.6875 2 6 4 C5.34 4.66 4.68 5.32 4 6 C6.475 6.99 6.475 6.99 9 8 C8 11 8 11 6 12 C6.99 13.65 7.98 15.3 9 17 C8.01 17.66 7.02 18.32 6 19 C6.33 19.66 6.66 20.32 7 21 C5.68 21 4.36 21 3 21 C3 20.34 3 19.68 3 19 C2.01 19 1.02 19 0 19 C-0.33 20.32 -0.66 21.64 -1 23 C-1.99 23 -2.98 23 -4 23 C-4 22.34 -4 21.68 -4 21 C-4.66 21 -5.32 21 -6 21 C-6 21.66 -6 22.32 -6 23 C-6.99 23 -7.98 23 -9 23 C-9.625 21.125 -9.625 21.125 -10 19 C-8 17 -8 17 -5.375 16.875 C-4.59125 16.91625 -3.8075 16.9575 -3 17 C-3 15.68 -3 14.36 -3 13 C-3.66 13 -4.32 13 -5 13 C-4.63561004 9.84195372 -3.43953462 8.23079192 -1.375 5.9375 C-0.59125 4.968125 0.1925 3.99875 1 3 C0.67 2.01 0.34 1.02 0 0 Z " fill="#5C4957" transform="translate(39,2)"/>
<path d="M0 0 C2.31 0.33 4.62 0.66 7 1 C7 1.66 7 2.32 7 3 C7.66 3.33 8.32 3.66 9 4 C6.03 3.505 6.03 3.505 3 3 C4.32 6.3 5.64 9.6 7 13 C7.99 11.68 8.98 10.36 10 9 C9.34 8.01 8.68 7.02 8 6 C13.75 6.75 13.75 6.75 16 9 C14.02 9.66 12.04 10.32 10 11 C9.87625 11.70125 9.7525 12.4025 9.625 13.125 C7.81355932 21.45762712 7.81355932 21.45762712 4 24 C4.33 25.32 4.66 26.64 5 28 C2.69 28 0.38 28 -2 28 C-2 25.69 -2 23.38 -2 21 C-0.35 21 1.3 21 3 21 C2.84660156 20.45859375 2.69320312 19.9171875 2.53515625 19.359375 C1.92128392 16.65295977 1.66791243 14.0149491 1.4375 11.25 C1.35371094 10.26515625 1.26992188 9.2803125 1.18359375 8.265625 C1.12300781 7.51796875 1.06242187 6.7703125 1 6 C0.34 6 -0.32 6 -1 6 C-0.67 4.02 -0.34 2.04 0 0 Z " fill="#95CBCE" transform="translate(38,36)"/>
<path d="M0 0 C0.33 0.99 0.66 1.98 1 3 C1.928125 2.690625 1.928125 2.690625 2.875 2.375 C3.926875 2.189375 3.926875 2.189375 5 2 C5.66 2.66 6.32 3.32 7 4 C6.625 6.125 6.625 6.125 6 8 C5.21625 8.144375 4.4325 8.28875 3.625 8.4375 C1.03578982 8.87798925 1.03578982 8.87798925 -1 10 C-1.65213292 12.02463255 -1.65213292 12.02463255 -2 14 C-1.34 14 -0.68 14 0 14 C2.10428384 19.12919186 2.21755666 23.5610835 2 29 C0.02 29.33 -1.96 29.66 -4 30 C-4.24860186 4.39400866 -4.24860186 4.39400866 -1.45703125 1.27734375 C-0.73580078 0.64505859 -0.73580078 0.64505859 0 0 Z " fill="#A89F9C" transform="translate(39,28)"/>
<path d="M0 0 C0.99 0 1.98 0 3 0 C3.33 1.65 3.66 3.3 4 5 C4.99 5 5.98 5 7 5 C6.67 5.99 6.34 6.98 6 8 C5.01 7.67 4.02 7.34 3 7 C2.34 10.3 1.68 13.6 1 17 C1.99 17.33 2.98 17.66 4 18 C3.6875 19.875 3.6875 19.875 3 22 C2.01 22.66 1.02 23.32 0 24 C-0.33 24.99 -0.66 25.98 -1 27 C-3.64 26.67 -6.28 26.34 -9 26 C-9 22.0345034 -7.47149789 21.03641169 -5 18 C-3.95548562 16.02288349 -2.94301862 14.02749004 -2 12 C-1.34 12 -0.68 12 0 12 C0 8.04 0 4.08 0 0 Z " fill="#72686A" transform="translate(27,31)"/>
<path d="M0 0 C0.99 0 1.98 0 3 0 C3.36521739 5.47826087 3.36521739 5.47826087 1.6875 7.875 C0 9 0 9 -3 9 C-3 11.31 -3 13.62 -3 16 C-3.99 15.67 -4.98 15.34 -6 15 C-6.33 15.99 -6.66 16.98 -7 18 C-7.66 18 -8.32 18 -9 18 C-9.33 19.65 -9.66 21.3 -10 23 C-10.33 23 -10.66 23 -11 23 C-11.20086443 19.28400809 -11.1519437 18.22791555 -9 15 C-9.825 14.236875 -10.65 13.47375 -11.5 12.6875 C-14 10 -14 10 -14 7 C-13.34 7 -12.68 7 -12 7 C-11.7525 7.639375 -11.505 8.27875 -11.25 8.9375 C-10.18437567 11.18741541 -10.18437567 11.18741541 -7.875 11.75 C-7.25625 11.8325 -6.6375 11.915 -6 12 C-5.34 10.68 -4.68 9.36 -4 8 C-5.05270463 6.84188612 -5.05270463 6.84188612 -7 6 C-7 4.35 -7 2.7 -7 1 C-5.5459375 1.0309375 -5.5459375 1.0309375 -4.0625 1.0625 C-1.12534105 1.35618499 -1.12534105 1.35618499 0 0 Z " fill="#9E9E96" transform="translate(23,31)"/>
<path d="M0 0 C0.33 0.66 0.66 1.32 1 2 C2.65 2 4.3 2 6 2 C6.46001702 5.14344966 6.48859148 7.2444928 4.734375 9.95703125 C3.22393893 11.75708978 1.76851892 13.45140053 0 15 C-0.66 15 -1.32 15 -2 15 C-2 16.32 -2 17.64 -2 19 C-4.97 19 -7.94 19 -11 19 C-9.70967742 13.83870968 -9.70967742 13.83870968 -7 12 C-4.3125 12.3125 -4.3125 12.3125 -2 13 C-2 11.02 -2 9.04 -2 7 C-1.34 7.66 -0.68 8.32 0 9 C0.66 8.34 1.32 7.68 2 7 C2 6.01 2 5.02 2 4 C1.34 3.67 0.68 3.34 0 3 C0 2.01 0 1.02 0 0 Z " fill="#5C4E65" transform="translate(28,45)"/>
<path d="M0 0 C0.99 0 1.98 0 3 0 C4.6875 2 4.6875 2 6 4 C5.34 4.66 4.68 5.32 4 6 C4.99 6.33 5.98 6.66 7 7 C6 10 6 10 3.9375 11.1875 C3.298125 11.455625 2.65875 11.72375 2 12 C2 13.32 2 14.64 2 16 C0.68 15.67 -0.64 15.34 -2 15 C-2 14.34 -2 13.68 -2 13 C-2.99 13 -3.98 13 -5 13 C-4.63561004 9.84195372 -3.43953462 8.23079192 -1.375 5.9375 C-0.59125 4.968125 0.1925 3.99875 1 3 C0.67 2.01 0.34 1.02 0 0 Z " fill="#504358" transform="translate(39,2)"/>
<path d="M0 0 C2.71675995 0.36712972 4.61063713 0.72744599 6.875 2.3125 C8 4 8 4 7.6875 6.1875 C7.3471875 7.0846875 7.3471875 7.0846875 7 8 C6.360625 8.103125 5.72125 8.20625 5.0625 8.3125 C4.381875 8.539375 3.70125 8.76625 3 9 C2.67 9.99 2.34 10.98 2 12 C1.4121875 11.2265625 1.4121875 11.2265625 0.8125 10.4375 C-0.0846875 9.7259375 -0.0846875 9.7259375 -1 9 C-3.65466049 9.23043864 -3.65466049 9.23043864 -6 10 C-6 7.36 -6 4.72 -6 2 C-5.01 3.485 -5.01 3.485 -4 5 C-0.91634129 5.2502157 -0.91634129 5.2502157 2 5 C1.34 3.35 0.68 1.7 0 0 Z " fill="#928893" transform="translate(17,9)"/>
<path d="M0 0 C3.8324594 0.67631636 7.45105361 1.37982882 11 3 C12.9375 5.9375 12.9375 5.9375 14 9 C13.67 9.99 13.34 10.98 13 12 C11.02 12.33 9.04 12.66 7 13 C7 12.34 7 11.68 7 11 C6.34 11 5.68 11 5 11 C3.95550089 7.86650268 4.06576355 7.01031744 5 4 C3.35 3.67 1.7 3.34 0 3 C0 2.01 0 1.02 0 0 Z " fill="#938982" transform="translate(40,28)"/>
<path d="M0 0 C0.66 0.33 1.32 0.66 2 1 C0.91803946 3.5245746 -0.00633756 5.00576142 -2.0625 6.875 C-4.4790362 9.52539454 -4.68060224 11.48662462 -5 15 C-6.65 14.67 -8.3 14.34 -10 14 C-10.6875 12.3125 -10.6875 12.3125 -11 10 C-9.15839833 5.90755185 -6.64691362 3.55283954 -3 1 C-2.01 0.67 -1.02 0.34 0 0 Z " fill="#AE9CA5" transform="translate(39,3)"/>
<path d="M0 0 C0.66 0 1.32 0 2 0 C4.10428384 5.12919186 4.21755666 9.5610835 4 15 C2.02 15.33 0.04 15.66 -2 16 C-2.05423638 14.08364783 -2.09289963 12.16685075 -2.125 10.25 C-2.14820313 9.18265625 -2.17140625 8.1153125 -2.1953125 7.015625 C-2.00487687 4.07529894 -1.52670104 2.47638122 0 0 Z " fill="#E8F9EC" transform="translate(37,42)"/>
<path d="M0 0 C2.31 0.33 4.62 0.66 7 1 C7 1.66 7 2.32 7 3 C7.66 3.33 8.32 3.66 9 4 C6.03 3.505 6.03 3.505 3 3 C3.22816406 3.59167969 3.45632812 4.18335938 3.69140625 4.79296875 C6.68621793 13.02534345 6.68621793 13.02534345 5 17 C4.01 17.66 3.02 18.32 2 19 C2.020625 17.96875 2.04125 16.9375 2.0625 15.875 C2.00723339 12.44847031 1.65449285 9.35427586 1 6 C0.34 6 -0.32 6 -1 6 C-0.67 4.02 -0.34 2.04 0 0 Z " fill="#918782" transform="translate(38,36)"/>
<path d="M0 0 C0.66 0.33 1.32 0.66 2 1 C2.103125 1.598125 2.20625 2.19625 2.3125 2.8125 C2.86116913 5.28170694 2.86116913 5.28170694 5.5625 7 C6.366875 7.66 7.17125 8.32 8 9 C8 10.32 8 11.64 8 13 C7.01 13.33 6.02 13.66 5 14 C4.67 14.66 4.34 15.32 4 16 C5.32 16.33 6.64 16.66 8 17 C6.79618552 19.49361571 5.54571278 21.68143083 4 24 C3.71125 22.906875 3.4225 21.81375 3.125 20.6875 C2.18106796 16.95986155 2.18106796 16.95986155 0 14 C1.32 13.67 2.64 13.34 4 13 C3.42547254 9.06924356 3.42547254 9.06924356 1 6 C-1.57061311 5.35232207 -1.57061311 5.35232207 -4 5 C-2.68 4.67 -1.36 4.34 0 4 C0 2.68 0 1.36 0 0 Z " fill="#4A3E4E" transform="translate(20,4)"/>
<path d="M0 0 C-0.33 3.63 -0.66 7.26 -1 11 C-3.64 10.67 -6.28 10.34 -9 10 C-9 6.02621451 -7.65246343 4.87350205 -5 2 C-1.66666667 0 -1.66666667 0 0 0 Z " fill="#C7CEC3" transform="translate(27,47)"/>
<path d="M0 0 C1.32 0.66 2.64 1.32 4 2 C4 2.99 4 3.98 4 5 C4.66 5.33 5.32 5.66 6 6 C6 6.99 6 7.98 6 9 C6.99 9 7.98 9 9 9 C9 9.99 9 10.98 9 12 C8.01 12.33 7.02 12.66 6 13 C2.8125 11.375 2.8125 11.375 0 9 C-0.375 6.5 -0.375 6.5 0 4 C0 2.68 0 1.36 0 0 Z " fill="#8E644E" transform="translate(5,26)"/>
<path d="M0 0 C0.33 0 0.66 0 1 0 C1 6.27 1 12.54 1 19 C-1.31 19.33 -3.62 19.66 -6 20 C-5.1875 18.0625 -5.1875 18.0625 -4 16 C-3.01 15.67 -2.02 15.34 -1 15 C-0.67 12.36 -0.34 9.72 0 7 C-1.65 7 -3.3 7 -5 7 C-5 5.35 -5 3.7 -5 2 C-3.68 3.32 -2.36 4.64 -1 6 C-1 5.34 -1 4.68 -1 4 C-1.66 3.67 -2.32 3.34 -3 3 C-2.01 3 -1.02 3 0 3 C0 2.01 0 1.02 0 0 Z " fill="#202B20" transform="translate(34,40)"/>
<path d="M0 0 C0.66 0 1.32 0 2 0 C2.2475 0.639375 2.495 1.27875 2.75 1.9375 C3.81562433 4.18741541 3.81562433 4.18741541 6.125 4.75 C6.74375 4.8325 7.3625 4.915 8 5 C8.66 3.68 9.32 2.36 10 1 C10.66 1.33 11.32 1.66 12 2 C11.67 4.31 11.34 6.62 11 9 C10.01 8.67 9.02 8.34 8 8 C7.67 8.99 7.34 9.98 7 11 C6.34 11 5.68 11 5 11 C4.67 12.65 4.34 14.3 4 16 C3.67 16 3.34 16 3 16 C2.79913557 12.28400809 2.8480563 11.22791555 5 8 C3.7625 6.8553125 3.7625 6.8553125 2.5 5.6875 C0 3 0 3 0 0 Z " fill="#B5F6F9" transform="translate(9,38)"/>
<path d="M0 0 C2.475 0.99 2.475 0.99 5 2 C5 3.65 5 5.3 5 7 C2.03 7 -0.94 7 -4 7 C-3.04065919 3.16263678 -2.76390737 2.40339772 0 0 Z " fill="#2A201E" transform="translate(21,57)"/>
<path d="M0 0 C2.97 0.495 2.97 0.495 6 1 C6.33 2.98 6.66 4.96 7 7 C4.69 7 2.38 7 0 7 C0 4.69 0 2.38 0 0 Z " fill="#422B23" transform="translate(36,57)"/>
<path d="M0 0 C0.33 0.99 0.66 1.98 1 3 C-0.32 3.99 -1.64 4.98 -3 6 C-2.835 6.5775 -2.67 7.155 -2.5 7.75 C-2 10 -2 10 -2 14 C-2.99 14 -3.98 14 -5 14 C-5 13.01 -5 12.02 -5 11 C-5.99 10.67 -6.98 10.34 -8 10 C-6.55922954 6.63820226 -4.75249979 4.40843732 -2 2 C-1.34 2 -0.68 2 0 2 C0 1.34 0 0.68 0 0 Z " fill="#B0AB97" transform="translate(16,21)"/>
<path d="M0 0 C0.99 0 1.98 0 3 0 C3.33 1.65 3.66 3.3 4 5 C4.99 5 5.98 5 7 5 C6.67 5.99 6.34 6.98 6 8 C5.01 7.67 4.02 7.34 3 7 C2.67 9.31 2.34 11.62 2 14 C-0.28062828 10.57905758 -0.21925007 9.31812778 -0.125 5.3125 C-0.10695313 4.31863281 -0.08890625 3.32476562 -0.0703125 2.30078125 C-0.04710938 1.54152344 -0.02390625 0.78226563 0 0 Z " fill="#C5D3A3" transform="translate(27,31)"/>
<path d="M0 0 C5.42553191 -0.36170213 5.42553191 -0.36170213 7.6875 1.0625 C9.59703368 3.88133543 10.74584958 6.83476323 12 10 C10.68 10.99 9.36 11.98 8 13 C8.04125 12.071875 8.0825 11.14375 8.125 10.1875 C8.27136339 6.84190281 8.27136339 6.84190281 6 4 C3.94074861 3.27617533 3.94074861 3.27617533 2 3 C2 2.34 2 1.68 2 1 C1.34 0.67 0.68 0.34 0 0 Z " fill="#B6F6F9" transform="translate(44,14)"/>
<path d="M0 0 C1.32 0 2.64 0 4 0 C3.125 7.625 3.125 7.625 2 11 C1.01 10.67 0.02 10.34 -1 10 C-1.33 7.03 -1.66 4.06 -2 1 C-0.02 1.99 -0.02 1.99 2 3 C2.33 2.34 2.66 1.68 3 1 C2.01 0.67 1.02 0.34 0 0 Z " fill="#4F6B41" transform="translate(31,35)"/>
<path d="M0 0 C0.33 0.66 0.66 1.32 1 2 C1.66 2 2.32 2 3 2 C3.12375 2.639375 3.2475 3.27875 3.375 3.9375 C3.684375 4.9584375 3.684375 4.9584375 4 6 C4.66 6.33 5.32 6.66 6 7 C6.33 5.02 6.66 3.04 7 1 C7.33 1 7.66 1 8 1 C7.75 4.375 7.75 4.375 7 8 C4.9375 9.4375 4.9375 9.4375 3 10 C0 6.375 0 6.375 0 3 C-0.99 2.67 -1.98 2.34 -3 2 C-2.01 2 -1.02 2 0 2 C0 1.34 0 0.68 0 0 Z " fill="#60392A" transform="translate(51,28)"/>
<path d="M0 0 C-1.63412443 1.70840281 -2.86906094 2.93453047 -5 4 C-5 5.32 -5 6.64 -5 8 C-6.32 7.67 -7.64 7.34 -9 7 C-9.33 5.68 -9.66 4.36 -10 3 C-6.68152292 -0.06320961 -4.44849969 -0.3033068 0 0 Z " fill="#B7A7B5" transform="translate(46,10)"/>
<path d="M0 0 C1.0326802 2.78823655 1.04509293 3.8677274 0.0625 6.75 C-0.288125 7.4925 -0.63875 8.235 -1 9 C-3.31 7.35 -5.62 5.7 -8 4 C-7.67 3.01 -7.34 2.02 -7 1 C-7 1.66 -7 2.32 -7 3 C-5.35 3.33 -3.7 3.66 -2 4 C-1.34 2.68 -0.68 1.36 0 0 Z " fill="#C2B6C0" transform="translate(29,4)"/>
<path d="M0 0 C2.31 0.33 4.62 0.66 7 1 C7 1.66 7 2.32 7 3 C7.66 3.33 8.32 3.66 9 4 C6.03 3.505 6.03 3.505 3 3 C3.33 4.98 3.66 6.96 4 9 C1.8614515 6.8614515 1.57344937 5.86724686 1 3 C0.34 3.99 -0.32 4.98 -1 6 C-0.67 4.02 -0.34 2.04 0 0 Z " fill="#4C454C" transform="translate(38,36)"/>
<path d="M0 0 C0.99 0.33 1.98 0.66 3 1 C2.7834375 2.2684375 2.7834375 2.2684375 2.5625 3.5625 C2.16854107 5.97002679 1.84062276 8.38885881 1.5625 10.8125 C1.376875 11.864375 1.19125 12.91625 1 14 C0.01 14.495 0.01 14.495 -1 15 C-0.67 10.05 -0.34 5.1 0 0 Z " fill="#D4D6CC" transform="translate(36,31)"/>
<path d="M0 0 C0.78375 0.04125 1.5675 0.0825 2.375 0.125 C2.375 2.105 2.375 4.085 2.375 6.125 C2.045 5.465 1.715 4.805 1.375 4.125 C0.715 4.125 0.055 4.125 -0.625 4.125 C-0.625 4.785 -0.625 5.445 -0.625 6.125 C-1.615 6.125 -2.605 6.125 -3.625 6.125 C-4.25 4.25 -4.25 4.25 -4.625 2.125 C-2.625 0.125 -2.625 0.125 0 0 Z " fill="#3A2E30" transform="translate(33.625,18.875)"/>
<path d="M0 0 C0 0.99 0 1.98 0 3 C1.32 3.33 2.64 3.66 4 4 C2.79618552 6.49361571 1.54571278 8.68143083 0 11 C-0.433125 9.3603125 -0.433125 9.3603125 -0.875 7.6875 C-1.81893204 3.95986155 -1.81893204 3.95986155 -4 1 C-2 0 -2 0 0 0 Z " fill="#483536" transform="translate(24,17)"/>
<path d="M0 0 C0.99 1.485 0.99 1.485 2 3 C5.58357241 3.25015873 5.58357241 3.25015873 9 3 C8.67 3.99 8.34 4.98 8 6 C6.15234375 6.73046875 6.15234375 6.73046875 3.9375 7.1875 C3.20402344 7.34605469 2.47054688 7.50460938 1.71484375 7.66796875 C0.86599609 7.83232422 0.86599609 7.83232422 0 8 C0 5.36 0 2.72 0 0 Z " fill="#AFF4F8" transform="translate(11,11)"/>
<path d="M0 0 C0 1.65 0 3.3 0 5 C-0.66 5 -1.32 5 -2 5 C-2 5.99 -2 6.98 -2 8 C-2.66 8 -3.32 8 -4 8 C-4 6.68 -4 5.36 -4 4 C-4.66 3.67 -5.32 3.34 -6 3 C-5.34 3 -4.68 3 -4 3 C-4 2.34 -4 1.68 -4 1 C-2 0 -2 0 0 0 Z " fill="#90644D" transform="translate(18,27)"/>
<path d="M0 0 C0.99 0 1.98 0 3 0 C2.8125 2.375 2.8125 2.375 2 5 C-0.5625 6.3125 -0.5625 6.3125 -3 7 C-3.33 6.01 -3.66 5.02 -4 4 C-3.34 3.01 -2.68 2.02 -2 1 C-1.67 1.66 -1.34 2.32 -1 3 C-0.67 2.01 -0.34 1.02 0 0 Z " fill="#DDA076" transform="translate(39,21)"/>
<path d="M0 0 C0 2.97 0 5.94 0 9 C-0.33 9 -0.66 9 -1 9 C-1 7.35 -1 5.7 -1 4 C-2.65 3.67 -4.3 3.34 -6 3 C-6 2.34 -6 1.68 -6 1 C-1.125 0 -1.125 0 0 0 Z " fill="#2E4F2A" transform="translate(36,31)"/>
<path d="M0 0 C0.66 0 1.32 0 2 0 C2.36666667 5.5 2.36666667 5.5 0.625 7.875 C-1 9 -1 9 -3 9 C-3 7.68 -3 6.36 -3 5 C-2.34 4.67 -1.68 4.34 -1 4 C-0.34786708 1.97536745 -0.34786708 1.97536745 0 0 Z " fill="#C6C7BC" transform="translate(24,31)"/>
<path d="M0 0 C0.99 0 1.98 0 3 0 C3.33 1.98 3.66 3.96 4 6 C2.35 5.67 0.7 5.34 -1 5 C-0.67 3.35 -0.34 1.7 0 0 Z " fill="#E7EFE1" transform="translate(48,31)"/>
<path d="M0 0 C0.99 0 1.98 0 3 0 C4.6875 2 4.6875 2 6 4 C2.25 7 2.25 7 0 7 C0.185625 6.21625 0.37125 5.4325 0.5625 4.625 C1.25962266 2.02910225 1.25962266 2.02910225 0 0 Z " fill="#3D3643" transform="translate(39,2)"/>
<path d="M0 0 C0 1.98 0 3.96 0 6 C-0.33 5.01 -0.66 4.02 -1 3 C-2.98 3.66 -4.96 4.32 -7 5 C-7 4.34 -7 3.68 -7 3 C-4.4385343 0.70351351 -3.52032428 0 0 0 Z " fill="#332D37" transform="translate(27,37)"/>
<path d="M0 0 C1.32 0.33 2.64 0.66 4 1 C4 1.99 4 2.98 4 4 C2.02 4 0.04 4 -2 4 C-1.34 2.68 -0.68 1.36 0 0 Z " fill="#713C24" transform="translate(21,59)"/>
<path d="M0 0 C0.33 0.66 0.66 1.32 1 2 C2.65 2 4.3 2 6 2 C6 3.32 6 4.64 6 6 C3 6 3 6 1.3125 4.6875 C0 3 0 3 0 0 Z " fill="#6E6070" transform="translate(28,45)"/>
<path d="M0 0 C1.32 0 2.64 0 4 0 C3.67 2.31 3.34 4.62 3 7 C1.68 6.34 0.36 5.68 -1 5 C-0.67 4.34 -0.34 3.68 0 3 C0.66 3 1.32 3 2 3 C2.33 2.34 2.66 1.68 3 1 C2.01 0.67 1.02 0.34 0 0 Z " fill="#7EA830" transform="translate(31,35)"/>
<path d="M0 0 C1.32 0.66 2.64 1.32 4 2 C3.34 3.32 2.68 4.64 2 6 C1.01 5.67 0.02 5.34 -1 5 C-0.67 3.35 -0.34 1.7 0 0 Z " fill="#F2FEF0" transform="translate(42,30)"/>
<path d="M0 0 C3.37462715 0.54723683 5.08235 1.0549 8 3 C7.67 3.99 7.34 4.98 7 6 C7 5.34 7 4.68 7 4 C4.69 3.67 2.38 3.34 0 3 C0 2.01 0 1.02 0 0 Z " fill="#5C5557" transform="translate(40,28)"/>
<path d="M0 0 C-1 3 -1 3 -3 4 C-2.67 4.99 -2.34 5.98 -2 7 C-2.99 7 -3.98 7 -5 7 C-5.1875 4.625 -5.1875 4.625 -5 2 C-2 0 -2 0 0 0 Z " fill="#28242B" transform="translate(48,10)"/>
<path d="M0 0 C0.99 0.33 1.98 0.66 3 1 C2.6875 2.875 2.6875 2.875 2 5 C1.01 5.66 0.02 6.32 -1 7 C-0.67 4.69 -0.34 2.38 0 0 Z " fill="#B5A99E" transform="translate(28,48)"/>
<path d="M0 0 C0.99 0.66 1.98 1.32 3 2 C2.01 2.33 1.02 2.66 0 3 C0 4.32 0 5.64 0 7 C-1.65 6.67 -3.3 6.34 -5 6 C-4.67 5.34 -4.34 4.68 -4 4 C-3.34 4.33 -2.68 4.66 -2 5 C-1.7834375 4.0409375 -1.7834375 4.0409375 -1.5625 3.0625 C-1 1 -1 1 0 0 Z " fill="#433E46" transform="translate(27,1)"/>
<path d="M0 0 C1.125 3.75 1.125 3.75 0 6 C-0.66 4.68 -1.32 3.36 -2 2 C-1.34 1.34 -0.68 0.68 0 0 Z " fill="#B8F7F9" transform="translate(10,19)"/>
<path d="" fill="#9FECF2" transform="translate(0,0)"/>
<path d="" fill="#C5FEFF" transform="translate(0,0)"/>
<path d="" fill="#C5FEFF" transform="translate(0,0)"/>
<path d="" fill="#7ADAE6" transform="translate(0,0)"/>
<path d="" fill="#7BE0E9" transform="translate(0,0)"/>
<path d="" fill="#C5FEFF" transform="translate(0,0)"/>
<path d="" fill="#7ADAE6" transform="translate(0,0)"/>
</svg>
