<?xml version="1.0" encoding="UTF-8"?>
<svg version="1.1" xmlns="http://www.w3.org/2000/svg" width="64" height="64">
<path d="M0 0 C2.07913879 4.41816993 3 7.11487028 3 12 C3.99 12.66 4.98 13.32 6 14 C6.66 13.34 7.32 12.68 8 12 C7.34 11.34 6.68 10.68 6 10 C6.1951463 6.9427079 6.53710397 4.73088847 8.1875 2.125 C10.87157413 0.45902295 12.90792244 0.67790859 16 1 C16.99 1.66 17.98 2.32 19 3 C18.89300781 3.68707031 18.78601562 4.37414062 18.67578125 5.08203125 C18.55589844 5.98308594 18.43601563 6.88414063 18.3125 7.8125 C18.12107422 9.15248047 18.12107422 9.15248047 17.92578125 10.51953125 C18.01944961 13.65002639 18.84681534 13.87307369 21 16 C21.80078125 19.03125 21.80078125 19.03125 22.3125 22.5 C22.49425781 23.6446875 22.67601562 24.789375 22.86328125 25.96875 C23 29 23 29 21 32 C20.74257815 33.99501931 20.48823827 35.99090647 20.28515625 37.9921875 C19.92522329 40.52650999 19.08285428 42.68991088 18 45 C18.99 45.99 19.98 46.98 21 48 C19.21873911 49.78126089 16.60537435 49.42034316 14.1875 49.625 C13.12917969 49.72039063 12.07085937 49.81578125 10.98046875 49.9140625 C8.25823349 49.99255421 6.58820146 49.65184333 4 49 C1.34280294 48.90337465 -1.28118577 48.85937462 -3.9375 48.875 C-4.68660645 48.8747583 -5.43571289 48.8745166 -6.20751953 48.87426758 C-12.00693361 48.90571241 -17.70355688 49.35272422 -23.4609375 50.07421875 C-26 50 -26 50 -27.8515625 48.51953125 C-28.23054688 48.01808594 -28.60953125 47.51664063 -29 47 C-27.515 46.505 -27.515 46.505 -26 46 C-26.10828125 45.14728516 -26.10828125 45.14728516 -26.21875 44.27734375 C-26.66927828 40.52919872 -26.99954005 36.97194335 -26.9375 33.1875 C-26.75172846 30.09768212 -26.75172846 30.09768212 -28.0625 28.0625 C-29.63631451 24.60010807 -28.71336245 21.685706 -28 18 C-27.34 17.34 -26.68 16.68 -26 16 C-25.42214485 13.74422472 -25.04962025 11.48659704 -24.66015625 9.19140625 C-23.89880179 6.66406986 -23.07376478 5.60615116 -21 4 C-18.4375 3.6875 -18.4375 3.6875 -16 4 C-13.60236815 6.39763185 -13.65719414 7.33273498 -13.375 10.625 C-13.30023438 11.44226562 -13.22546875 12.25953125 -13.1484375 13.1015625 C-13.07496094 14.04128906 -13.07496094 14.04128906 -13 15 C-12.34 15 -11.68 15 -11 15 C-8.52976826 11.29465239 -8.93021152 9.43592896 -9.22265625 5.15625 C-9 3 -9 3 -7.6953125 1.23046875 C-5.18346872 -0.59264367 -3.01133894 -0.20075593 0 0 Z M4 26 C2.29724251 29.40551498 2.98801784 33.20964743 3.0625 36.95703125 C3.00452802 39.77954223 2.64827185 42.26003853 2 45 C3.65 45.33 5.3 45.66 7 46 C7.33 45.01 7.66 44.02 8 43 C7.67 42.34 7.34 41.68 7 41 C6.6087065 38.45802036 6.25520881 35.92608411 5.9375 33.375 C5.84662109 32.66859375 5.75574219 31.9621875 5.66210938 31.234375 C5.43816881 29.4899959 5.21866182 27.74504866 5 26 C4.67 26 4.34 26 4 26 Z M-13 32 C-13.06058594 32.59167969 -13.12117188 33.18335938 -13.18359375 33.79296875 C-13.62012371 37.90978208 -14.08671346 41.95544533 -15 46 C-13.02 45.34 -11.04 44.68 -9 44 C-9.66 40.04 -10.32 36.08 -11 32 C-11.66 32 -12.32 32 -13 32 Z M-20 40 C-22.2773501 42.81509993 -22.2773501 42.81509993 -22 46 C-21.01 46 -20.02 46 -19 46 C-19 44.02 -19 42.04 -19 40 C-19.33 40 -19.66 40 -20 40 Z M-4 40 C-4.33 41.65 -4.66 43.3 -5 45 C-4.01 45 -3.02 45 -2 45 C-2.33 43.35 -2.66 41.7 -3 40 C-3.33 40 -3.66 40 -4 40 Z M13 41 C12.67 42.65 12.34 44.3 12 46 C12.66 46 13.32 46 14 46 C14 44.35 14 42.7 14 41 C13.67 41 13.34 41 13 41 Z " fill="#573B2C" transform="translate(35,7)"/>
<path d="M0 0 C0.99 0.66 1.98 1.32 3 2 C2.89300781 2.68707031 2.78601563 3.37414062 2.67578125 4.08203125 C2.55589844 4.98308594 2.43601562 5.88414063 2.3125 6.8125 C2.12107422 8.15248047 2.12107422 8.15248047 1.92578125 9.51953125 C2.01944961 12.65002639 2.84681534 12.87307369 5 15 C5.80078125 18.03125 5.80078125 18.03125 6.3125 21.5 C6.49425781 22.6446875 6.67601562 23.789375 6.86328125 24.96875 C7 28 7 28 5 31 C4.54860541 33.0492094 4.54860541 33.0492094 4.375 35.1875 C4.25125 36.445625 4.1275 37.70375 4 39 C-0.72963136 40.022623 -5.17255145 40 -10 40 C-10.06058594 39.22914062 -10.12117188 38.45828125 -10.18359375 37.6640625 C-10.26738281 36.66117188 -10.35117187 35.65828125 -10.4375 34.625 C-10.51871094 33.62726562 -10.59992187 32.62953125 -10.68359375 31.6015625 C-10.84965626 29.02072387 -10.84965626 29.02072387 -12 27 C-12 30.96 -12 34.92 -12 39 C-16 40 -16 40 -21 38 C-21 34.04 -21 30.08 -21 26 C-22.28612676 27.05978933 -22.28612676 27.05978933 -22.09765625 29.50390625 C-22.08605469 30.51324219 -22.07445312 31.52257812 -22.0625 32.5625 C-22.05347656 33.57441406 -22.04445313 34.58632813 -22.03515625 35.62890625 C-22.02355469 36.41136719 -22.01195312 37.19382813 -22 38 C-23.32 38 -24.64 38 -26 38 C-26.58310464 25.86278487 -26.58310464 25.86278487 -23 21 C-20.8125 20.125 -20.8125 20.125 -19 20 C-20.32 20 -21.64 20 -23 20 C-23 19.34 -23 18.68 -23 18 C-22.34 18 -21.68 18 -21 18 C-20.7525 17.4225 -20.505 16.845 -20.25 16.25 C-18.83316683 13.6997003 -17.12372463 11.98214299 -15 10 C-14.67 10.66 -14.34 11.32 -14 12 C-12.08333333 12.83333333 -12.08333333 12.83333333 -10 13 C-9.34 12.34 -8.68 11.68 -8 11 C-8.66 10.34 -9.32 9.68 -10 9 C-9.8048537 5.9427079 -9.46289603 3.73088847 -7.8125 1.125 C-5.12842587 -0.54097705 -3.09207756 -0.32209141 0 0 Z " fill="#958473" transform="translate(51,8)"/>
<path d="M0 0 C2.4375 0.3125 2.4375 0.3125 4.4375 2.3125 C4.74576548 5.65938239 4.81667836 8.98419248 4.8984375 12.34375 C5.16527344 13.81328125 5.16527344 13.81328125 5.4375 15.3125 C7.36255889 16.79298202 7.36255889 16.79298202 9.4375 17.3125 C9.4375 18.6325 9.4375 19.9525 9.4375 21.3125 C8.7775 21.3125 8.1175 21.3125 7.4375 21.3125 C7.4375 22.6325 7.4375 23.9525 7.4375 25.3125 C6.7775 25.3125 6.1175 25.3125 5.4375 25.3125 C5.1075 24.6525 4.7775 23.9925 4.4375 23.3125 C4.4375 27.6025 4.4375 31.8925 4.4375 36.3125 C3.4475 36.3125 2.4575 36.3125 1.4375 36.3125 C1.1075 32.3525 0.7775 28.3925 0.4375 24.3125 C-0.5525 24.6425 -1.5425 24.9725 -2.5625 25.3125 C-2.5625 28.9425 -2.5625 32.5725 -2.5625 36.3125 C-4.5425 36.3125 -6.5225 36.3125 -8.5625 36.3125 C-8.53929687 35.63703125 -8.51609375 34.9615625 -8.4921875 34.265625 C-8.46511719 32.92757812 -8.46511719 32.92757812 -8.4375 31.5625 C-8.40269531 30.23992188 -8.40269531 30.23992188 -8.3671875 28.890625 C-8.57408729 26.1595478 -9.34456607 24.71913744 -10.5625 22.3125 C-10.62648644 19.48643244 -10.1065972 17.12366889 -9.5625 14.3125 C-8.9025 13.6525 -8.2425 12.9925 -7.5625 12.3125 C-6.98464485 10.05672472 -6.61212025 7.79909704 -6.22265625 5.50390625 C-5.14993171 1.94296857 -3.69767529 0.45093601 0 0 Z " fill="#856E62" transform="translate(16.5625,10.6875)"/>
<path d="M0 0 C0.680625 0.515625 1.36125 1.03125 2.0625 1.5625 C5.80118832 3.39207088 8.00443413 2.86178872 12 2 C13.57077907 7.02649303 14.44854729 11.76119922 15 17 C14.34 17.33 13.68 17.66 13 18 C12.34 18.99 11.68 19.98 11 21 C10.67 17.04 10.34 13.08 10 9 C8.95026186 13.19895255 9.27204845 15.79405774 10 20 C7 19 7 19 5 16 C3.68737429 17.08552366 3.68737429 17.08552366 3.90234375 19.72265625 C3.91394531 20.82480469 3.92554688 21.92695312 3.9375 23.0625 C3.94652344 24.16722656 3.95554687 25.27195312 3.96484375 26.41015625 C3.97644531 27.26480469 3.98804688 28.11945312 4 29 C-0.01156915 30.48576635 -0.48130304 29.80747878 -5 28 C-5 24.04 -5 20.08 -5 16 C-6.28612676 17.05978933 -6.28612676 17.05978933 -6.09765625 19.50390625 C-6.08605469 20.51324219 -6.07445312 21.52257812 -6.0625 22.5625 C-6.05347656 23.57441406 -6.04445313 24.58632813 -6.03515625 25.62890625 C-6.02355469 26.41136719 -6.01195312 27.19382812 -6 28 C-7.32 28 -8.64 28 -10 28 C-10.58310464 15.86278487 -10.58310464 15.86278487 -7 11 C-4.8125 10.125 -4.8125 10.125 -3 10 C-4.32 10 -5.64 10 -7 10 C-7 9.34 -7 8.68 -7 8 C-6.34 8 -5.68 8 -5 8 C-4.731875 7.4225 -4.46375 6.845 -4.1875 6.25 C-2.98280141 3.9674132 -1.59201885 2.0262058 0 0 Z " fill="#D1C7B1" transform="translate(35,18)"/>
<path d="M0 0 C0.33 0 0.66 0 1 0 C1.495 3.465 1.495 3.465 2 7 C2.99 7.33 3.98 7.66 5 8 C4.773125 8.598125 4.54625 9.19625 4.3125 9.8125 C4.209375 10.534375 4.10625 11.25625 4 12 C5.35444301 13.77190909 5.35444301 13.77190909 7 15 C5.21873911 16.78126089 2.60537435 16.42034316 0.1875 16.625 C-0.87082031 16.72039063 -1.92914063 16.81578125 -3.01953125 16.9140625 C-6 17 -6 17 -7.79272461 16.51147461 C-10.66825415 15.84515071 -13.3458192 15.88842368 -16.296875 15.90234375 C-18.10478516 15.90717773 -18.10478516 15.90717773 -19.94921875 15.91210938 C-21.83060547 15.92467773 -21.83060547 15.92467773 -23.75 15.9375 C-25.01972656 15.94201172 -26.28945313 15.94652344 -27.59765625 15.95117188 C-30.73181836 15.96295444 -33.86588541 15.97940584 -37 16 C-36.67 15.01 -36.34 14.02 -36 13 C-35.01 13 -34.02 13 -33 13 C-32.67 12.67 -32.34 12.34 -32 12 C-31.34 12 -30.68 12 -30 12 C-30 12.66 -30 13.32 -30 14 C-28.35 13.34 -26.7 12.68 -25 12 C-25 12.66 -25 13.32 -25 14 C-22.03 13.34 -19.06 12.68 -16 12 C-16.33 10.35 -16.66 8.7 -17 7 C-14.525 7.495 -14.525 7.495 -12 8 C-12 9.32 -12 10.64 -12 12 C-10.35 12 -8.7 12 -7 12 C-7 10.68 -7 9.36 -7 8 C-3.535 7.505 -3.535 7.505 0 7 C0 4.69 0 2.38 0 0 Z M-1 8 C-1.33 9.65 -1.66 11.3 -2 13 C-1.34 13 -0.68 13 0 13 C0 11.35 0 9.7 0 8 C-0.33 8 -0.66 8 -1 8 Z " fill="#645752" transform="translate(49,40)"/>
<path d="M0 0 C1.57077907 5.02649303 2.44854729 9.76119922 3 15 C2.01 15.495 2.01 15.495 1 16 C0.34 16.99 -0.32 17.98 -1 19 C-1.33 15.04 -1.66 11.08 -2 7 C-3.04973814 11.19895255 -2.72795155 13.79405774 -2 18 C-5 17 -5 17 -6.8125 14.5 C-8.33094313 10.02458868 -8.05412173 6.2973258 -6 2 C-3.8421822 0.61007362 -2.57102069 0 0 0 Z " fill="#DAD3C5" transform="translate(47,20)"/>
<path d="M0 0 C0.94875 0.04125 1.8975 0.0825 2.875 0.125 C5.09354707 4.74697306 6.25781159 7.89324163 5.875 13.125 C3.38435112 13.81207555 1.49613708 14.125 -1.125 14.125 C-4.07357053 10.38258356 -4.85829709 6.83675133 -5.125 2.125 C-3.125 0.125 -3.125 0.125 0 0 Z " fill="#6D472F" transform="translate(32.125,6.875)"/>
<path d="M0 0 C2.39763185 2.39763185 2.34280586 3.33273498 2.625 6.625 C2.69976562 7.44226562 2.77453125 8.25953125 2.8515625 9.1015625 C2.92503906 10.04128906 2.92503906 10.04128906 3 11 C3.66 10.67 4.32 10.34 5 10 C5 13.96 5 17.92 5 22 C3 23 3 23 -3 23 C-3.33 18.38 -3.66 13.76 -4 9 C-3.67 9.66 -3.34 10.32 -3 11 C-0.98330173 12.13350534 -0.98330173 12.13350534 1 13 C0.84402344 12.39671875 0.68804687 11.7934375 0.52734375 11.171875 C0.33269531 10.37265625 0.13804688 9.5734375 -0.0625 8.75 C-0.25972656 7.96109375 -0.45695312 7.1721875 -0.66015625 6.359375 C-1.01497267 3.89605178 -0.76877544 2.34395868 0 0 Z " fill="#DBD6C3" transform="translate(44,25)"/>
<path d="M0 0 C0.99 0.66 1.98 1.32 3 2 C2.67 4.97 2.34 7.94 2 11 C-1.69230905 11.20512828 -3.76739533 10.72405582 -7 9 C-7.99 9 -8.98 9 -10 9 C-9.40425532 3.63829787 -9.40425532 3.63829787 -7.8125 1.125 C-5.12842587 -0.54097705 -3.09207756 -0.32209141 0 0 Z " fill="#D3C8AA" transform="translate(51,8)"/>
<path d="M0 0 C0.99 0.33 1.98 0.66 3 1 C3.33333333 2.33333333 3.66666667 3.66666667 4 5 C4.99 5.33 5.98 5.66 7 6 C7 7.32 7 8.64 7 10 C6.34 10 5.68 10 5 10 C5 11.32 5 12.64 5 14 C4.34 14 3.68 14 3 14 C2.67 13.34 2.34 12.68 2 12 C2 16.29 2 20.58 2 25 C1.01 25 0.02 25 -1 25 C-1.2242 22.33383784 -1.42964971 19.66830733 -1.625 17 C-1.68945312 16.25621094 -1.75390625 15.51242188 -1.8203125 14.74609375 C-2.19267949 9.39331828 -1.53197383 5.14556096 0 0 Z " fill="#C8B9A8" transform="translate(19,22)"/>
<path d="M0 0 C1.98 1.32 3.96 2.64 6 4 C5.88610125 5.79240663 5.75852313 7.58394835 5.625 9.375 C5.55539063 10.37273438 5.48578125 11.37046875 5.4140625 12.3984375 C5 15 5 15 3 17 C2.34 15.68 1.68 14.36 1 13 C0.34 13 -0.32 13 -1 13 C-1 12.34 -1 11.68 -1 11 C-1.99 11.33 -2.98 11.66 -4 12 C-4.33 11.34 -4.66 10.68 -5 10 C-5.66 10 -6.32 10 -7 10 C-7 9.34 -7 8.68 -7 8 C-6.34 8 -5.68 8 -5 8 C-4.731875 7.4225 -4.46375 6.845 -4.1875 6.25 C-2.98280141 3.9674132 -1.59201885 2.0262058 0 0 Z " fill="#BEAF9C" transform="translate(35,18)"/>
<path d="M0 0 C2.49505962 2.49505962 2.35948376 3.67328888 2.625 7.125 C2.69976562 8.03507812 2.77453125 8.94515625 2.8515625 9.8828125 C2.90054687 10.58148438 2.94953125 11.28015625 3 12 C1.35 12.66 -0.3 13.32 -2 14 C-1.67 11.03 -1.34 8.06 -1 5 C-1.99 5.495 -1.99 5.495 -3 6 C-3.40729228 8.32156597 -3.74438677 10.6568787 -4 13 C-5.65 12.67 -7.3 12.34 -9 12 C-8.91253716 10.56138706 -8.80434652 9.12402492 -8.6875 7.6875 C-8.62949219 6.88699219 -8.57148438 6.08648437 -8.51171875 5.26171875 C-7.42206754 0.44562674 -4.6578116 -0.59715533 0 0 Z " fill="#896042" transform="translate(19,11)"/>
<path d="M0 0 C0.33 0 0.66 0 1 0 C1.33 2.31 1.66 4.62 2 7 C2.99 7.33 3.98 7.66 5 8 C4.773125 8.598125 4.54625 9.19625 4.3125 9.8125 C4.1578125 10.8953125 4.1578125 10.8953125 4 12 C5.35444301 13.77190909 5.35444301 13.77190909 7 15 C6 16 6 16 4.15234375 16.09765625 C2.1015625 16.06510417 0.05078125 16.03255208 -2 16 C-2.12375 14.865625 -2.2475 13.73125 -2.375 12.5625 C-2.58125 11.386875 -2.7875 10.21125 -3 9 C-3.66 8.67 -4.32 8.34 -5 8 C-3.35 7.67 -1.7 7.34 0 7 C0 4.69 0 2.38 0 0 Z M-1 8 C-1.33 9.65 -1.66 11.3 -2 13 C-1.34 13 -0.68 13 0 13 C0 11.35 0 9.7 0 8 C-0.33 8 -0.66 8 -1 8 Z " fill="#473D3C" transform="translate(49,40)"/>
<path d="M0 0 C2.36574234 3.5486135 2.10865265 4.5764525 1.625 8.6875 C1.51414062 9.68136719 1.40328125 10.67523438 1.2890625 11.69921875 C1.19367187 12.45847656 1.09828125 13.21773437 1 14 C1.66 14.33 2.32 14.66 3 15 C2.34 16.98 1.68 18.96 1 21 C-0.98 21.33 -2.96 21.66 -5 22 C-4.814375 21.113125 -4.62875 20.22625 -4.4375 19.3125 C-4.01957516 16.14821189 -4.19222258 14.05160358 -5 11 C-4.67 11.99 -4.34 12.98 -4 14 C-2.68 14 -1.36 14 0 14 C-0.08378906 13.07316406 -0.16757812 12.14632812 -0.25390625 11.19140625 C-0.40666016 9.39509766 -0.40666016 9.39509766 -0.5625 7.5625 C-0.71912109 5.77005859 -0.71912109 5.77005859 -0.87890625 3.94140625 C-0.91886719 2.97074219 -0.95882813 2.00007813 -1 1 C-0.67 0.67 -0.34 0.34 0 0 Z " fill="#403640" transform="translate(29,32)"/>
<path d="M0 0 C1.77669223 3.06156654 2.24050818 5.24036215 2.1953125 8.765625 C2.18886719 9.65507813 2.18242188 10.54453125 2.17578125 11.4609375 C2.15902344 12.38132812 2.14226563 13.30171875 2.125 14.25 C2.11597656 15.18585937 2.10695312 16.12171875 2.09765625 17.0859375 C2.07413636 19.39088657 2.04126853 21.6953116 2 24 C1.01 24 0.02 24 -1 24 C-1.02887236 20.18751574 -1.04675492 16.3750593 -1.0625 12.5625 C-1.07087891 11.47388672 -1.07925781 10.38527344 -1.08789062 9.26367188 C-1.09111328 8.22919922 -1.09433594 7.19472656 -1.09765625 6.12890625 C-1.10289307 5.17056885 -1.10812988 4.21223145 -1.11352539 3.22485352 C-1 1 -1 1 0 0 Z " fill="#D1C6B3" transform="translate(52,23)"/>
<path d="M0 0 C0.33 0.99 0.66 1.98 1 3 C0.67 3.66 0.34 4.32 0 5 C0.66 5 1.32 5 2 5 C2 3.35 2 1.7 2 0 C2.33 0 2.66 0 3 0 C3.2226746 1.43534841 3.42761906 2.87345525 3.625 4.3125 C3.74101563 5.11300781 3.85703125 5.91351563 3.9765625 6.73828125 C4 9 4 9 2 12 C1.54860541 14.0492094 1.54860541 14.0492094 1.375 16.1875 C1.25125 17.445625 1.1275 18.70375 1 20 C0.67 20 0.34 20 0 20 C-2.28571429 4.57142857 -2.28571429 4.57142857 0 0 Z " fill="#655043" transform="translate(54,27)"/>
<path d="M0 0 C1.32 0.66 2.64 1.32 4 2 C3.88610125 3.79240663 3.75852313 5.58394835 3.625 7.375 C3.55539063 8.37273438 3.48578125 9.37046875 3.4140625 10.3984375 C3 13 3 13 1 15 C-0.87592203 11.81908874 -1.24719681 9.48656709 -1.1875 5.8125 C-1.18105469 4.93207031 -1.17460938 4.05164063 -1.16796875 3.14453125 C-1 1 -1 1 0 0 Z " fill="#ACA095" transform="translate(37,20)"/>
<path d="M0 0 C0.66 0 1.32 0 2 0 C2 0.66 2 1.32 2 2 C3.65 1.34 5.3 0.68 7 0 C7 0.66 7 1.32 7 2 C9.97 1.34 12.94 0.68 16 0 C15.67 0.99 15.34 1.98 15 3 C8.30386804 3.797837 1.74233419 4.12910853 -5 4 C-4.67 3.01 -4.34 2.02 -4 1 C-3.01 1 -2.02 1 -1 1 C-0.67 0.67 -0.34 0.34 0 0 Z " fill="#6E6765" transform="translate(17,52)"/>
<path d="M0 0 C-0.33 2.31 -0.66 4.62 -1 7 C-0.34 7 0.32 7 1 7 C1 8.65 1 10.3 1 12 C-0.98 12 -2.96 12 -5 12 C-5 8.37 -5 4.74 -5 1 C-2 0 -2 0 0 0 Z " fill="#C1B19A" transform="translate(13,35)"/>
<path d="M0 0 C2 2 2 2 2.1953125 4.8203125 C2.16050781 6.45613281 2.16050781 6.45613281 2.125 8.125 C2.10695313 9.22070312 2.08890625 10.31640625 2.0703125 11.4453125 C2.04710937 12.28835937 2.02390625 13.13140625 2 14 C1.34 14 0.68 14 0 14 C-0.66 16.97 -1.32 19.94 -2 23 C-2.33 23 -2.66 23 -3 23 C-3.33 18.38 -3.66 13.76 -4 9 C-3.67 9.66 -3.34 10.32 -3 11 C-0.98330173 12.13350534 -0.98330173 12.13350534 1 13 C0.84402344 12.39671875 0.68804687 11.7934375 0.52734375 11.171875 C0.33269531 10.37265625 0.13804688 9.5734375 -0.0625 8.75 C-0.25972656 7.96109375 -0.45695312 7.1721875 -0.66015625 6.359375 C-1.01497267 3.89605178 -0.76877544 2.34395868 0 0 Z " fill="#5D4031" transform="translate(44,25)"/>
<path d="M0 0 C0.66 0.33 1.32 0.66 2 1 C2 3.64 2 6.28 2 9 C0.02 9.99 0.02 9.99 -2 11 C-2.99 10.01 -3.98 9.02 -5 8 C-4.01 7.67 -3.02 7.34 -2 7 C-2 5.02 -2 3.04 -2 1 C-1.34 0.67 -0.68 0.34 0 0 Z " fill="#5B4F4C" transform="translate(11,46)"/>
<path d="M0 0 C1.485 0.99 1.485 0.99 3 2 C3.29296875 5.0390625 3.29296875 5.0390625 3.1875 8.625 C3.16042969 9.81351563 3.13335938 11.00203125 3.10546875 12.2265625 C3.07066406 13.14179687 3.03585938 14.05703125 3 15 C2.01 15 1.02 15 0 15 C-0.19390729 12.68802845 -0.37996367 10.3753971 -0.5625 8.0625 C-0.71912109 6.13083984 -0.71912109 6.13083984 -0.87890625 4.16015625 C-0.91886719 3.11730469 -0.95882813 2.07445312 -1 1 C-0.67 0.67 -0.34 0.34 0 0 Z " fill="#EAECE2" transform="translate(18,32)"/>
<path d="M0 0 C0.66 0.33 1.32 0.66 2 1 C2.125 8.625 2.125 8.625 1 12 C0.01 12 -0.98 12 -2 12 C-2 8.7 -2 5.4 -2 2 C-1.34 2 -0.68 2 0 2 C0 1.34 0 0.68 0 0 Z " fill="#4C3F48" transform="translate(16,34)"/>
<path d="M0 0 C0.33 0 0.66 0 1 0 C1 7.92 1 15.84 1 24 C0.67 24 0.34 24 0 24 C-0.06058594 23.154375 -0.12117188 22.30875 -0.18359375 21.4375 C-0.72851877 13.8835048 -0.72851877 13.8835048 -1.6875 6.375 C-2 3 -2 3 0 0 Z " fill="#997E6C" transform="translate(50,24)"/>
<path d="M0 0 C1.953125 0.6796875 1.953125 0.6796875 4 2 C4.609375 4.3828125 4.609375 4.3828125 4.75 7.125 C4.80671875 8.03507812 4.8634375 8.94515625 4.921875 9.8828125 C4.94765625 10.58148438 4.9734375 11.28015625 5 12 C3.35 12.66 1.7 13.32 0 14 C0.09539063 13.38511719 0.19078125 12.77023438 0.2890625 12.13671875 C0.39992188 11.32847656 0.51078125 10.52023438 0.625 9.6875 C0.79902344 8.48673828 0.79902344 8.48673828 0.9765625 7.26171875 C1.21533407 4.71276785 1.21533407 4.71276785 -1 2 C-0.67 1.34 -0.34 0.68 0 0 Z " fill="#60402E" transform="translate(17,11)"/>
<path d="M0 0 C0.33 0.66 0.66 1.32 1 2 C3.3140622 2.73075648 5.64828869 3.40138258 8 4 C7.34 5.32 6.68 6.64 6 8 C5.01 7.67 4.02 7.34 3 7 C3 6.34 3 5.68 3 5 C2.01 5.66 1.02 6.32 0 7 C-0.99 6.67 -1.98 6.34 -3 6 C-2.34 5.34 -1.68 4.68 -1 4 C-1.33 3.34 -1.66 2.68 -2 2 C-1.34 2 -0.68 2 0 2 C0 1.34 0 0.68 0 0 Z " fill="#674A3E" transform="translate(44,15)"/>
<path d="M0 0 C2.28460722 2.28460722 2.90104973 3.97788676 4 7 C4.61875 8.546875 4.61875 8.546875 5.25 10.125 C5.4975 11.07375 5.745 12.0225 6 13 C5.01 14.485 5.01 14.485 4 16 C3.34 15.67 2.68 15.34 2 15 C2 13.35 2 11.7 2 10 C1.01 10.66 0.02 11.32 -1 12 C-0.9278125 11.38511719 -0.855625 10.77023438 -0.78125 10.13671875 C-0.64203125 8.92435547 -0.64203125 8.92435547 -0.5 7.6875 C-0.4071875 6.88699219 -0.314375 6.08648437 -0.21875 5.26171875 C0.04813463 2.88103445 0.04813463 2.88103445 0 0 Z " fill="#4A362F" transform="translate(26,10)"/>
<path d="M0 0 C-0.33 3.3 -0.66 6.6 -1 10 C-1.99 10 -2.98 10 -4 10 C-3.42415568 7.61435923 -2.77772405 5.33317216 -2 3 C-3.65 3.33 -5.3 3.66 -7 4 C-6.67 3.01 -6.34 2.02 -6 1 C-3 0 -3 0 0 0 Z " fill="#E2E2D3" transform="translate(15,32)"/>
<path d="M0 0 C0.33 0 0.66 0 1 0 C1 1.98 1 3.96 1 6 C1.66 6 2.32 6 3 6 C3.33 4.35 3.66 2.7 4 1 C4.66 1.33 5.32 1.66 6 2 C5.67 4.31 5.34 6.62 5 9 C4.01 9 3.02 9 2 9 C1.34 9.66 0.68 10.32 0 11 C-1.125 3.375 -1.125 3.375 0 0 Z " fill="#735D4D" transform="translate(7,25)"/>
<path d="M0 0 C0.33 0.66 0.66 1.32 1 2 C2.65 1.67 4.3 1.34 6 1 C6 4 6 4 5 7 C2.69 7 0.38 7 -2 7 C-1.125 1.125 -1.125 1.125 0 0 Z " fill="#9C846D" transform="translate(43,10)"/>
<path d="M0 0 C1.32 0.33 2.64 0.66 4 1 C4.33 3.64 4.66 6.28 5 9 C3.68 9 2.36 9 1 9 C0.67 6.03 0.34 3.06 0 0 Z " fill="#625B58" transform="translate(42,48)"/>
<path d="M0 0 C0.33 0.99 0.66 1.98 1 3 C1.99 3.33 2.98 3.66 4 4 C3.67 4.99 3.34 5.98 3 7 C3.99 7 4.98 7 6 7 C6 7.99 6 8.98 6 10 C4.02 10.33 2.04 10.66 0 11 C0.185625 10.113125 0.37125 9.22625 0.5625 8.3125 C0.98042484 5.14821189 0.80777742 3.05160358 0 0 Z " fill="#3C271C" transform="translate(24,43)"/>
<path d="M0 0 C0.99 0.495 0.99 0.495 2 1 C1.67 1.66 1.34 2.32 1 3 C1.66 3 2.32 3 3 3 C3.33 2.34 3.66 1.68 4 1 C5.81115956 2.81115956 5.38199448 5.61278227 5.5625 8.0625 C5.64628906 9.16722656 5.73007812 10.27195312 5.81640625 11.41015625 C5.87699219 12.26480469 5.93757813 13.11945312 6 14 C5.01 14.495 5.01 14.495 4 15 C4 11.7 4 8.4 4 5 C2.68 4.67 1.36 4.34 0 4 C0 2.68 0 1.36 0 0 Z " fill="#604332" transform="translate(33,33)"/>
<path d="M0 0 C0.99 0.33 1.98 0.66 3 1 C3.33 2.98 3.66 4.96 4 7 C3.01 7.495 3.01 7.495 2 8 C1.34 8.99 0.68 9.98 0 11 C0 7.37 0 3.74 0 0 Z " fill="#E0DFD0" transform="translate(46,28)"/>
<path d="M0 0 C0 1.32 0 2.64 0 4 C-0.66 4 -1.32 4 -2 4 C-2.33 5.65 -2.66 7.3 -3 9 C-3.66 9 -4.32 9 -5 9 C-5.1875 5.625 -5.1875 5.625 -5 2 C-2 0 -2 0 0 0 Z " fill="#D8D1C6" transform="translate(13,22)"/>
<path d="M0 0 C0.99 0.33 1.98 0.66 3 1 C3 2.32 3 3.64 3 5 C2.34 5 1.68 5 1 5 C1 6.32 1 7.64 1 9 C0.34 9 -0.32 9 -1 9 C-1.33 7.02 -1.66 5.04 -2 3 C-1.34 3 -0.68 3 0 3 C0 2.01 0 1.02 0 0 Z " fill="#B3A798" transform="translate(23,27)"/>
<path d="M0 0 C1.32 0 2.64 0 4 0 C4.33 2.31 4.66 4.62 5 7 C2 6 2 6 0 3 C0 2.01 0 1.02 0 0 Z " fill="#D0C0AE" transform="translate(40,31)"/>
<path d="M0 0 C0.1875 2.875 0.1875 2.875 0 6 C-0.99 6.66 -1.98 7.32 -3 8 C-3.66 7.67 -4.32 7.34 -5 7 C-5 5.68 -5 4.36 -5 3 C-1.67857143 0 -1.67857143 0 0 0 Z " fill="#B9AD9C" transform="translate(29,19)"/>
<path d="M0 0 C1.98 0.495 1.98 0.495 4 1 C4.33 2.32 4.66 3.64 5 5 C3.02 5.99 3.02 5.99 1 7 C-0.0625 5.1875 -0.0625 5.1875 -1 3 C-0.67 2.01 -0.34 1.02 0 0 Z " fill="#ECD0B3" transform="translate(29,11)"/>
<path d="M0 0 C2.11180592 2.57089417 3.66306057 4.63060567 4 8 C3.34 8.66 2.68 9.32 2 10 C2 8.68 2 7.36 2 6 C0.68 5.67 -0.64 5.34 -2 5 C-1.34 3.35 -0.68 1.7 0 0 Z " fill="#C2B09D" transform="translate(13,26)"/>
<path d="M0 0 C0.99 0.33 1.98 0.66 3 1 C2.649375 1.94875 2.29875 2.8975 1.9375 3.875 C0.64973223 6.87060172 0.64973223 6.87060172 2 9 C0.68 9 -0.64 9 -2 9 C-1.34 6.03 -0.68 3.06 0 0 Z " fill="#EEECE4" transform="translate(41,22)"/>
<path d="M0 0 C0.33 0.66 0.66 1.32 1 2 C1.66 2.33 2.32 2.66 3 3 C2.34 3 1.68 3 1 3 C1.7734375 4.175625 1.7734375 4.175625 2.5625 5.375 C3.036875 6.24125 3.51125 7.1075 4 8 C3.67 8.66 3.34 9.32 3 10 C1.68 9.67 0.36 9.34 -1 9 C-0.67 6.03 -0.34 3.06 0 0 Z " fill="#40281F" transform="translate(11,14)"/>
<path d="M0 0 C1.32 0.66 2.64 1.32 4 2 C3.34 2 2.68 2 2 2 C2.33 3.32 2.66 4.64 3 6 C2.01 6.33 1.02 6.66 0 7 C-0.66 6.67 -1.32 6.34 -2 6 C-1.125 1.125 -1.125 1.125 0 0 Z " fill="#EBCFB0" transform="translate(16,15)"/>
<path d="M0 0 C2.475 0.495 2.475 0.495 5 1 C5 2.98 5 4.96 5 7 C4.67 6.34 4.34 5.68 4 5 C3.01 5.33 2.02 5.66 1 6 C0.67 4.02 0.34 2.04 0 0 Z " fill="#382E32" transform="translate(32,47)"/>
<path d="M0 0 C0.66 0 1.32 0 2 0 C1.67 3.63 1.34 7.26 1 11 C0.34 11 -0.32 11 -1 11 C-1.02688151 9.35425434 -1.04634123 7.70838587 -1.0625 6.0625 C-1.07410156 5.14597656 -1.08570312 4.22945312 -1.09765625 3.28515625 C-1 1 -1 1 0 0 Z " fill="#E1E0D1" transform="translate(26,34)"/>
<path d="M0 0 C0 2.64 0 5.28 0 8 C-0.99 8 -1.98 8 -3 8 C-3 5.69 -3 3.38 -3 1 C-1 0 -1 0 0 0 Z " fill="#BCA388" transform="translate(54,39)"/>
<path d="M0 0 C0.33 0 0.66 0 1 0 C1 2.97 1 5.94 1 9 C0.01 9 -0.98 9 -2 9 C-2.20140476 5.37471432 -1.85776765 3.13498292 0 0 Z " fill="#DBDAC8" transform="translate(20,38)"/>
<path d="M0 0 C1.33333333 0 2.66666667 0 4 0 C3.67 2.97 3.34 5.94 3 9 C0.23776722 6.23776722 0.42143709 3.79293383 0 0 Z " fill="#826552" transform="translate(50,10)"/>
<path d="M0 0 C2 2 2 2 2.125 4.625 C2.08375 5.40875 2.0425 6.1925 2 7 C0.35 6.67 -1.3 6.34 -3 6 C-2 3 -2 3 0 0 Z " fill="#F8DBBC" transform="translate(50,12)"/>
<path d="M0 0 C-0.33 1.32 -0.66 2.64 -1 4 C-1.66 4 -2.32 4 -3 4 C-3 5.65 -3 7.3 -3 9 C-3.33 9 -3.66 9 -4 9 C-4.33 6.36 -4.66 3.72 -5 1 C-2 0 -2 0 0 0 Z " fill="#664835" transform="translate(13,35)"/>
<path d="M0 0 C0.99 0.33 1.98 0.66 3 1 C2.67 3.31 2.34 5.62 2 8 C0.26216175 5.39324263 -0.50215905 3.98704569 -1 1 C-0.67 0.67 -0.34 0.34 0 0 Z " fill="#545B65" transform="translate(15,25)"/>
<path d="M0 0 C0.1875 2.375 0.1875 2.375 0 5 C-0.99 5.66 -1.98 6.32 -3 7 C-3.6875 5.1875 -3.6875 5.1875 -4 3 C-1.64285714 0 -1.64285714 0 0 0 Z " fill="#916E57" transform="translate(35,15)"/>
<path d="M0 0 C0.66 0 1.32 0 2 0 C2.33 2.31 2.66 4.62 3 7 C2.34 7 1.68 7 1 7 C1 6.34 1 5.68 1 5 C0.34 5 -0.32 5 -1 5 C-0.67 3.35 -0.34 1.7 0 0 Z " fill="#3B3138" transform="translate(18,47)"/>
<path d="M0 0 C0.33 0 0.66 0 1 0 C1 2.97 1 5.94 1 9 C-0.625 7.3125 -0.625 7.3125 -2 5 C-1.1875 2.25 -1.1875 2.25 0 0 Z " fill="#6F5B53" transform="translate(50,24)"/>
</svg>
