<?xml version="1.0" encoding="UTF-8"?>
<svg version="1.1" xmlns="http://www.w3.org/2000/svg" width="64" height="64">
<path d="M0 0 C1.875 0.0625 1.875 0.0625 4 1 C7 6.03571429 7 6.03571429 7 9 C9.94818931 8.51973152 9.94818931 8.51973152 13 7 C14.44088563 4.71463927 15.13569208 2.59292376 16 0 C19 1 19 1 20 3 C20.22622081 4.70363822 20.40888473 6.41328701 20.5625 8.125 C20.64628906 9.03507813 20.73007812 9.94515625 20.81640625 10.8828125 C20.87699219 11.58148438 20.93757813 12.28015625 21 13 C23.475 13.495 23.475 13.495 26 14 C26.33 11.69 26.66 9.38 27 7 C27.99 6.67 28.98 6.34 30 6 C31.39457694 8.78915389 31.1821922 10.90273264 31 14 C30.4740625 15.299375 30.4740625 15.299375 29.9375 16.625 C28.81053699 19.47997295 29.03915414 20.13748005 30 23 C30.98573256 25.05884307 32.00994039 27.09950704 33.0625 29.125 C36 34.77882353 36 34.77882353 36 37 C36.66 37 37.32 37 38 37 C37.67 38.32 37.34 39.64 37 41 C36.2575 40.67 35.515 40.34 34.75 40 C31.86116688 38.77217129 31.86116688 38.77217129 28 39 C28.94875 39.28875 29.8975 39.5775 30.875 39.875 C34 41 34 41 36 43 C35.77414826 47.96873824 34.04489479 51.12467936 31 55 C30.34 55 29.68 55 29 55 C28.505 51.04 28.505 51.04 28 47 C24.56934108 48.14355297 24.2389128 48.78960109 22.3125 51.6875 C19.25712437 55.9086424 15.75251711 59.70070529 11 62 C8.7578125 61.65234375 8.7578125 61.65234375 7 61 C7 59.35 7 57.7 7 56 C6.01 56.66 5.02 57.32 4 58 C0.24625114 57.89854733 -0.96326896 57.03422665 -3.75 54.4375 C-5.67723337 52.68456422 -6.57971117 52.03570595 -9.20703125 51.8125 C-10.76334806 51.89509061 -12.31936695 51.98352569 -13.875 52.078125 C-16 52 -16 52 -19.0625 50.1875 C-21 48 -21 48 -21 45 C-20.34 45 -19.68 45 -19 45 C-19 45.66 -19 46.32 -19 47 C-17.02 47 -15.04 47 -13 47 C-11.60848348 42.20699867 -12.31337311 37.84864218 -13 33 C-14.2375 33.061875 -15.475 33.12375 -16.75 33.1875 C-19.78211302 33.20362826 -20.82248296 33.10651023 -23.5 31.5 C-23.995 31.005 -24.49 30.51 -25 30 C-24.505 28.515 -24.505 28.515 -24 27 C-23.2575 27.226875 -22.515 27.45375 -21.75 27.6875 C-18.95721633 28.30674044 -18.95721633 28.30674044 -16.875 26.5625 C-16.25625 26.046875 -15.6375 25.53125 -15 25 C-14.01 25 -13.02 25 -12 25 C-12.33 24.01 -12.66 23.02 -13 22 C-15.40545638 20.79727181 -16.94996953 20.89928528 -19.625 20.9375 C-20.44226563 20.94652344 -21.25953125 20.95554687 -22.1015625 20.96484375 C-22.72804688 20.97644531 -23.35453125 20.98804687 -24 21 C-22.25 17.1484375 -22.25 17.1484375 -20 15.8125 C-17.20480317 15.05546752 -14.93477822 14.88389568 -12.0625 14.75 C-7.45733482 14.35074801 -5.00853566 13.26477654 -1.98046875 9.76171875 C-0.3727634 6.87297328 -0.68583738 4.20445871 -1 1 C-0.67 0.67 -0.34 0.34 0 0 Z " fill="#6E5B53" transform="translate(25,1)"/>
<path d="M0 0 C1.9375 0.25 1.9375 0.25 4 1 C6.34770643 4.52155964 6.37669614 6.50771843 6.625 10.6875 C6.69976563 11.86699219 6.77453125 13.04648438 6.8515625 14.26171875 C6.90054687 15.16535156 6.94953125 16.06898437 7 17 C5.35 16.34 3.7 15.68 2 15 C2 15.99 2 16.98 2 18 C1.34 18.33 0.68 18.66 0 19 C0.33 19.99 0.66 20.98 1 22 C1.66 22 2.32 22 3 22 C3 21.34 3 20.68 3 20 C6.35808731 19.34142365 9.57285856 18.87423334 13 19 C16.07620421 21.19728872 17.5548885 22.66466551 18.75 26.25 C18.8325 26.8275 18.915 27.405 19 28 C19.33 28.33 19.66 28.66 20 29 C20.33 29 20.66 29 21 29 C21.29254918 33.97333608 21.16504232 37.0436971 18 41 C15.61782573 42.69057529 14.64500286 43.10750048 11.75 42.625 C11.1725 42.41875 10.595 42.2125 10 42 C10.495 41.01 10.495 41.01 11 40 C10.38125 39.773125 9.7625 39.54625 9.125 39.3125 C6.38589791 37.62070165 5.94975528 36.00755839 5 33 C4.40267181 35.76264289 4 38.16032769 4 41 C0.6077139 39.99148251 -0.71288601 39.4823515 -2.5625 36.375 C-3.036875 35.59125 -3.51125 34.8075 -4 34 C-5.32 34 -6.64 34 -8 34 C-7.67 35.65 -7.34 37.3 -7 39 C-10.75 40.125 -10.75 40.125 -13 39 C-13 37.02 -13 35.04 -13 33 C-14.2375 33.061875 -15.475 33.12375 -16.75 33.1875 C-19.78211302 33.20362826 -20.82248296 33.10651023 -23.5 31.5 C-23.995 31.005 -24.49 30.51 -25 30 C-24.505 28.515 -24.505 28.515 -24 27 C-23.2575 27.226875 -22.515 27.45375 -21.75 27.6875 C-18.95721633 28.30674044 -18.95721633 28.30674044 -16.875 26.5625 C-16.25625 26.046875 -15.6375 25.53125 -15 25 C-14.01 25 -13.02 25 -12 25 C-12.33 24.01 -12.66 23.02 -13 22 C-15.40545638 20.79727181 -16.94996953 20.89928528 -19.625 20.9375 C-20.44226563 20.94652344 -21.25953125 20.95554687 -22.1015625 20.96484375 C-22.72804688 20.97644531 -23.35453125 20.98804687 -24 21 C-22.25 17.1484375 -22.25 17.1484375 -20 15.8125 C-17.20480317 15.05546752 -14.93477822 14.88389568 -12.0625 14.75 C-7.45733482 14.35074801 -5.00853566 13.26477654 -1.98046875 9.76171875 C-0.3727634 6.87297328 -0.68583738 4.20445871 -1 1 C-0.67 0.67 -0.34 0.34 0 0 Z " fill="#958273" transform="translate(25,1)"/>
<path d="M0 0 C1.94045688 0.4241929 3.87731761 0.86485995 5.8125 1.3125 C7.43091797 1.67794922 7.43091797 1.67794922 9.08203125 2.05078125 C11.9579929 2.98633504 13.27182967 3.55378707 15 6 C14.88974331 10.96155098 13.02722849 14.14716374 10 18 C9.34 18 8.68 18 8 18 C7.67 15.36 7.34 12.72 7 10 C3.53688175 11.15437275 3.19172001 11.87264864 1.25 14.8125 C-1.72182381 18.95076465 -4.39066537 20.87261479 -9 23 C-9.66 23 -10.32 23 -11 23 C-11.433125 22.071875 -11.86625 21.14375 -12.3125 20.1875 C-13.75416261 17.08654089 -13.75416261 17.08654089 -15.625 15.375 C-17.34531827 13.65468173 -17.69153044 12.39063913 -18 10 C-17.67 9.34 -17.34 8.68 -17 8 C-16.01 8 -15.02 8 -14 8 C-14 8.99 -14 9.98 -14 11 C-13.0409375 10.7215625 -13.0409375 10.7215625 -12.0625 10.4375 C-11.381875 10.293125 -10.70125 10.14875 -10 10 C-9.67 10.33 -9.34 10.66 -9 11 C-9 10.34 -9 9.68 -9 9 C-6.36 8.67 -3.72 8.34 -1 8 C0.05270463 5.36893239 0.05270463 5.36893239 0 4 C0 2.68 0 1.36 0 0 Z " fill="#837163" transform="translate(46,38)"/>
<path d="M0 0 C1.9375 0.25 1.9375 0.25 4 1 C6.34770643 4.52155964 6.37669614 6.50771843 6.625 10.6875 C6.69976563 11.86699219 6.77453125 13.04648438 6.8515625 14.26171875 C6.90054687 15.16535156 6.94953125 16.06898437 7 17 C5.35 16.34 3.7 15.68 2 15 C2 15.99 2 16.98 2 18 C0 20 0 20 -3.125 20.125 C-4.548125 20.063125 -4.548125 20.063125 -6 20 C-5.34 21.98 -4.68 23.96 -4 26 C-5.65 25.34 -7.3 24.68 -9 24 C-9 23.34 -9 22.68 -9 22 C-11.1249266 21.83240016 -13.24994376 21.66594799 -15.375 21.5 C-17.15003906 21.36078125 -17.15003906 21.36078125 -18.9609375 21.21875 C-20.63786843 21.09804546 -22.31873056 21 -24 21 C-23.05828332 18.43168179 -22.38027893 17.22579061 -20 15.8125 C-17.20480317 15.05546752 -14.93477822 14.88389568 -12.0625 14.75 C-7.45733482 14.35074801 -5.00853566 13.26477654 -1.98046875 9.76171875 C-0.3727634 6.87297328 -0.68583738 4.20445871 -1 1 C-0.67 0.67 -0.34 0.34 0 0 Z " fill="#BEAD96" transform="translate(25,1)"/>
<path d="M0 0 C0.66 0 1.32 0 2 0 C3.39457694 2.78915389 3.1821922 4.90273264 3 8 C2.649375 8.86625 2.29875 9.7325 1.9375 10.625 C0.81053699 13.47997295 1.03915414 14.13748005 2 17 C2.98573256 19.05884307 4.00994039 21.09950704 5.0625 23.125 C8 28.77882353 8 28.77882353 8 31 C8.66 31 9.32 31 10 31 C9.67 32.32 9.34 33.64 9 35 C8.360625 34.71125 7.72125 34.4225 7.0625 34.125 C3.11589708 32.6752275 -0.8874607 31.84221938 -5 31 C-5 28 -5 28 -3 26 C-3.33 25.113125 -3.66 24.22625 -4 23.3125 C-4.91222143 20.29076653 -5.18330958 18.11626294 -5 15 C-6.32 15.33 -7.64 15.66 -9 16 C-8.75 14.125 -8.75 14.125 -8 12 C-5.9375 10.75 -5.9375 10.75 -4 10 C-4 9.34 -4 8.68 -4 8 C-3.34 8 -2.68 8 -2 8 C-1.855625 6.865625 -1.71125 5.73125 -1.5625 4.5625 C-1 1 -1 1 0 0 Z " fill="#C1B49F" transform="translate(53,7)"/>
<path d="M0 0 C0.8971875 0.309375 0.8971875 0.309375 1.8125 0.625 C0.8225 2.11 0.8225 2.11 -0.1875 3.625 C1.68158256 6.42862384 3.69211365 9.00985683 5.8125 11.625 C4.4925 12.945 3.1725 14.265 1.8125 15.625 C-0.65550047 14.47326645 -2.23533565 13.57716435 -4.1875 11.625 C-6.23364084 11.53407743 -6.23364084 11.53407743 -8.5 11.75 C-12.05782211 11.83607634 -13.05365127 11.70421659 -16.25 9.8125 C-18.1875 7.625 -18.1875 7.625 -18.1875 4.625 C-17.5275 4.625 -16.8675 4.625 -16.1875 4.625 C-16.1875 5.285 -16.1875 5.945 -16.1875 6.625 C-13.39811788 7.04390218 -13.39811788 7.04390218 -10.1875 6.625 C-7.45823609 4.31243506 -7.45823609 4.31243506 -5.1875 1.625 C-2.1875 -0.375 -2.1875 -0.375 0 0 Z " fill="#7E6B5F" transform="translate(22.1875,41.375)"/>
<path d="M0 0 C0 2.33333333 0 4.66666667 0 7 C-0.66 6.67 -1.32 6.34 -2 6 C-2.99 7.32 -3.98 8.64 -5 10 C-3.35 11.65 -1.7 13.3 0 15 C-2.8125 14.875 -2.8125 14.875 -6 14 C-7.875 10.9375 -7.875 10.9375 -9 8 C-9.59732819 10.76264289 -10 13.16032769 -10 16 C-13.77300358 14.9802693 -14.80206144 14.34127338 -16.8125 10.875 C-17.204375 9.92625 -17.59625 8.9775 -18 8 C-17.01 8 -16.02 8 -15 8 C-15.33 6.02 -15.66 4.04 -16 2 C-15.01 1.67 -14.02 1.34 -13 1 C-12.67 1.66 -12.34 2.32 -12 3 C-11.319375 2.505 -10.63875 2.01 -9.9375 1.5 C-6.40534991 -0.30365111 -3.91363009 -0.23021353 0 0 Z " fill="#CABCA4" transform="translate(39,26)"/>
<path d="M0 0 C-0.33 0.66 -0.66 1.32 -1 2 C-1.66 2 -2.32 2 -3 2 C-3 2.99 -3 3.98 -3 5 C-0.525 5.495 -0.525 5.495 2 6 C1.67 6.66 1.34 7.32 1 8 C0.01 8 -0.98 8 -2 8 C-1.67 9.65 -1.34 11.3 -1 13 C-4.75 14.125 -4.75 14.125 -7 13 C-7 11.02 -7 9.04 -7 7 C-8.2375 7.061875 -9.475 7.12375 -10.75 7.1875 C-13.78211302 7.20362826 -14.82248296 7.10651023 -17.5 5.5 C-17.995 5.005 -18.49 4.51 -19 4 C-18.67 3.01 -18.34 2.02 -18 1 C-17.01 1.3403125 -17.01 1.3403125 -16 1.6875 C-12.86301831 2.01426893 -11.81870502 1.67979888 -9 0.5 C-5.61693166 -0.91601914 -3.57796686 -1.22992611 0 0 Z " fill="#C1B09A" transform="translate(19,27)"/>
<path d="M0 0 C1.98 0 3.96 0 6 0 C5.67 1.32 5.34 2.64 5 4 C7.97 3.34 10.94 2.68 14 2 C14 2.33 14 2.66 14 3 C16.97 3.495 16.97 3.495 20 4 C17.9540713 5.09603323 16.14194351 5.96660153 13.875 6.5 C11.77320517 6.89277065 11.77320517 6.89277065 10 9 C9.67 8.67 9.34 8.34 9 8 C8.67 9.98 8.34 11.96 8 14 C7.67 14 7.34 14 7 14 C7 11.36 7 8.72 7 6 C6.01 6.495 6.01 6.495 5 7 C5 8.98 5 10.96 5 13 C1.7 12.34 -1.6 11.68 -5 11 C-4.34 10.67 -3.68 10.34 -3 10 C-3 9.34 -3 8.68 -3 8 C-2.34 7.67 -1.68 7.34 -1 7 C-4.32534757 5.89155081 -6.62182575 6.15545644 -10 7 C-9.67 6.34 -9.34 5.68 -9 5 C-8.01 5 -7.02 5 -6 5 C-5.67 4.01 -5.34 3.02 -5 2 C-4.34 2 -3.68 2 -3 2 C-3 2.66 -3 3.32 -3 4 C-1.68 4.33 -0.36 4.66 1 5 C0.67 3.35 0.34 1.7 0 0 Z " fill="#685751" transform="translate(19,21)"/>
<path d="M0 0 C0.99 0.33 1.98 0.66 3 1 C3.738041 13.66970387 3.738041 13.66970387 -1 19 C-2.98 18.67 -4.96 18.34 -7 18 C-6.67 16.02 -6.34 14.04 -6 12 C-6.99 12 -7.98 12 -9 12 C-8.67 11.01 -8.34 10.02 -8 9 C-7.21625 8.7525 -6.4325 8.505 -5.625 8.25 C-2.64403262 6.83049173 -2.41113389 6.2906444 -1.1875 3.375 C-0.795625 2.26125 -0.40375 1.1475 0 0 Z " fill="#C5B59D" transform="translate(41,1)"/>
<path d="M0 0 C0.66 0 1.32 0 2 0 C4 3 4 3 4 6 C4.99 6.33 5.98 6.66 7 7 C5.35 7.66 3.7 8.32 2 9 C3.32 10.32 4.64 11.64 6 13 C3.525 12.505 3.525 12.505 1 12 C1.33 12.66 1.66 13.32 2 14 C2.33 14.66 2.66 15.32 3 16 C2.01 16.33 1.02 16.66 0 17 C-0.33 17.66 -0.66 18.32 -1 19 C-0.01 19.33 0.98 19.66 2 20 C1.071875 19.979375 0.14375 19.95875 -0.8125 19.9375 C-4.02286011 19.84230396 -4.02286011 19.84230396 -7 21 C-7.66 20.67 -8.32 20.34 -9 20 C-8.67 21.32 -8.34 22.64 -8 24 C-8.66 23.67 -9.32 23.34 -10 23 C-10 22.34 -10 21.68 -10 21 C-11.32 21.33 -12.64 21.66 -14 22 C-14 21.01 -14 20.02 -14 19 C-14.99 18.67 -15.98 18.34 -17 18 C-15.35 18 -13.7 18 -12 18 C-12.33 17.34 -12.66 16.68 -13 16 C-11.63875 16.0309375 -11.63875 16.0309375 -10.25 16.0625 C-6.48922425 16.07902128 -6.48922425 16.07902128 -3 15 C-0.28256192 10.56628524 -0.37412703 5.07040575 0 0 Z " fill="#3E3031" transform="translate(46,27)"/>
<path d="M0 0 C1.9375 0.1875 1.9375 0.1875 4 1 C5.125 3 5.125 3 6 5 C6.66 5.33 7.32 5.66 8 6 C10.125 7.9375 10.125 7.9375 12 10 C12 10.66 12 11.32 12 12 C12.66 12 13.32 12 14 12 C13.67 13.32 13.34 14.64 13 16 C12.0409375 15.566875 12.0409375 15.566875 11.0625 15.125 C7.11589708 13.6752275 3.1125393 12.84221938 -1 12 C-1 9 -1 9 1 7 C0.34 5.02 -0.32 3.04 -1 1 C-0.67 0.67 -0.34 0.34 0 0 Z " fill="#AFA697" transform="translate(49,26)"/>
<path d="M0 0 C0.66 0.33 1.32 0.66 2 1 C2.12375 2.299375 2.2475 3.59875 2.375 4.9375 C2.53684681 7.09125614 2.53684681 7.09125614 3 9 C4.91764174 10.3762794 4.91764174 10.3762794 7 11 C7.33 11.99 7.66 12.98 8 14 C8.66 13.67 9.32 13.34 10 13 C9.67 14.65 9.34 16.3 9 18 C7.68 17.67 6.36 17.34 5 17 C5 15.35 5 13.7 5 12 C4.01 12.66 3.02 13.32 2 14 C-0.6875 13.625 -0.6875 13.625 -3 13 C-2.67 12.38125 -2.34 11.7625 -2 11.125 C-0.85806765 9.08981656 -0.85806765 9.08981656 -1 7 C-1.66 6.34 -2.32 5.68 -3 5 C-3.66 4.34 -4.32 3.68 -5 3 C-2.625 1.4375 -2.625 1.4375 0 0 Z " fill="#76685D" transform="translate(27,45)"/>
<path d="M0 0 C0.99 0 1.98 0 3 0 C4.41634833 2.83269666 4.3463005 5.47466438 4.5625 8.625 C4.64628906 9.81351563 4.73007812 11.00203125 4.81640625 12.2265625 C4.87699219 13.14179688 4.93757813 14.05703125 5 15 C2.525 14.01 2.525 14.01 0 13 C0 13.99 0 14.98 0 16 C-0.99 16 -1.98 16 -3 16 C-2.855625 15.01 -2.71125 14.02 -2.5625 13 C-2.15860169 10.21253281 -1.8182336 7.42343513 -1.5 4.625 C-1 1 -1 1 0 0 Z " fill="#B19F8A" transform="translate(27,3)"/>
<path d="M0 0 C2.7648665 -0.22417836 4.46277487 -0.32233508 6.875 1.125 C8 3 8 3 7.9375 5.8125 C6.86070956 9.47358748 5.35203039 12.00650678 3 15 C2.34 15 1.68 15 1 15 C0.77213542 12.98177083 0.54427083 10.96354167 0.31640625 8.9453125 C0.08707039 6.92595684 0.08707039 6.92595684 -1 5 C0.32 4.34 1.64 3.68 3 3 C2.01 2.01 1.02 1.02 0 0 Z " fill="#6E6055" transform="translate(53,41)"/>
<path d="M0 0 C2.6875 2.9375 2.6875 2.9375 2.84765625 5.046875 C2.5625 7.25 2.5625 7.25 1.6875 10.9375 C-0.3125 6.9375 -0.3125 6.9375 -1 4.75 C-2.28944955 2.53742631 -2.28944955 2.53742631 -5.75 2.25 C-7.5134375 2.0953125 -7.5134375 2.0953125 -9.3125 1.9375 C-10.3025 1.6075 -11.2925 1.2775 -12.3125 0.9375 C-12.6425 1.5975 -12.9725 2.2575 -13.3125 2.9375 C-14.9625 2.9375 -16.6125 2.9375 -18.3125 2.9375 C-17.9375 1 -17.9375 1 -17.3125 -1.0625 C-16.6525 -1.3925 -15.9925 -1.7225 -15.3125 -2.0625 C-15.3125 -1.4025 -15.3125 -0.7425 -15.3125 -0.0625 C-14.6525 -0.0625 -13.9925 -0.0625 -13.3125 -0.0625 C-13.3125 -0.7225 -13.3125 -1.3825 -13.3125 -2.0625 C-7.41877165 -3.26803534 -5.10520186 -3.17871059 0 0 Z " fill="#BBAB96" transform="translate(41.3125,23.0625)"/>
<path d="M0 0 C0.99 0 1.98 0 3 0 C3 0.99 3 1.98 3 3 C4.32 2.67 5.64 2.34 7 2 C9.4294516 5.6441774 9.16179575 7.71241272 9 12 C8.34 12 7.68 12 7 12 C6.67 12.99 6.34 13.98 6 15 C5.566875 14.071875 5.13375 13.14375 4.6875 12.1875 C3.24583739 9.08654089 3.24583739 9.08654089 1.375 7.375 C-0.34531827 5.65468173 -0.69153044 4.39063913 -1 2 C-0.67 1.34 -0.34 0.68 0 0 Z " fill="#C0AF97" transform="translate(29,46)"/>
<path d="M0 0 C2.0625 0.4375 2.0625 0.4375 4 1 C3.690625 1.53625 3.38125 2.0725 3.0625 2.625 C1.81291523 5.41818948 1.47393124 7.97868836 1 11 C0.34 13.31 -0.32 15.62 -1 18 C-6.28 17.34 -11.56 16.68 -17 16 C-17 15.67 -17 15.34 -17 15 C-16.34773438 14.99742188 -15.69546875 14.99484375 -15.0234375 14.9921875 C-10.41853835 14.7884309 -6.89201835 14.55384351 -3.375 11.375 C-1.07382744 8.71285919 -0.99459524 7.93406195 -0.6875 4.1875 C-0.790625 3.135625 -0.89375 2.08375 -1 1 C-0.67 0.67 -0.34 0.34 0 0 Z " fill="#7C6760" transform="translate(25,1)"/>
<path d="M0 0 C-0.99 1.485 -0.99 1.485 -2 3 C-2 4.32 -2 5.64 -2 7 C-4.75924185 8.80411967 -5.88972103 9.0127245 -9.25 8.625 C-10.61125 8.315625 -10.61125 8.315625 -12 8 C-11.60824727 5.56068635 -11.2627764 4.26829402 -9.51171875 2.48046875 C-8.90972656 2.05378906 -8.30773437 1.62710938 -7.6875 1.1875 C-7.09324219 0.74792969 -6.49898437 0.30835938 -5.88671875 -0.14453125 C-3.51795836 -1.21856546 -2.39906969 -0.86324141 0 0 Z " fill="#BCA993" transform="translate(24,42)"/>
<path d="M0 0 C3.08089673 2.77280706 4.68775452 5.06326356 6 9 C5.34 9 4.68 9 4 9 C3.67 9.99 3.34 10.98 3 12 C2.34 11.34 1.68 10.68 1 10 C1.66 10 2.32 10 3 10 C3 9.34 3 8.68 3 8 C-0.82097239 8.53069061 -3.06171403 9.49701566 -6 12 C-6.33 10.02 -6.66 8.04 -7 6 C-5.68 6 -4.36 6 -3 6 C-3 4.35 -3 2.7 -3 1 C-2.01 0.67 -1.02 0.34 0 0 Z " fill="#61524C" transform="translate(20,34)"/>
<path d="M0 0 C2.35171131 0.59861742 4.6859378 1.26924352 7 2 C7.33 2.66 7.66 3.32 8 4 C8.99 4.66 9.98 5.32 11 6 C9.35 6.66 7.7 7.32 6 8 C6 8.66 6 9.32 6 10 C4.35 10.33 2.7 10.66 1 11 C1 10.34 1 9.68 1 9 C0.34 8.67 -0.32 8.34 -1 8 C-0.67 7.01 -0.34 6.02 0 5 C0 4.67 0 4.34 0 4 C0 2.68 0 1.36 0 0 Z " fill="#AE9E89" transform="translate(46,38)"/>
<path d="M0 0 C0.66 0 1.32 0 2 0 C2 0.66 2 1.32 2 2 C2.928125 2.12375 2.928125 2.12375 3.875 2.25 C6 3 6 3 7.125 5 C7.41375 5.66 7.7025 6.32 8 7 C8.66 7.33 9.32 7.66 10 8 C10 8.99 10 9.98 10 11 C6.7 10.34 3.4 9.68 0 9 C0.66 8.67 1.32 8.34 2 8 C2 7.34 2 6.68 2 6 C2.66 5.67 3.32 5.34 4 5 C0.67465243 3.89155081 -1.62182575 4.15545644 -5 5 C-4.67 4.34 -4.34 3.68 -4 3 C-3.01 3 -2.02 3 -1 3 C-0.67 2.01 -0.34 1.02 0 0 Z " fill="#836C61" transform="translate(14,23)"/>
<path d="M0 0 C0.66 0.33 1.32 0.66 2 1 C1.67 1.66 1.34 2.32 1 3 C1.66 3.33 2.32 3.66 3 4 C3 6.31 3 8.62 3 11 C-0.76624671 12.25541557 -2.37188934 11.37061958 -6 10 C-4.93453047 7.86906094 -3.70840281 6.63412443 -2 5 C-1.34 5.33 -0.68 5.66 0 6 C0 5.34 0 4.68 0 4 C-0.99 3.34 -1.98 2.68 -3 2 C-2.01 1.34 -1.02 0.68 0 0 Z " fill="#776159" transform="translate(39,26)"/>
<path d="M0 0 C0.66 0 1.32 0 2 0 C2 2.64 2 5.28 2 8 C2.66 8 3.32 8 4 8 C4.66 10.31 5.32 12.62 6 15 C3.1875 14.375 3.1875 14.375 0 13 C-1.875 9.875 -1.875 9.875 -3 7 C-2.01 7 -1.02 7 0 7 C-0.185625 6.030625 -0.37125 5.06125 -0.5625 4.0625 C-0.706875 3.051875 -0.85125 2.04125 -1 1 C-0.67 0.67 -0.34 0.34 0 0 Z " fill="#9F8A7A" transform="translate(24,27)"/>
<path d="M0 0 C0.67546875 0.08378906 1.3509375 0.16757812 2.046875 0.25390625 C2.93890625 0.35574219 3.8309375 0.45757813 4.75 0.5625 C6.07257812 0.71912109 6.07257812 0.71912109 7.421875 0.87890625 C9.88432451 0.99456676 11.66538064 0.73638695 14 0 C14.1875 2.8125 14.1875 2.8125 14 6 C12.5625 7.5625 12.5625 7.5625 11 9 C10.27802838 11.60611077 10.27802838 11.60611077 10 14 C8.56921707 11.58555381 7.98606 10.28577002 8.125 7.4375 C8.27206982 4.87771465 8.27206982 4.87771465 6.25 3.3125 C4.20040728 2.11690425 2.12653752 1.04986621 0 0 Z " fill="#6C5751" transform="translate(35,21)"/>
<path d="M0 0 C1.1446875 0.2475 1.1446875 0.2475 2.3125 0.5 C5.03596236 1.09145396 5.03596236 1.09145396 8 1 C7.67 1.66 7.34 2.32 7 3 C9.64 3.99 12.28 4.98 15 6 C14.67 6.66 14.34 7.32 14 8 C13.34 8 12.68 8 12 8 C11.67 9.32 11.34 10.64 11 12 C11 10.02 11 8.04 11 6 C9.7625 6.061875 8.525 6.12375 7.25 6.1875 C4.21788698 6.20362826 3.17751704 6.10651023 0.5 4.5 C0.005 4.005 -0.49 3.51 -1 3 C-0.67 2.01 -0.34 1.02 0 0 Z " fill="#6E635C" transform="translate(1,28)"/>
<path d="M0 0 C0.928125 0.165 1.85625 0.33 2.8125 0.5 C5.95621353 1.07748388 5.95621353 1.07748388 9 1 C11.01151741 1.63106429 13.01363702 2.29373761 15 3 C6.43902439 5.2195122 6.43902439 5.2195122 4 4 C4.33 5.32 4.66 6.64 5 8 C4.34 7.67 3.68 7.34 3 7 C3 6.34 3 5.68 3 5 C1.68 5.33 0.36 5.66 -1 6 C-1 5.01 -1 4.02 -1 3 C-1.99 2.67 -2.98 2.34 -4 2 C-2.35 2 -0.7 2 1 2 C0.67 1.34 0.34 0.68 0 0 Z " fill="#322928" transform="translate(33,43)"/>
<path d="M0 0 C0.99 0.33 1.98 0.66 3 1 C3 3 3 5 3 7 C2.34 6.67 1.68 6.34 1 6 C0.01 6.99 -0.98 7.98 -2 9 C-2.66 8.67 -3.32 8.34 -4 8 C-4.25 5.6875 -4.25 5.6875 -4 3 C-2.1875 1.125 -2.1875 1.125 0 0 Z " fill="#AE9F8E" transform="translate(36,26)"/>
<path d="M0 0 C2.96659857 3.55991828 5.381348 7.65222543 7 12 C6.67 12.66 6.34 13.32 6 14 C4.125 13.3125 4.125 13.3125 2 12 C1.29788106 10.34795544 0.63028587 8.68076231 0 7 C-0.99 6.34 -1.98 5.68 -3 5 C-2.01 3.35 -1.02 1.7 0 0 Z " fill="#72645A" transform="translate(52,20)"/>
<path d="M0 0 C-0.99 0.495 -0.99 0.495 -2 1 C-2.309375 1.66 -2.61875 2.32 -2.9375 3 C-4 5 -4 5 -7 6 C-7.33 7.65 -7.66 9.3 -8 11 C-8.33 11 -8.66 11 -9 11 C-9.33 7.37 -9.66 3.74 -10 0 C-5.65055731 -0.86988854 -4.02871475 -1.03595522 0 0 Z " fill="#604948" transform="translate(47,47)"/>
<path d="M0 0 C0.99 0 1.98 0 3 0 C3.28780586 3.05074215 3.45787911 5.96183742 3 9 C0.5 11.0625 0.5 11.0625 -2 12 C-1.85962479 10.18706911 -1.71255111 8.3746557 -1.5625 6.5625 C-1.48128906 5.55316406 -1.40007813 4.54382813 -1.31640625 3.50390625 C-1 1 -1 1 0 0 Z " fill="#E7EAD7" transform="translate(27,3)"/>
<path d="M0 0 C0.66 0 1.32 0 2 0 C2 0.66 2 1.32 2 2 C6.455 2.99 6.455 2.99 11 4 C11 4.99 11 5.98 11 7 C7.18634321 7.35475877 5.41557542 7.2619932 2.125 5.1875 C0 3 0 3 0 0 Z " fill="#85796E" transform="translate(4,46)"/>
<path d="M0 0 C1 2 2 4 3 6 C4.97888961 6.72693904 6.97954558 7.39816251 9 8 C6 10 6 10 2.9375 9.875 C0 9 0 9 -1.5 7.25 C-2.1633991 4.26470406 -1.34308748 2.68617496 0 0 Z " fill="#735D55" transform="translate(30,33)"/>
<path d="M0 0 C-1.39316877 2.78633754 -3.15980516 2.93492694 -6 4 C-6.33 4.33 -6.66 4.66 -7 5 C-8.66617115 5.04063832 -10.33388095 5.042721 -12 5 C-10.98059612 2.2198076 -10.30279713 1.17185783 -7.6875 -0.3125 C-4.7076274 -1.07479299 -2.9290363 -0.83686751 0 0 Z " fill="#E5E6D3" transform="translate(19,27)"/>
<path d="M0 0 C-0.99 0 -1.98 0 -3 0 C-3 0.66 -3 1.32 -3 2 C-3.969375 2.12375 -4.93875 2.2475 -5.9375 2.375 C-6.948125 2.58125 -7.95875 2.7875 -9 3 C-9.33 3.66 -9.66 4.32 -10 5 C-11.65 5 -13.3 5 -15 5 C-14.625 3.0625 -14.625 3.0625 -14 1 C-13.34 0.67 -12.68 0.34 -12 0 C-12 0.66 -12 1.32 -12 2 C-11.34 2 -10.68 2 -10 2 C-10 1.34 -10 0.68 -10 0 C-6.33694766 -0.74926071 -3.57644848 -1.2380014 0 0 Z " fill="#AA9787" transform="translate(38,21)"/>
<path d="M0 0 C1.32 0.33 2.64 0.66 4 1 C4 1.66 4 2.32 4 3 C4.99 3.33 5.98 3.66 7 4 C5.125 5.0625 5.125 5.0625 3 6 C2.34 5.67 1.68 5.34 1 5 C1 5.66 1 6.32 1 7 C0.34 7 -0.32 7 -1 7 C-1.66 5.68 -2.32 4.36 -3 3 C-2.01 3 -1.02 3 0 3 C0 2.01 0 1.02 0 0 Z " fill="#6A554F" transform="translate(27,16)"/>
<path d="M0 0 C2.4375 0.375 2.4375 0.375 5 1 C5.33 1.66 5.66 2.32 6 3 C2.00999834 4.42500059 -1.80530429 5.40075776 -6 6 C-5.34 5.67 -4.68 5.34 -4 5 C-3.67 4.01 -3.34 3.02 -3 2 C-2.01 2 -1.02 2 0 2 C0 1.34 0 0.68 0 0 Z " fill="#64504B" transform="translate(43,40)"/>
<path d="M0 0 C2.63840764 1.03937271 3.54887645 2.4663835 5.0625 4.8125 C-1.5625 5.0625 -1.5625 5.0625 -4.9375 2.8125 C-3.66088672 0.25927344 -2.8538924 -0.27618314 0 0 Z " fill="#9D8C7A" transform="translate(51.9375,34.1875)"/>
<path d="M0 0 C1.98 0 3.96 0 6 0 C5.34 3.3 4.68 6.6 4 10 C1 8 1 8 0.48828125 6.0546875 C0.32552083 4.03645833 0.16276042 2.01822917 0 0 Z " fill="#584342" transform="translate(19,21)"/>
<path d="M0 0 C-0.50603992 2.16874252 -0.99983813 3.99967627 -2 6 C-2.66 6 -3.32 6 -4 6 C-4 6.66 -4 7.32 -4 8 C-5.32 8 -6.64 8 -8 8 C-7.65978036 4.82461668 -6.97533396 3.97723135 -4.5625 1.75 C-2 0 -2 0 0 0 Z " fill="#D7D4C3" transform="translate(20,42)"/>
<path d="M0 0 C0.99 0.33 1.98 0.66 3 1 C2.34 1 1.68 1 1 1 C1 1.66 1 2.32 1 3 C4.465 2.505 4.465 2.505 8 2 C8.33 3.32 8.66 4.64 9 6 C8.15695312 5.75443359 8.15695312 5.75443359 7.296875 5.50390625 C4.86940944 4.97135003 2.73110319 4.90101319 0.25 4.9375 C-0.94882813 4.95103516 -0.94882813 4.95103516 -2.171875 4.96484375 C-3.07679687 4.98224609 -3.07679687 4.98224609 -4 5 C-2.25 1.125 -2.25 1.125 0 0 Z " fill="#6A5D55" transform="translate(5,17)"/>
<path d="M0 0 C0.66 0.33 1.32 0.66 2 1 C2.59355614 3.64860427 2.74209269 6.29197322 3 9 C1.02 8.01 -0.96 7.02 -3 6 C-3 5.34 -3 4.68 -3 4 C-3.66 3.67 -4.32 3.34 -5 3 C-2.625 1.4375 -2.625 1.4375 0 0 Z " fill="#423433" transform="translate(27,45)"/>
<path d="M0 0 C0.99 0 1.98 0 3 0 C1.98823563 3.40320742 1.35156418 4.75725331 -1.625 6.8125 C-2.40875 7.204375 -3.1925 7.59625 -4 8 C-4.33 7.01 -4.66 6.02 -5 5 C-3.625 3.5 -3.625 3.5 -2 2 C-1.34 2 -0.68 2 0 2 C0 1.34 0 0.68 0 0 Z " fill="#D5D1BE" transform="translate(49,15)"/>
<path d="M0 0 C2.7648665 -0.22417836 4.46277487 -0.32233508 6.875 1.125 C8.55290631 3.92151052 7.74875648 5.93690532 7 9 C6.34 8.34 5.68 7.68 5 7 C5 6.01 5 5.02 5 4 C4.360625 3.71125 3.72125 3.4225 3.0625 3.125 C1 2 1 2 0 0 Z " fill="#554641" transform="translate(53,41)"/>
<path d="M0 0 C0.78246094 -0.01417969 1.56492187 -0.02835938 2.37109375 -0.04296875 C4.5625 0.1875 4.5625 0.1875 7.5625 2.1875 C-1.84752278 3.33556378 -1.84752278 3.33556378 -6.4375 3.1875 C-6.4375 2.5275 -6.4375 1.8675 -6.4375 1.1875 C-4.0978331 0.01766655 -2.60358473 0.0213759 0 0 Z " fill="#DFDDC8" transform="translate(12.4375,16.8125)"/>
<path d="M0 0 C1.32 0 2.64 0 4 0 C4 2.31 4 4.62 4 7 C3.34 7 2.68 7 2 7 C1.67 7.99 1.34 8.98 1 10 C0.67 6.7 0.34 3.4 0 0 Z " fill="#E2E3D0" transform="translate(34,51)"/>
<path d="M0 0 C0.625 1.8125 0.625 1.8125 1 4 C-1 7 -1 7 -3.625 7.6875 C-4.800625 7.8421875 -4.800625 7.8421875 -6 8 C-4.55746343 4.63408134 -2.66735273 2.48952921 0 0 Z " fill="#E5E6D3" transform="translate(42,6)"/>
<path d="M0 0 C2.31 0.66 4.62 1.32 7 2 C7.33 3.32 7.66 4.64 8 6 C5.23723823 5.47731534 2.6739124 4.89130413 0 4 C0 2.68 0 1.36 0 0 Z " fill="#9A8271" transform="translate(46,38)"/>
<path d="M0 0 C0.66 0 1.32 0 2 0 C2 2.97 2 5.94 2 9 C1.01 9.33 0.02 9.66 -1 10 C-1.66 9.01 -2.32 8.02 -3 7 C-2.01 7 -1.02 7 0 7 C-0.185625 6.030625 -0.37125 5.06125 -0.5625 4.0625 C-0.706875 3.051875 -0.85125 2.04125 -1 1 C-0.67 0.67 -0.34 0.34 0 0 Z " fill="#B6A38E" transform="translate(24,27)"/>
<path d="M0 0 C0.33 0 0.66 0 1 0 C1.03738281 0.68707031 1.07476562 1.37414062 1.11328125 2.08203125 C1.17902344 2.98308594 1.24476562 3.88414063 1.3125 4.8125 C1.37050781 5.70582031 1.42851563 6.59914063 1.48828125 7.51953125 C2.06313581 10.30604 2.8206856 11.24135754 5 13 C3.35 13.33 1.7 13.66 0 14 C-1.03115279 10.73086376 -0.9638984 8.13958652 -0.5625 4.75 C-0.46066406 3.85796875 -0.35882813 2.9659375 -0.25390625 2.046875 C-0.17011719 1.37140625 -0.08632813 0.6959375 0 0 Z " fill="#6A6059" transform="translate(44,4)"/>
<path d="M0 0 C0.66 0 1.32 0 2 0 C3.38125018 2.76250036 3.19079306 4.94731099 3 8 C2.34 8.66 1.68 9.32 1 10 C-0.85064319 6.87703962 -1.29356154 4.62059232 -1 1 C-0.67 0.67 -0.34 0.34 0 0 Z " fill="#6A5C55" transform="translate(53,7)"/>
<path d="M0 0 C0.33 0.66 0.66 1.32 1 2 C1.66 2 2.32 2 3 2 C2.37063561 4.93703384 1.37579827 7.33788628 0 10 C-0.19412181 8.52168779 -0.38012131 7.04230684 -0.5625 5.5625 C-0.66691406 4.73878906 -0.77132813 3.91507813 -0.87890625 3.06640625 C-0.91886719 2.38449219 -0.95882813 1.70257812 -1 1 C-0.67 0.67 -0.34 0.34 0 0 Z " fill="#BFAF9B" transform="translate(28,28)"/>
<path d="M0 0 C0.66 1.32 1.32 2.64 2 4 C1.34 4.66 0.68 5.32 0 6 C-2.625 5.625 -2.625 5.625 -5 5 C-4 2 -4 2 -1.9375 0.8125 C-1.298125 0.544375 -0.65875 0.27625 0 0 Z " fill="#93796B" transform="translate(39,14)"/>
<path d="M0 0 C0.99 0.33 1.98 0.66 3 1 C3 3.31 3 5.62 3 8 C1.68 7.34 0.36 6.68 -1 6 C-1.042721 4.33388095 -1.04063832 2.66617115 -1 1 C-0.67 0.67 -0.34 0.34 0 0 Z " fill="#A39589" transform="translate(41,1)"/>
<path d="M0 0 C0.99 0 1.98 0 3 0 C3 0.99 3 1.98 3 3 C4.32 2.67 5.64 2.34 7 2 C7 2.66 7 3.32 7 4 C5.02 4 3.04 4 1 4 C0.67 4.66 0.34 5.32 0 6 C-1.125 2.25 -1.125 2.25 0 0 Z " fill="#9B8171" transform="translate(29,46)"/>
<path d="M0 0 C1.08667969 0.29197266 1.08667969 0.29197266 2.1953125 0.58984375 C2.74960937 0.74582031 3.30390625 0.90179687 3.875 1.0625 C0.90812999 2.71076111 -1.78126525 3.50521087 -5.125 4.0625 C-5.455 2.7425 -5.785 1.4225 -6.125 0.0625 C-3.57797384 -1.21101308 -2.6967055 -0.73941925 0 0 Z " fill="#61494A" transform="translate(35.125,23.9375)"/>
<path d="M0 0 C0 3 0 3 -1.25 4.6875 C-3 6 -3 6 -7 6 C-6.67 5.01 -6.34 4.02 -6 3 C-3.5 1.875 -3.5 1.875 -1 1 C-0.67 0.67 -0.34 0.34 0 0 Z " fill="#937F75" transform="translate(39,7)"/>
<path d="M0 0 C0.99 0 1.98 0 3 0 C3 1.98 3 3.96 3 6 C2.01 5.67 1.02 5.34 0 5 C-0.75 3 -0.75 3 -1 1 C-0.67 0.67 -0.34 0.34 0 0 Z " fill="#CECEBD" transform="translate(27,3)"/>
<path d="M0 0 C2.31 0.66 4.62 1.32 7 2 C4 4 4 4 1.3125 3.625 C0.549375 3.41875 -0.21375 3.2125 -1 3 C-0.67 2.01 -0.34 1.02 0 0 Z " fill="#604B48" transform="translate(32,39)"/>
<path d="M0 0 C2.475 0.495 2.475 0.495 5 1 C5.33 2.32 5.66 3.64 6 5 C4.68 4.67 3.36 4.34 2 4 C2 3.01 2 2.02 2 1 C1.34 0.67 0.68 0.34 0 0 Z " fill="#654B4B" transform="translate(17,36)"/>
<path d="M0 0 C0.66 0.99 1.32 1.98 2 3 C1.67 3.99 1.34 4.98 1 6 C0.01 5.67 -0.98 5.34 -2 5 C-2 3.68 -2 2.36 -2 1 C-1.34 0.67 -0.68 0.34 0 0 Z " fill="#D5CDB8" transform="translate(15,35)"/>
<path d="M0 0 C0.99 0.33 1.98 0.66 3 1 C2.34 1.66 1.68 2.32 1 3 C0.59952556 5.32275177 0.2602896 7.65739357 0 10 C-0.33 10 -0.66 10 -1 10 C-1.9765625 3.9453125 -1.9765625 3.9453125 -2 2 C-1.34 1.34 -0.68 0.68 0 0 Z " fill="#D3CBB5" transform="translate(32,26)"/>
<path d="M0 0 C0.66 0 1.32 0 2 0 C2 0.66 2 1.32 2 2 C2.99 2.33 3.98 2.66 5 3 C1.7 3.66 -1.6 4.32 -5 5 C-4.67 4.34 -4.34 3.68 -4 3 C-3.01 3 -2.02 3 -1 3 C-0.67 2.01 -0.34 1.02 0 0 Z " fill="#5F4B47" transform="translate(14,23)"/>
<path d="M0 0 C2.6875 0.3125 2.6875 0.3125 5 1 C3 3 3 3 -0.125 3.125 C-1.548125 3.063125 -1.548125 3.063125 -3 3 C-1.8125 1.4375 -1.8125 1.4375 0 0 Z " fill="#D4CBB5" transform="translate(35,22)"/>
<path d="M0 0 C0.33 0.99 0.66 1.98 1 3 C0.34 3 -0.32 3 -1 3 C-1.28875 3.804375 -1.5775 4.60875 -1.875 5.4375 C-3 8 -3 8 -5 9 C-4.75 6.625 -4.75 6.625 -4 4 C-1.9375 2.6875 -1.9375 2.6875 0 2 C0 1.34 0 0.68 0 0 Z " fill="#9F8E7D" transform="translate(53,17)"/>
<path d="M0 0 C1.32 0.99 2.64 1.98 4 3 C3.01 3.99 2.02 4.98 1 6 C0.34 5.67 -0.32 5.34 -1 5 C-0.67 3.35 -0.34 1.7 0 0 Z " fill="#533F3F" transform="translate(42,16)"/>
</svg>
